<?xml version="1.0" encoding="utf-8"?>
<!-- Generator: Adobe Illustrator 26.1.0, SVG Export Plug-In . SVG Version: 6.00 Build 0)  -->
<svg version="1.1" id="레이어_1" xmlns="http://www.w3.org/2000/svg" xmlns:xlink="http://www.w3.org/1999/xlink" x="0px"
	 y="0px" viewBox="0 0 856.87 206.39" style="enable-background:new 0 0 856.87 206.39;" xml:space="preserve">
<style type="text/css">
	.st0{fill:#FFFFFF;}
	.st1{fill:#FFD141;}
	.st2{fill:#F6CA46;}
</style>
<text transform="matrix(1 0 0 1.06 1176.5582 922.5438)" style="font-family:'GmarketSansTTFBold'; font-size:70px; letter-spacing:-1;">티블을 선택하는 이유</text>
<text transform="matrix(0.9536 0 -0.342 0.9397 1322.5178 975.3716)" class="st1" style="font-family:'GmarketSansTTFBold'; font-size:60px;">Tble Point</text>
<g>
	<path class="st0" d="M1499.92,827.04c-11.55,0-20.9-9.36-20.9-20.9c0-9.33,6.12-17.24,14.56-19.92c-6.9-2.16-14.9-0.86-20.94,5.18
		c-13.16,13.16-3.84,35.66,14.77,35.66c0,4.84-1.27,8.66-4.18,12.53c6.89-2.23,13.09-6.76,17.6-12.57
		C1500.52,827.03,1500.22,827.04,1499.92,827.04z"/>
	<path class="st0" d="M1489.36,791.39c-13.16,13.16-3.84,35.66,14.77,35.66c0,4.84-1.27,8.66-4.18,12.53
		c13.96-4.51,25.07-18.46,25.07-33.42C1525.02,787.55,1502.52,778.23,1489.36,791.39z"/>
</g>
<text transform="matrix(1 0 0 1.06 1176.5582 636.109)" style="font-family:'GmarketSansTTFBold'; font-size:70px; letter-spacing:-1;">티블을 선택하는 이유</text>
<text transform="matrix(0.9536 0 -0.342 0.9397 1322.5178 688.9368)" class="st1" style="font-family:'GmarketSansTTFBold'; font-size:60px;">Tble Point</text>
<g>
	<path class="st0" d="M1499.92,540.6c-11.55,0-20.9-9.36-20.9-20.9c0-9.33,6.12-17.24,14.56-19.92c-6.9-2.16-14.9-0.86-20.94,5.18
		c-13.16,13.16-3.84,35.66,14.77,35.66c0,4.84-1.27,8.66-4.18,12.53c6.89-2.23,13.09-6.76,17.6-12.57
		C1500.52,540.59,1500.22,540.6,1499.92,540.6z"/>
	<path class="st0" d="M1489.36,504.96c-13.16,13.16-3.84,35.66,14.77,35.66c0,4.84-1.27,8.66-4.18,12.53
		c13.96-4.51,25.07-18.46,25.07-33.42C1525.02,501.12,1502.52,491.8,1489.36,504.96z"/>
</g>
<text transform="matrix(1 0 0 1.06 1176.5582 396.6305)" style="font-family:'GmarketSansTTFBold'; font-size:70px; letter-spacing:-1;">티블을 선택하는 이유</text>
<text transform="matrix(0.9536 0 -0.342 0.9397 1322.5178 449.459)" class="st1" style="font-family:'GmarketSansTTFBold'; font-size:60px;">Tble Point</text>
<g>
	<path class="st0" d="M1499.92,301.13c-11.55,0-20.9-9.36-20.9-20.9c0-9.33,6.12-17.24,14.56-19.92c-6.9-2.16-14.9-0.86-20.94,5.18
		c-13.16,13.16-3.84,35.66,14.77,35.66c0,4.84-1.27,8.66-4.18,12.53c6.89-2.23,13.09-6.76,17.6-12.57
		C1500.52,301.12,1500.22,301.13,1499.92,301.13z"/>
	<path class="st0" d="M1489.36,265.48c-13.16,13.16-3.84,35.66,14.77,35.66c0,4.84-1.27,8.66-4.18,12.53
		c13.96-4.51,25.07-18.46,25.07-33.42C1525.02,261.64,1502.52,252.32,1489.36,265.48z"/>
</g>
<text transform="matrix(1 0 0 1.06 1176.5582 150.1088)" style="font-family:'GmarketSansTTFBold'; font-size:70px; letter-spacing:-1;">티블을 선택하는 이유</text>
<text transform="matrix(0.9536 0 -0.342 0.9397 1322.5178 202.9371)" class="st1" style="font-family:'GmarketSansTTFBold'; font-size:60px;">Tble Point</text>
<g>
	<path class="st0" d="M1499.92,54.6c-11.55,0-20.9-9.36-20.9-20.9c0-9.33,6.12-17.24,14.56-19.92c-6.9-2.16-14.9-0.86-20.94,5.18
		c-13.16,13.16-3.84,35.66,14.77,35.66c0,4.84-1.27,8.66-4.18,12.53c6.89-2.23,13.09-6.76,17.6-12.57
		C1500.52,54.59,1500.22,54.6,1499.92,54.6z"/>
	<path class="st0" d="M1489.36,18.96c-13.16,13.16-3.84,35.66,14.77,35.66c0,4.84-1.27,8.66-4.18,12.53
		c13.96-4.51,25.07-18.46,25.07-33.42C1525.02,15.12,1502.52,5.8,1489.36,18.96z"/>
</g>
<text transform="matrix(1 0 0 1.06 110.6452 1399.1522)" style="font-family:'GmarketSansTTFBold'; font-size:70px; letter-spacing:-1;">티블을 선택하는 이유</text>
<text transform="matrix(0.9536 0 -0.342 0.9397 256.6048 1451.9806)" class="st1" style="font-family:'GmarketSansTTFBold'; font-size:60px;">Tble Point</text>
<g>
	<path class="st0" d="M434.01,1303.65c-11.55,0-20.9-9.36-20.9-20.9c0-9.33,6.12-17.24,14.56-19.92c-6.9-2.16-14.9-0.86-20.94,5.18
		c-13.16,13.16-3.84,35.66,14.77,35.66c0,4.84-1.27,8.66-4.18,12.53c6.89-2.23,13.09-6.76,17.6-12.57
		C434.61,1303.64,434.31,1303.65,434.01,1303.65z"/>
	<path class="st0" d="M423.44,1268c-13.16,13.16-3.84,35.66,14.77,35.66c0,4.84-1.27,8.66-4.18,12.53
		c13.96-4.51,25.07-18.46,25.07-33.42C459.1,1264.16,436.6,1254.84,423.44,1268z"/>
</g>
<text transform="matrix(1 0 0 1.06 110.645 1164.3696)" style="font-family:'GmarketSansTTFBold'; font-size:70px; letter-spacing:-1;">티블을 선택하는 이유</text>
<text transform="matrix(0.9536 0 -0.342 0.9397 256.6049 1217.1981)" class="st1" style="font-family:'GmarketSansTTFBold'; font-size:60px;">Tble Point</text>
<g>
	<path class="st0" d="M434.01,1068.86c-11.55,0-20.9-9.36-20.9-20.9c0-9.33,6.12-17.24,14.56-19.92c-6.9-2.16-14.9-0.86-20.94,5.18
		c-13.16,13.16-3.84,35.66,14.77,35.66c0,4.84-1.27,8.66-4.18,12.53c6.89-2.23,13.09-6.76,17.6-12.57
		C434.61,1068.85,434.31,1068.86,434.01,1068.86z"/>
	<path class="st0" d="M423.44,1033.22c-13.16,13.16-3.84,35.66,14.77,35.66c0,4.84-1.27,8.66-4.18,12.53
		c13.96-4.51,25.07-18.46,25.07-33.42C459.1,1029.38,436.6,1020.06,423.44,1033.22z"/>
</g>
<text transform="matrix(1 0 0 1.06 110.645 915.4999)" style="font-family:'GmarketSansTTFBold'; font-size:70px; letter-spacing:-1;">티블을 선택하는 이유</text>
<text transform="matrix(0.9536 0 -0.342 0.9397 256.6049 968.3289)" class="st1" style="font-family:'GmarketSansTTFBold'; font-size:60px;">Tble Point</text>
<g>
	<path class="st0" d="M434.01,820c-11.55,0-20.9-9.36-20.9-20.9c0-9.33,6.12-17.24,14.56-19.92c-6.9-2.16-14.9-0.86-20.94,5.18
		c-13.16,13.16-3.84,35.66,14.77,35.66c0,4.84-1.27,8.66-4.18,12.53c6.89-2.23,13.09-6.76,17.6-12.57
		C434.61,819.99,434.31,820,434.01,820z"/>
	<path class="st0" d="M423.44,784.35c-13.16,13.16-3.84,35.66,14.77,35.66c0,4.84-1.27,8.66-4.18,12.53
		c13.96-4.51,25.07-18.46,25.07-33.42C459.1,780.51,436.6,771.19,423.44,784.35z"/>
</g>
<text transform="matrix(1 0 0 1.06 110.645 668.9782)" style="font-family:'GmarketSansTTFBold'; font-size:70px; letter-spacing:-1;">티블을 선택하는 이유</text>
<text transform="matrix(0.9536 0 -0.342 0.9397 256.6049 721.8066)" class="st1" style="font-family:'GmarketSansTTFBold'; font-size:60px;">Tble Point</text>
<g>
	<path class="st0" d="M434.01,573.47c-11.55,0-20.9-9.36-20.9-20.9c0-9.33,6.12-17.24,14.56-19.92c-6.9-2.16-14.9-0.86-20.94,5.18
		c-13.16,13.16-3.84,35.66,14.77,35.66c0,4.84-1.27,8.66-4.18,12.53c6.89-2.23,13.09-6.76,17.6-12.57
		C434.61,573.46,434.31,573.47,434.01,573.47z"/>
	<path class="st0" d="M423.44,537.83c-13.16,13.16-3.84,35.66,14.77,35.66c0,4.84-1.27,8.66-4.18,12.53
		c13.96-4.51,25.07-18.46,25.07-33.42C459.1,533.99,436.6,524.67,423.44,537.83z"/>
</g>
<g>
	<path d="M181.13,397.36h-25.34v-9.87h8.26V377.4h11.69v10.09h5.6c3.08,0,6-0.19,8.75-0.56c2.75-0.37,4.99-0.95,6.72-1.74v9.87
		C193.5,396.59,188.27,397.36,181.13,397.36z M181.41,372.65h-23.38v-10.09h35.14v21.82h-11.76V372.65z M205.6,403.51
		c4.69,2.18,7.04,5.42,7.04,9.72s-2.35,7.54-7.04,9.72c-4.69,2.18-11.3,3.26-19.84,3.26c-8.59,0-15.23-1.09-19.92-3.26
		c-4.69-2.18-7.04-5.42-7.04-9.72s2.35-7.54,7.04-9.72s11.33-3.26,19.92-3.26C194.29,400.25,200.91,401.34,205.6,403.51z
		 M196.53,416.02c2.43-0.67,3.64-1.59,3.64-2.78s-1.21-2.11-3.64-2.78c-2.43-0.67-6.02-1-10.78-1c-4.81,0-8.42,0.33-10.85,1
		c-2.43,0.67-3.64,1.59-3.64,2.78s1.21,2.12,3.64,2.78c2.43,0.67,6.04,1,10.85,1C190.51,417.02,194.11,416.68,196.53,416.02z
		 M218.93,373.32v11.58h-6.86v14.84h-11.83v-37.62h11.83v11.21H218.93z"/>
	<path d="M281.86,411.53v11.72h-60.48v-11.72h19.46v-24.78h12.25v24.78H281.86z M266.25,375.24h-41.72v-11.65h54.04v41.77h-12.32
		V375.24z"/>
	<path d="M347.45,392.68v10.31h-24.29v8.61h-11.9v-8.61h-24.29v-10.31H347.45z M302.51,415.09h42.14v10.39h-54.18V406.7h12.04
		V415.09z M343.81,388.97h-53.2v-26.86h53.2V388.97z M332.05,371.98h-29.68v7.12h29.68V371.98z"/>
	<path d="M388.26,421.8c-2.89,0.47-5.88,0.71-8.96,0.71h-26.74v-11.72h27.23c2.99,0,5.87-0.21,8.65-0.63
		c2.78-0.42,5.05-1.05,6.82-1.89v11.58C393.49,420.68,391.16,421.33,388.26,421.8z M383.12,365.12c2.87,1.71,5.12,4.12,6.76,7.23
		c1.63,3.12,2.45,6.7,2.45,10.76c0,4.06-0.82,7.64-2.45,10.76c-1.63,3.12-3.89,5.53-6.76,7.23c-2.87,1.71-6.15,2.56-9.83,2.56
		c-3.69,0-6.98-0.85-9.87-2.56c-2.89-1.71-5.16-4.12-6.79-7.23c-1.63-3.12-2.45-6.7-2.45-10.76c0-4.06,0.82-7.64,2.45-10.76
		c1.63-3.12,3.9-5.53,6.79-7.23c2.89-1.71,6.18-2.56,9.87-2.56C376.97,362.56,380.25,363.41,383.12,365.12z M367.68,376.39
		c-1.4,1.76-2.1,4-2.1,6.71c0,2.77,0.7,5.02,2.1,6.75c1.4,1.73,3.27,2.6,5.6,2.6c2.33,0,4.2-0.88,5.6-2.63
		c1.4-1.75,2.1-3.99,2.1-6.71c0-2.72-0.7-4.96-2.1-6.71s-3.27-2.63-5.6-2.63C370.95,373.76,369.08,374.64,367.68,376.39z
		 M410.52,425.48h-11.83v-63.37h11.83V425.48z"/>
	<path d="M448.32,396.69c-3.59,2.28-7.44,3.51-11.55,3.71v-11.65c3.08-0.4,5.84-1.79,8.29-4.19c2.45-2.4,4.38-5.54,5.77-9.42
		c1.4-3.88,2.12-8.12,2.17-12.73l11.9,0.74c0,5.05-0.79,9.89-2.38,14.54l17.22,12.91l-6.93,8.9l-15.19-11.95
		C455.02,391.37,451.91,394.41,448.32,396.69z M494.66,414.2v11.28h-54.32v-22.19h12.04v10.91H494.66z M493.82,409h-11.83v-46.89
		h11.83V409z"/>
	<path d="M513.53,396.5c-3.34,1.76-6.97,2.68-10.89,2.78v-10.54c3.41-0.3,6.3-1.55,8.68-3.75c2.38-2.2,4.01-4.88,4.9-8.05h-12.88
		v-10.09h13.16V361h12.04v5.86h13.16v7.27h6.16v-12.02h11.83v37.62h-11.83v-14.47h-7.84v-8.31h-11.69c-0.37,1.58-0.7,2.75-0.98,3.49
		l16.1,9.2l-5.32,9.2l-15.96-9.35C519.74,392.41,516.86,394.75,513.53,396.5z M552.87,403.55c4.92,2,7.38,5.28,7.38,9.83
		s-2.46,7.83-7.38,9.83c-4.92,2-11.56,3-19.92,3c-8.35,0-14.99-1-19.92-3c-4.92-2-7.38-5.28-7.38-9.83s2.46-7.83,7.38-9.83
		c4.92-2,11.56-3.01,19.92-3.01C541.3,400.55,547.94,401.55,552.87,403.55z M543.66,415.91c2.61-0.49,3.92-1.33,3.92-2.52
		c0-2.18-4.88-3.26-14.63-3.26c-9.75,0-14.63,1.09-14.63,3.26c0,1.19,1.31,2.03,3.92,2.52c2.61,0.5,6.18,0.74,10.71,0.74
		C537.48,416.65,541.05,416.4,543.66,415.91z"/>
	<path d="M593.92,369.75h13.3v11.43h-38.78v-11.43h13.37v-7.87h12.11V369.75z M597.04,386.34c2.64,1.71,4.65,4.06,6.05,7.05
		c1.4,2.99,2.1,6.37,2.1,10.13c0,3.76-0.7,7.14-2.1,10.13c-1.4,2.99-3.42,5.34-6.05,7.05c-2.64,1.71-5.71,2.56-9.21,2.56
		s-6.57-0.85-9.21-2.56c-2.64-1.71-4.65-4.06-6.06-7.05c-1.4-2.99-2.1-6.37-2.1-10.13c0-3.76,0.7-7.13,2.1-10.13
		c1.4-2.99,3.42-5.34,6.06-7.05c2.64-1.71,5.71-2.56,9.21-2.56S594.4,384.63,597.04,386.34z M592.31,410.04
		c1.07-1.63,1.61-3.81,1.61-6.53c0-2.72-0.54-4.9-1.61-6.53c-1.07-1.63-2.57-2.45-4.48-2.45c-1.91,0-3.41,0.82-4.48,2.45
		c-1.07,1.63-1.61,3.81-1.61,6.53c0,2.72,0.54,4.9,1.61,6.53c1.07,1.63,2.57,2.45,4.48,2.45
		C589.74,412.49,591.24,411.68,592.31,410.04z M630.32,397.43h-7v28.05h-11.83v-63.37h11.83v23.15h7V397.43z"/>
	<path d="M669.52,380.74c0,8.51-1.41,15.9-4.24,22.19c-2.82,6.28-6.82,11.12-12,14.51s-11.25,5.08-18.2,5.08v-11.87
		c7.14-0.05,12.65-2.72,16.52-8.01c3.87-5.29,5.81-12.59,5.81-21.89v-5.71h-22.33v-11.43h34.44V380.74z M690.59,425.48h-11.83
		v-63.37h11.83V425.48z"/>
</g>
<g>
	<path class="st1" d="M255.4,473.66c-3.04-2.09-4.96-4.96-5.79-8.63c-0.82-3.66-0.4-7.79,1.27-12.38c1.67-4.58,4.25-8.71,7.74-12.38
		c3.49-3.67,7.51-6.54,12.07-8.63c4.55-2.09,9.2-3.13,13.93-3.13c4.16,0,7.61,0.75,10.36,2.25c2.75,1.5,4.68,3.57,5.78,6.2
		s1.38,5.58,0.84,8.85h-10.53c0.25-2.25-0.49-4.13-2.21-5.64c-1.72-1.5-4.2-2.26-7.45-2.26c-2.78,0-5.53,0.63-8.24,1.89
		c-2.71,1.26-5.11,3.01-7.2,5.24c-2.09,2.24-3.65,4.76-4.68,7.58c-1.01,2.78-1.29,5.3-0.83,7.56c0.46,2.25,1.58,4.01,3.37,5.27
		c1.79,1.26,4.08,1.89,6.87,1.89c2.14,0,4.3-0.41,6.49-1.24c2.19-0.83,4.14-1.9,5.86-3.21s2.96-2.67,3.74-4.06h10.53
		c-1.63,3.12-4.02,6.05-7.15,8.8c-3.14,2.74-6.73,4.95-10.79,6.62c-4.06,1.67-8.17,2.51-12.33,2.51
		C262.32,476.79,258.44,475.75,255.4,473.66z"/>
	<path class="st1" d="M333.66,444.06c2.17,1.49,3.54,3.54,4.1,6.17c0.57,2.63,0.25,5.6-0.95,8.91c-1.2,3.31-3.05,6.28-5.53,8.91
		c-2.48,2.63-5.35,4.69-8.6,6.17c-3.25,1.48-6.57,2.23-9.96,2.23c-3.4,0-6.18-0.74-8.34-2.23c-2.17-1.49-3.54-3.54-4.1-6.17
		c-0.57-2.63-0.25-5.6,0.95-8.91c1.2-3.31,3.05-6.28,5.53-8.91c2.48-2.63,5.35-4.69,8.6-6.17c3.25-1.48,6.57-2.23,9.96-2.23
		C328.71,441.84,331.49,442.58,333.66,444.06z M315.55,452.86c-2.06,1.64-3.56,3.73-4.49,6.29c-0.93,2.56-0.96,4.65-0.08,6.29
		c0.87,1.63,2.49,2.45,4.86,2.45c2.36,0,4.58-0.82,6.64-2.45c2.06-1.64,3.56-3.73,4.49-6.29c0.93-2.56,0.96-4.65,0.08-6.29
		c-0.87-1.63-2.49-2.45-4.86-2.45C319.83,450.4,317.62,451.22,315.55,452.86z"/>
	<path class="st1" d="M348.77,442.62h10.18l-1.23,3.38c3.11-2.78,6.74-4.17,10.9-4.17c2.59,0,4.67,0.59,6.22,1.78
		c1.55,1.18,2.47,2.88,2.75,5.1c0.28,2.22-0.13,4.83-1.22,7.84l-6.96,19.11h-10.18l6.34-17.42c0.92-2.52,1.11-4.45,0.59-5.78
		c-0.53-1.33-1.74-2-3.65-2c-1.98,0-3.81,0.73-5.49,2.2c-1.68,1.47-2.98,3.48-3.91,6.03l-6.18,16.97h-10.18L348.77,442.62z"/>
	<path class="st1" d="M405.19,451.25h-6.64l-8.89,24.41h-10.18l8.89-24.41h-6.64l3.14-8.63h6.64l3.57-9.81h10.18l-3.57,9.81h6.64
		L405.19,451.25z"/>
	<path class="st1" d="M406.96,474.23c-1.94-1.49-3.12-3.54-3.53-6.17c-0.42-2.63-0.02-5.6,1.18-8.91c1.2-3.31,2.97-6.28,5.3-8.91
		c2.33-2.63,5.01-4.69,8.03-6.17c3.02-1.48,6.11-2.23,9.28-2.23c4.31,0,7.01,1.39,8.09,4.17l1.23-3.38h10.18l-12.03,33.04h-10.18
		l1.23-3.38c-3.11,2.78-6.82,4.17-11.13,4.17C411.45,476.45,408.9,475.71,406.96,474.23z M426.18,465.43
		c2.08-1.64,3.59-3.73,4.52-6.29c0.93-2.56,0.95-4.65,0.06-6.29c-0.89-1.63-2.58-2.45-5.06-2.45c-2.4,0-4.63,0.82-6.67,2.45
		c-2.05,1.64-3.53,3.73-4.46,6.29c-0.93,2.56-0.97,4.65-0.11,6.29c0.85,1.63,2.48,2.45,4.89,2.45
		C421.82,467.88,424.1,467.07,426.18,465.43z"/>
	<path class="st1" d="M470.29,472.99c-3.85,2.31-7.9,3.47-12.13,3.47c-3.4,0-6.18-0.74-8.34-2.23c-2.17-1.49-3.54-3.54-4.1-6.17
		c-0.57-2.63-0.25-5.6,0.95-8.91c1.2-3.31,3.05-6.28,5.53-8.91c2.48-2.63,5.35-4.69,8.6-6.17c3.25-1.48,6.57-2.23,9.96-2.23
		c2.86,0,5.27,0.55,7.23,1.66c1.96,1.11,3.36,2.62,4.18,4.54c0.83,1.92,1.01,4.04,0.54,6.37h-10.3c0-1.16-0.41-2.09-1.24-2.79
		c-0.83-0.7-2.03-1.04-3.6-1.04c-2.37,0-4.55,0.8-6.57,2.4c-2.01,1.6-3.48,3.66-4.39,6.17s-0.95,4.58-0.1,6.17
		c0.85,1.6,2.46,2.4,4.82,2.4c1.56,0,3.04-0.36,4.42-1.07c1.38-0.71,2.53-1.67,3.42-2.88h10.3
		C477.21,467.6,474.14,470.67,470.29,472.99z"/>
	<path class="st1" d="M509.33,451.25h-6.64l-8.89,24.41h-10.18l8.89-24.41h-6.64l3.14-8.63h6.64l3.57-9.81h10.18l-3.57,9.81h6.64
		L509.33,451.25z"/>
	<path class="st1" d="M527.29,474.68c-1.55-1.18-2.47-2.88-2.75-5.1c-0.28-2.22,0.13-4.83,1.22-7.84l6.96-19.11h10.18l-6.34,17.42
		c-0.92,2.52-1.11,4.45-0.59,5.78c0.52,1.33,1.74,2,3.65,2c1.98,0,3.81-0.73,5.49-2.2c1.68-1.47,2.98-3.48,3.91-6.03l6.18-16.97
		h10.18l-12.03,33.04h-10.18l1.23-3.38c-3.11,2.78-6.74,4.17-10.9,4.17C530.91,476.45,528.84,475.86,527.29,474.68z"/>
	<path class="st1" d="M594.49,443.16c1.97,0.88,3.34,2.13,4.13,3.75c0.79,1.62,0.84,3.5,0.18,5.64h-9.84
		c0.22-1.02-0.09-1.81-0.93-2.4c-0.84-0.58-2.02-0.87-3.54-0.87c-1.53,0-2.88,0.24-4.06,0.71c-1.18,0.47-1.91,1.08-2.18,1.83
		c-0.29,0.79,0.07,1.43,1.08,1.92c1,0.49,2.89,0.96,5.67,1.41c4.58,0.71,7.6,1.9,9.06,3.55c1.46,1.65,1.66,3.93,0.61,6.82
		c-0.79,2.18-2.2,4.1-4.21,5.75c-2.01,1.65-4.39,2.93-7.12,3.83c-2.73,0.9-5.53,1.35-8.39,1.35c-2.9,0-5.35-0.46-7.36-1.38
		c-2.01-0.92-3.4-2.23-4.18-3.92c-0.78-1.69-0.81-3.66-0.1-5.92h9.84c-0.23,1.05,0.11,1.91,1.01,2.57c0.91,0.66,2.16,0.99,3.76,0.99
		c1.64,0,3.09-0.26,4.35-0.79c1.26-0.53,2.03-1.16,2.3-1.92c0.29-0.79-0.1-1.46-1.16-2s-2.95-1.02-5.66-1.44
		c-4.15-0.64-7.07-1.73-8.74-3.27c-1.67-1.54-1.93-3.89-0.78-7.05c0.77-2.1,2.11-3.95,4.04-5.52c1.93-1.58,4.21-2.8,6.86-3.67
		c2.64-0.86,5.39-1.3,8.25-1.3C590.14,441.84,592.52,442.28,594.49,443.16z"/>
</g>
<g>
	<g>
		<path class="st2" d="M434.01,322.26c-11.55,0-20.9-9.36-20.9-20.9c0-9.33,6.12-17.24,14.56-19.92c-6.9-2.16-14.9-0.86-20.94,5.18
			c-13.16,13.16-3.84,35.66,14.77,35.66c0,4.84-1.27,8.66-4.18,12.53c6.89-2.23,13.09-6.76,17.6-12.57
			C434.61,322.25,434.31,322.26,434.01,322.26z"/>
	</g>
	<g>
		<path class="st2" d="M423.44,286.61c-13.16,13.16-3.84,35.66,14.77,35.66c0,4.84-1.27,8.66-4.18,12.53
			c13.96-4.51,25.07-18.46,25.07-33.42C459.1,282.77,436.6,273.45,423.44,286.61z"/>
	</g>
</g>
<g>
	<path d="M196.11,100.33h-40.88v-9.2h14.42V86.3h12.04v4.82h14.42V100.33z M162.69,122.1c-3.48-2.05-5.22-4.91-5.22-8.57
		c0-3.66,1.74-6.52,5.22-8.57c3.48-2.05,7.8-3.08,12.98-3.08s9.51,1.03,12.98,3.08c3.48,2.05,5.21,4.91,5.21,8.57
		c0,3.66-1.74,6.52-5.21,8.57c-3.48,2.05-7.8,3.08-12.98,3.08S166.17,124.16,162.69,122.1z M159.15,127.19h52.78v23.6h-52.78V127.19
		z M170.53,111.38c-1.28,0.54-1.92,1.26-1.92,2.15c0,0.89,0.64,1.61,1.92,2.15c1.28,0.54,3,0.82,5.15,0.82
		c2.15,0,3.86-0.27,5.15-0.82c1.28-0.54,1.92-1.26,1.92-2.15c0-0.89-0.64-1.61-1.92-2.15c-1.28-0.54-3-0.82-5.15-0.82
		C173.53,110.57,171.81,110.84,170.53,111.38z M170.84,141.21h29.4v-4.45h-29.4V141.21z M218.93,112.12h-7v12.84H200.1V87.41h11.83
		v12.84h7V112.12z"/>
	<path d="M236.78,106.04c0,9.1-0.49,16.45-1.47,22.04c-0.98,5.59-2.58,9.81-4.79,12.65c-2.22,2.84-5.21,4.46-9,4.86v-10.54
		c1.4-0.35,2.49-1.54,3.26-3.6c0.77-2.05,1.32-5.02,1.65-8.9c0.33-3.88,0.49-8.99,0.49-15.32v-8.16h-5.39V88.9h15.26V106.04z
		 M257.57,87.71h10.08v61.96h-10.08v-27.75h-4.76c-0.75,8.61-2.4,14.94-4.97,19c-2.57,4.05-6.3,6.36-11.2,6.9v-10.54
		c2.33-0.64,4.04-3.26,5.11-7.86c1.07-4.6,1.61-11.8,1.61-21.59v-8.76h-4.48V88.9h14.56v17.66v3.78h4.13V87.71z M281.23,87.41v63.37
		h-10.22V87.41H281.23z"/>
	<path d="M313.71,95.06h13.3v11.43h-38.78V95.06h13.37v-7.87h12.11V95.06z M316.83,111.64c2.64,1.71,4.65,4.06,6.05,7.05
		c1.4,2.99,2.1,6.37,2.1,10.13c0,3.76-0.7,7.14-2.1,10.13c-1.4,2.99-3.42,5.34-6.05,7.05c-2.64,1.71-5.71,2.56-9.21,2.56
		s-6.57-0.85-9.21-2.56c-2.64-1.71-4.65-4.06-6.06-7.05c-1.4-2.99-2.1-6.37-2.1-10.13c0-3.76,0.7-7.13,2.1-10.13
		c1.4-2.99,3.42-5.34,6.06-7.05c2.64-1.71,5.71-2.56,9.21-2.56S314.19,109.94,316.83,111.64z M312.1,135.35
		c1.07-1.63,1.61-3.81,1.61-6.53c0-2.72-0.54-4.9-1.61-6.53c-1.07-1.63-2.57-2.45-4.48-2.45c-1.91,0-3.41,0.82-4.48,2.45
		c-1.07,1.63-1.61,3.81-1.61,6.53c0,2.72,0.54,4.9,1.61,6.53c1.07,1.63,2.57,2.45,4.48,2.45
		C309.54,137.8,311.03,136.98,312.1,135.35z M350.11,122.73h-7v28.05h-11.83V87.41h11.83v23.15h7V122.73z"/>
	<path d="M413.04,127.63h-60.48v-10.46h60.48V127.63z M368.1,140.32h42.14v10.46h-54.18v-19.66h12.04V140.32z M368.1,102.4h41.86
		v10.39H356.2V87.04h11.9V102.4z"/>
	<path d="M470.79,135.65c2.89-0.59,5.13-1.29,6.72-2.08v11.21c-1.77,0.94-4.14,1.68-7.1,2.23c-2.96,0.54-5.92,0.82-8.85,0.82h-24.99
		v-11.35h4.9v-36.21h-4.48V88.9h38.29v11.35h-4.48V135.65z M453.08,136.46h6.09v-36.21h-6.09V136.46z M499.14,122.73h-7v28.05
		h-11.83V87.41h11.83v23.15h7V122.73z"/>
	<path d="M562.07,137.06v11.5h-60.48v-11.5H562.07z M559.48,131.19h-54.53V88.9h53.83v10.98h-42.14v4.97h41.16v10.39h-41.16v4.97
		h42.84V131.19z"/>
	<path d="M592.73,136.31c2.85,0,5.68-0.26,8.5-0.78c2.82-0.52,5.15-1.22,6.97-2.12v11.35c-1.77,0.94-4.12,1.68-7.04,2.23
		c-2.92,0.54-5.85,0.82-8.79,0.82h-22.82V88.53h12.18v47.79H592.73z M625.28,87.41v63.37h-11.83v-31.31h-18.48v-12.09h18.48V87.41
		H625.28z"/>
	<path d="M658.53,114.72l17.29,25.82l-9.66,7.2l-11.9-18.48c-2.47,5.99-5.54,10.56-9.21,13.73c-3.66,3.17-7.76,4.77-12.28,4.82
		V134.9c3.17-0.4,5.96-2.58,8.36-6.57c2.4-3.98,4.28-9.4,5.64-16.25c1.35-6.85,2.03-14.65,2.03-23.41l12.04,0.45
		C660.84,98.42,660.07,106.95,658.53,114.72z M695.91,122.73h-7v28.05h-11.83V87.41h11.83v23.15h7V122.73z"/>
</g>
<g>
	<path class="st1" d="M269.32,164.1h-15.16l-13.42,36.87h-10.41l13.42-36.87h-15.16l3.3-9.08h40.74L269.32,164.1z"/>
	<path class="st1" d="M272.64,197.59l-1.23,3.38h-10.18l17.24-47.36h10.18l-6.44,17.7c3.11-2.78,6.82-4.17,11.13-4.17
		c3.17,0,5.72,0.74,7.66,2.23c1.94,1.49,3.12,3.54,3.53,6.17c0.42,2.63,0.02,5.6-1.18,8.91c-1.2,3.31-2.97,6.28-5.3,8.91
		c-2.33,2.63-5.01,4.69-8.03,6.17c-3.02,1.48-6.11,2.23-9.28,2.23C276.42,201.76,273.72,200.37,272.64,197.59z M288.92,190.74
		c2.04-1.64,3.53-3.73,4.46-6.29c0.93-2.56,0.97-4.65,0.11-6.29c-0.85-1.63-2.48-2.45-4.89-2.45c-2.48,0-4.76,0.82-6.84,2.45
		c-2.08,1.64-3.59,3.73-4.52,6.29c-0.93,2.56-0.95,4.65-0.06,6.29c0.89,1.63,2.58,2.45,5.06,2.45
		C284.65,193.19,286.88,192.37,288.92,190.74z"/>
	<path class="st1" d="M313.46,200.97h-10.18l17.24-47.36h10.18L313.46,200.97z"/>
	<path class="st1" d="M328.37,199.53c-2.11-1.49-3.43-3.54-3.96-6.17c-0.53-2.63-0.19-5.6,1.01-8.91c1.2-3.31,3.03-6.28,5.47-8.91
		c2.44-2.63,5.26-4.69,8.46-6.17c3.19-1.48,6.46-2.23,9.82-2.23s6.09,0.74,8.2,2.23c2.11,1.49,3.43,3.54,3.96,6.17
		c0.53,2.63,0.19,5.6-1.01,8.91c-0.4,1.09-0.86,2.16-1.4,3.21h-24.54c-0.32,1.92-0.02,3.4,0.9,4.45c0.91,1.05,2.32,1.58,4.23,1.58
		c1.45,0,2.82-0.23,4.12-0.7c1.3-0.47,2.3-1.1,3-1.89h10.24c-1.34,2.1-3.08,3.96-5.22,5.55c-2.15,1.6-4.53,2.85-7.14,3.75
		c-2.62,0.9-5.26,1.35-7.93,1.35C333.22,201.76,330.48,201.01,328.37,199.53z M351.56,181.18c0.3-1.99,0-3.5-0.92-4.54
		c-0.92-1.03-2.37-1.55-4.36-1.55s-3.79,0.52-5.43,1.55c-1.64,1.03-3.02,2.55-4.17,4.54H351.56z"/>
	<path class="st1" d="M393.35,155.02h17.91c4,0,7.19,0.7,9.57,2.09c2.37,1.39,3.86,3.35,4.47,5.86c0.61,2.52,0.3,5.47-0.93,8.85
		c-1.25,3.42-3.09,6.4-5.54,8.94c-2.45,2.54-5.37,4.5-8.75,5.89c-3.39,1.39-7.08,2.08-11.09,2.08h-7.5l-4.45,12.24h-10.41
		L393.35,155.02z M401.83,179.66c2.94,0,5.46-0.68,7.58-2.03c2.11-1.35,3.63-3.29,4.54-5.81c0.92-2.52,0.8-4.44-0.34-5.75
		s-3.18-1.97-6.12-1.97h-7.04l-5.66,15.56H401.83z"/>
	<path class="st1" d="M425.44,199.53c-1.94-1.49-3.12-3.54-3.53-6.17c-0.42-2.63-0.02-5.6,1.18-8.91c1.2-3.31,2.97-6.28,5.3-8.91
		c2.33-2.63,5.01-4.69,8.03-6.17c3.02-1.48,6.11-2.23,9.28-2.23c4.31,0,7.01,1.39,8.09,4.17l1.23-3.38h10.18l-12.03,33.04H443
		l1.23-3.38c-3.11,2.78-6.82,4.17-11.13,4.17C429.93,201.76,427.38,201.01,425.44,199.53z M444.66,190.74
		c2.08-1.64,3.59-3.73,4.52-6.29c0.93-2.56,0.95-4.65,0.06-6.29c-0.89-1.63-2.58-2.45-5.06-2.45c-2.4,0-4.63,0.82-6.67,2.45
		c-2.05,1.64-3.53,3.73-4.46,6.29c-0.93,2.56-0.97,4.65-0.11,6.29c0.85,1.63,2.48,2.45,4.89,2.45
		C440.3,193.19,442.58,192.37,444.66,190.74z"/>
	<path class="st1" d="M472.87,167.93h10.18l-1.23,3.38c3.11-2.78,6.74-4.17,10.9-4.17c1.83,0,3.23,0.19,4.2,0.56l-3.31,9.42
		c-1.18-0.75-2.78-1.13-4.8-1.13c-2.71,0-5.09,0.71-7.16,2.14c-2.07,1.43-3.56,3.4-4.47,5.92l-6.16,16.91h-10.18L472.87,167.93z"/>
	<path class="st1" d="M520.2,176.56h-6.64l-8.89,24.41h-10.18l8.89-24.41h-6.64l3.14-8.63h6.64l3.57-9.81h10.18l-3.57,9.81h6.64
		L520.2,176.56z"/>
	<path class="st1" d="M528.08,167.93h10.18l-1.23,3.38c3.11-2.78,6.74-4.17,10.9-4.17c2.59,0,4.67,0.59,6.22,1.78
		c1.55,1.18,2.47,2.88,2.75,5.1c0.28,2.22-0.13,4.83-1.22,7.84l-6.96,19.11h-10.18l6.34-17.42c0.92-2.52,1.11-4.45,0.59-5.78
		c-0.53-1.33-1.74-2-3.65-2c-1.98,0-3.81,0.73-5.49,2.2c-1.68,1.47-2.98,3.48-3.91,6.03l-6.18,16.97h-10.18L528.08,167.93z"/>
	<path class="st1" d="M562.84,199.53c-2.11-1.49-3.43-3.54-3.96-6.17c-0.53-2.63-0.19-5.6,1.01-8.91c1.2-3.31,3.03-6.28,5.47-8.91
		c2.44-2.63,5.26-4.69,8.46-6.17c3.19-1.48,6.46-2.23,9.82-2.23s6.09,0.74,8.2,2.23c2.11,1.49,3.43,3.54,3.96,6.17
		c0.53,2.63,0.19,5.6-1.01,8.91c-0.4,1.09-0.86,2.16-1.4,3.21h-24.54c-0.32,1.92-0.02,3.4,0.9,4.45c0.91,1.05,2.32,1.58,4.23,1.58
		c1.45,0,2.82-0.23,4.12-0.7c1.3-0.47,2.3-1.1,3-1.89h10.24c-1.34,2.1-3.08,3.96-5.22,5.55c-2.15,1.6-4.53,2.85-7.14,3.75
		c-2.62,0.9-5.26,1.35-7.93,1.35C567.68,201.76,564.95,201.01,562.84,199.53z M586.03,181.18c0.3-1.99,0-3.5-0.92-4.54
		c-0.92-1.03-2.37-1.55-4.36-1.55s-3.79,0.52-5.43,1.55c-1.64,1.03-3.02,2.55-4.17,4.54H586.03z"/>
	<path class="st1" d="M606.81,167.93H617l-1.23,3.38c3.11-2.78,6.74-4.17,10.9-4.17c1.83,0,3.23,0.19,4.2,0.56l-3.31,9.42
		c-1.18-0.75-2.78-1.13-4.8-1.13c-2.71,0-5.09,0.71-7.16,2.14c-2.07,1.43-3.56,3.4-4.47,5.92l-6.16,16.91h-10.18L606.81,167.93z"/>
</g>
<g>
	<g>
		<path class="st2" d="M434.01,47.56c-11.55,0-20.9-9.36-20.9-20.9c0-9.33,6.12-17.24,14.56-19.92c-6.9-2.16-14.9-0.86-20.94,5.18
			c-13.16,13.16-3.84,35.66,14.77,35.66c0,4.84-1.27,8.66-4.18,12.53c6.89-2.23,13.09-6.76,17.6-12.57
			C434.61,47.55,434.31,47.56,434.01,47.56z"/>
	</g>
	<g>
		<path class="st2" d="M423.44,11.91c-13.16,13.16-3.84,35.66,14.77,35.66c0,4.84-1.27,8.66-4.18,12.53
			C448,55.6,459.1,41.65,459.1,26.68C459.1,8.07,436.6-1.25,423.44,11.91z"/>
	</g>
</g>
<g>
	<path d="M190.62-174.06h34.79v58.92h-34.79V-174.06z M202.45-126.79h11.13v-35.62h-11.13V-126.79z M251.73-140.22h-7v28.05H232.9
		v-63.37h11.83v23.15h7V-140.22z"/>
	<path d="M287.29-175.25h10.92v61.96h-10.92v-27.31h-6.51c-1.03,5.49-2.78,10.14-5.25,13.95c-2.47,3.81-5.46,6.67-8.96,8.57
		c-3.5,1.9-7.35,2.88-11.55,2.93v-11.2c3.97-0.25,7.21-1.61,9.73-4.08c2.52-2.47,4.25-6.04,5.18-10.69h-14.91v-11.06h15.68V-163
		h-15.68v-11.06h26.74v21.59h5.53V-175.25z M313.68-175.54v63.37h-11.06v-63.37H313.68z"/>
	<path d="M356.31-140.3c-2.66,0.4-5.41,0.59-8.26,0.59h-26.32v-35.1h37.38v9.5h-25.69v3.64h24.5v8.83h-24.5v3.64h15.4
		c2.66,0,5.23-0.19,7.7-0.56c2.47-0.37,4.5-0.88,6.09-1.52v9.35C361.07-141.24,358.97-140.69,356.31-140.3z M370.76-134.1
		c4.92,2,7.39,5.28,7.39,9.83c0,4.55-2.46,7.83-7.39,9.83c-4.92,2-11.56,3-19.92,3c-8.35,0-14.99-1-19.91-3
		c-4.92-2-7.39-5.28-7.39-9.83c0-4.55,2.46-7.83,7.39-9.83c4.92-2,11.56-3.01,19.91-3.01C359.2-137.11,365.84-136.1,370.76-134.1z
		 M361.56-121.75c2.61-0.49,3.92-1.33,3.92-2.52c0-2.18-4.88-3.26-14.63-3.26c-9.75,0-14.63,1.09-14.63,3.26
		c0,1.19,1.31,2.03,3.92,2.52c2.61,0.5,6.18,0.74,10.71,0.74C355.37-121.01,358.94-121.25,361.56-121.75z M377.59-137.92h-11.83
		v-37.62h11.83V-137.92z"/>
	<path d="M416.23-140.48c-3.55,2.05-7.42,3.13-11.62,3.23v-11.35c2.61-0.2,4.95-1.04,7-2.52c2.05-1.48,3.7-3.36,4.94-5.64
		c1.24-2.28,2.04-4.72,2.42-7.35h-13.51v-10.68h38.64v10.68h-13.16c-0.14,1.73-0.47,3.59-0.98,5.57l16.66,11.8l-6.51,8.98
		l-14.91-10.91C422.76-145.27,419.77-142.53,416.23-140.48z M461.87-123.45v11.28h-54.32v-22.19h12.04v10.91H461.87z M461.03-128.65
		H449.2v-46.89h11.83V-128.65z"/>
	<path d="M499.46-162.63H467.4v-9.13h10.43v-4.75h11.76v4.75h9.87V-162.63z M496.66-143.01c-1.31,1.81-3.08,3.19-5.32,4.16
		c-2.24,0.96-4.74,1.45-7.49,1.45c-2.75,0-5.25-0.48-7.49-1.45c-2.24-0.96-4.01-2.35-5.32-4.16c-1.31-1.8-1.96-3.9-1.96-6.27
		c0-2.38,0.65-4.46,1.96-6.27c1.31-1.8,3.08-3.19,5.32-4.16c2.24-0.96,4.74-1.45,7.49-1.45c2.75,0,5.25,0.48,7.49,1.45
		c2.24,0.96,4.01,2.35,5.32,4.16c1.31,1.81,1.96,3.9,1.96,6.27C498.62-146.9,497.96-144.81,496.66-143.01z M521.02-133.4
		c5.09,1.98,7.63,5.15,7.63,9.5c0,4.35-2.54,7.52-7.63,9.5c-5.09,1.98-11.95,2.97-20.58,2.97c-8.63,0-15.49-0.99-20.58-2.97
		c-5.09-1.98-7.63-5.15-7.63-9.5c0-4.35,2.54-7.52,7.63-9.5c5.09-1.98,11.95-2.97,20.58-2.97
		C509.07-136.36,515.93-135.37,521.02-133.4z M480.66-146.9c0.86,0.59,1.93,0.89,3.19,0.89c1.26,0,2.32-0.3,3.19-0.89
		c0.86-0.59,1.29-1.38,1.29-2.37s-0.43-1.78-1.29-2.38c-0.86-0.59-1.92-0.89-3.19-0.89c-1.26,0-2.32,0.3-3.19,0.89
		c-0.86,0.59-1.29,1.39-1.29,2.38S479.8-147.49,480.66-146.9z M511.74-121.56c2.96-0.52,4.44-1.3,4.44-2.34s-1.48-1.82-4.44-2.34
		c-2.96-0.52-6.73-0.78-11.31-0.78c-4.57,0-8.34,0.26-11.3,0.78c-2.96,0.52-4.45,1.3-4.45,2.34s1.48,1.82,4.45,2.34
		c2.96,0.52,6.73,0.78,11.3,0.78C505.01-120.78,508.78-121.04,511.74-121.56z M512.62-138.66h-10.71v-36.58h10.71v12.61h4.83v-12.91
		h10.85v39.1h-10.85v-15.06h-4.83V-138.66z"/>
	<path d="M594.87-144.97v10.31h-24.29v8.61h-11.9v-8.61h-24.29v-10.31H594.87z M564.35-159.66c-3.45,3.46-7.64,6.21-12.56,8.24
		c-4.92,2.03-10.14,3.09-15.65,3.19v-10.68c3.83-0.15,7.51-1,11.06-2.56c3.55-1.56,6.53-3.71,8.96-6.46
		c2.43-2.75,3.94-5.87,4.55-9.39l11.97,2.08c-0.51,2.67-1.31,5.07-2.38,7.2l24.29,10.61l-4.55,9.57L564.35-159.66z M549.93-122.56
		h42.14v10.39h-54.18v-18.77h12.04V-122.56z"/>
	<path d="M625.52-150.98l17.36,29.09l-10.15,6.68l-11.27-20.03c-2.43,6.43-5.48,11.38-9.17,14.84c-3.69,3.46-7.79,5.22-12.32,5.27
		v-13.06c3.03-0.35,5.69-2.51,7.98-6.49c2.29-3.98,4.06-9.39,5.32-16.21c1.26-6.83,1.89-14.62,1.89-23.37l12.04,0.45
		C627.21-165.42,626.65-157.81,625.52-150.98z M658.07-175.54v63.37h-11.83v-31.16h-12.6v-11.72h12.6v-20.48H658.07z"/>
</g>
<g>
	<path class="st1" d="M263.2-98.86h-15.16l-13.42,36.87h-10.41l13.42-36.87h-15.16l3.3-9.08h40.74L263.2-98.86z"/>
	<path class="st1" d="M266.52-65.37l-1.23,3.38H255.1l17.24-47.36h10.18l-6.44,17.7c3.11-2.78,6.82-4.17,11.13-4.17
		c3.17,0,5.72,0.74,7.66,2.23c1.94,1.49,3.12,3.54,3.53,6.17c0.42,2.63,0.02,5.6-1.18,8.91c-1.2,3.31-2.97,6.28-5.3,8.91
		c-2.33,2.63-5.01,4.69-8.03,6.17c-3.02,1.48-6.11,2.23-9.28,2.23C270.3-61.2,267.6-62.59,266.52-65.37z M282.8-72.22
		c2.04-1.64,3.53-3.73,4.46-6.29c0.93-2.56,0.97-4.65,0.11-6.29c-0.85-1.63-2.48-2.45-4.89-2.45c-2.48,0-4.76,0.82-6.84,2.45
		c-2.08,1.64-3.59,3.73-4.52,6.29c-0.93,2.56-0.95,4.65-0.06,6.29c0.89,1.63,2.58,2.45,5.06,2.45
		C278.53-69.77,280.75-70.59,282.8-72.22z"/>
	<path class="st1" d="M307.34-61.99h-10.18l17.24-47.36h10.18L307.34-61.99z"/>
	<path class="st1" d="M322.25-63.43c-2.11-1.49-3.43-3.54-3.96-6.17c-0.53-2.63-0.19-5.6,1.01-8.91c1.2-3.31,3.03-6.28,5.47-8.91
		c2.44-2.63,5.26-4.69,8.46-6.17c3.19-1.48,6.46-2.23,9.82-2.23s6.09,0.74,8.2,2.23c2.11,1.49,3.43,3.54,3.96,6.17
		c0.53,2.63,0.19,5.6-1.01,8.91c-0.4,1.09-0.86,2.16-1.4,3.21h-24.54c-0.32,1.92-0.02,3.4,0.9,4.45c0.91,1.05,2.32,1.58,4.23,1.58
		c1.45,0,2.82-0.23,4.12-0.7c1.3-0.47,2.3-1.1,3-1.89h10.24c-1.34,2.1-3.08,3.96-5.22,5.55c-2.15,1.6-4.53,2.85-7.14,3.75
		c-2.62,0.9-5.26,1.35-7.93,1.35C327.09-61.2,324.36-61.94,322.25-63.43z M345.44-81.78c0.3-1.99,0-3.5-0.92-4.54
		c-0.92-1.03-2.37-1.55-4.36-1.55s-3.79,0.52-5.43,1.55c-1.64,1.03-3.02,2.55-4.17,4.54H345.44z"/>
	<path class="st1" d="M387.23-107.94h17.91c4,0,7.19,0.7,9.57,2.09c2.37,1.39,3.86,3.35,4.47,5.86c0.61,2.52,0.3,5.47-0.93,8.85
		c-1.25,3.42-3.09,6.4-5.54,8.94c-2.45,2.54-5.37,4.5-8.75,5.89c-3.39,1.39-7.08,2.08-11.09,2.08h-7.5l-4.45,12.24H370.5
		L387.23-107.94z M395.71-83.3c2.94,0,5.46-0.68,7.58-2.03c2.11-1.35,3.63-3.29,4.54-5.81c0.92-2.52,0.8-4.44-0.34-5.75
		s-3.18-1.97-6.12-1.97h-7.04l-5.66,15.56H395.71z"/>
	<path class="st1" d="M424.98-95.03h10.18l-1.23,3.38c3.11-2.78,6.74-4.17,10.9-4.17c1.83,0,3.23,0.19,4.2,0.56l-3.31,9.42
		c-1.18-0.75-2.78-1.13-4.8-1.13c-2.71,0-5.09,0.71-7.16,2.14c-2.07,1.43-3.56,3.4-4.47,5.92l-6.16,16.91h-10.18L424.98-95.03z"/>
	<path class="st1" d="M477.44-93.59c2.17,1.49,3.54,3.54,4.1,6.17c0.57,2.63,0.25,5.6-0.95,8.91c-1.2,3.31-3.05,6.28-5.53,8.91
		c-2.48,2.63-5.35,4.69-8.6,6.17c-3.25,1.48-6.57,2.23-9.96,2.23c-3.4,0-6.18-0.74-8.34-2.23c-2.17-1.49-3.54-3.54-4.1-6.17
		c-0.57-2.63-0.25-5.6,0.95-8.91c1.2-3.31,3.05-6.28,5.53-8.91c2.48-2.63,5.35-4.69,8.6-6.17c3.25-1.48,6.57-2.23,9.96-2.23
		C472.49-95.82,475.27-95.07,477.44-93.59z M459.33-84.8c-2.06,1.64-3.56,3.73-4.49,6.29c-0.93,2.56-0.96,4.65-0.08,6.29
		c0.87,1.63,2.49,2.45,4.86,2.45c2.36,0,4.58-0.82,6.64-2.45c2.06-1.64,3.56-3.73,4.49-6.29c0.93-2.56,0.96-4.65,0.08-6.29
		c-0.87-1.63-2.49-2.45-4.86-2.45C463.61-87.25,461.4-86.43,459.33-84.8z"/>
	<path class="st1" d="M508.45-64.67c-3.85,2.31-7.9,3.47-12.13,3.47c-3.4,0-6.18-0.74-8.34-2.23c-2.17-1.49-3.54-3.54-4.1-6.17
		c-0.57-2.63-0.25-5.6,0.95-8.91c1.2-3.31,3.05-6.28,5.53-8.91c2.48-2.63,5.35-4.69,8.6-6.17c3.25-1.48,6.57-2.23,9.96-2.23
		c2.86,0,5.27,0.55,7.23,1.66c1.96,1.11,3.36,2.62,4.18,4.54c0.83,1.92,1.01,4.04,0.54,6.37h-10.3c0-1.16-0.41-2.09-1.24-2.79
		c-0.83-0.7-2.03-1.04-3.6-1.04c-2.37,0-4.55,0.8-6.57,2.4c-2.01,1.6-3.48,3.66-4.39,6.17s-0.95,4.58-0.1,6.17
		c0.85,1.6,2.46,2.4,4.82,2.4c1.56,0,3.04-0.36,4.42-1.07c1.38-0.71,2.53-1.67,3.42-2.88h10.3
		C515.37-70.05,512.31-66.98,508.45-64.67z"/>
	<path class="st1" d="M526.05-63.43c-2.11-1.49-3.43-3.54-3.96-6.17c-0.53-2.63-0.19-5.6,1.01-8.91c1.2-3.31,3.03-6.28,5.47-8.91
		c2.44-2.63,5.26-4.69,8.46-6.17c3.19-1.48,6.46-2.23,9.82-2.23s6.09,0.74,8.2,2.23c2.11,1.49,3.43,3.54,3.96,6.17
		c0.53,2.63,0.19,5.6-1.01,8.91c-0.4,1.09-0.86,2.16-1.4,3.21h-24.54c-0.32,1.92-0.02,3.4,0.9,4.45c0.91,1.05,2.32,1.58,4.23,1.58
		c1.45,0,2.82-0.23,4.12-0.7c1.3-0.47,2.3-1.1,3-1.89h10.24c-1.34,2.1-3.08,3.96-5.22,5.55c-2.15,1.6-4.53,2.85-7.14,3.75
		c-2.62,0.9-5.26,1.35-7.93,1.35C530.89-61.2,528.16-61.94,526.05-63.43z M549.24-81.78c0.3-1.99,0-3.5-0.92-4.54
		c-0.92-1.03-2.37-1.55-4.36-1.55s-3.79,0.52-5.43,1.55c-1.64,1.03-3.02,2.55-4.17,4.54H549.24z"/>
	<path class="st1" d="M591.45-94.49c1.97,0.88,3.34,2.13,4.13,3.75c0.79,1.62,0.84,3.5,0.18,5.64h-9.84
		c0.22-1.02-0.09-1.81-0.93-2.4c-0.84-0.58-2.02-0.87-3.54-0.87c-1.53,0-2.88,0.24-4.06,0.71c-1.18,0.47-1.91,1.08-2.18,1.83
		c-0.29,0.79,0.07,1.43,1.08,1.92c1,0.49,2.89,0.96,5.67,1.41c4.58,0.71,7.6,1.9,9.06,3.55c1.46,1.65,1.66,3.93,0.61,6.82
		c-0.79,2.18-2.2,4.1-4.21,5.75c-2.01,1.65-4.39,2.93-7.12,3.83c-2.73,0.9-5.53,1.35-8.39,1.35c-2.9,0-5.35-0.46-7.36-1.38
		c-2.01-0.92-3.4-2.23-4.18-3.92c-0.78-1.69-0.81-3.66-0.1-5.92h9.84c-0.23,1.05,0.11,1.91,1.01,2.57c0.91,0.66,2.16,0.99,3.76,0.99
		c1.64,0,3.09-0.26,4.35-0.79c1.26-0.53,2.03-1.16,2.3-1.92c0.29-0.79-0.1-1.46-1.16-2s-2.95-1.02-5.66-1.44
		c-4.15-0.64-7.07-1.73-8.74-3.27c-1.67-1.54-1.93-3.89-0.78-7.05c0.77-2.1,2.11-3.95,4.04-5.52c1.93-1.58,4.21-2.8,6.86-3.67
		c2.64-0.86,5.39-1.3,8.25-1.3C587.11-95.82,589.49-95.38,591.45-94.49z"/>
	<path class="st1" d="M627.39-94.49c1.97,0.88,3.34,2.13,4.13,3.75c0.79,1.62,0.84,3.5,0.18,5.64h-9.84
		c0.22-1.02-0.09-1.81-0.93-2.4c-0.84-0.58-2.02-0.87-3.54-0.87c-1.53,0-2.88,0.24-4.06,0.71c-1.18,0.47-1.91,1.08-2.18,1.83
		c-0.29,0.79,0.07,1.43,1.08,1.92c1,0.49,2.89,0.96,5.67,1.41c4.58,0.71,7.6,1.9,9.06,3.55c1.46,1.65,1.66,3.93,0.61,6.82
		c-0.79,2.18-2.2,4.1-4.21,5.75c-2.01,1.65-4.39,2.93-7.12,3.83c-2.73,0.9-5.53,1.35-8.39,1.35c-2.9,0-5.35-0.46-7.36-1.38
		c-2.01-0.92-3.4-2.23-4.18-3.92c-0.78-1.69-0.81-3.66-0.1-5.92h9.84c-0.23,1.05,0.11,1.91,1.01,2.57c0.91,0.66,2.16,0.99,3.76,0.99
		c1.64,0,3.09-0.26,4.35-0.79c1.26-0.53,2.03-1.16,2.3-1.92c0.29-0.79-0.1-1.46-1.16-2s-2.95-1.02-5.66-1.44
		c-4.15-0.64-7.07-1.73-8.74-3.27c-1.67-1.54-1.93-3.89-0.78-7.05c0.77-2.1,2.11-3.95,4.04-5.52c1.93-1.58,4.21-2.8,6.86-3.67
		c2.64-0.86,5.39-1.3,8.25-1.3C623.04-95.82,625.42-95.38,627.39-94.49z"/>
</g>
<g>
	<g>
		<path class="st0" d="M434.01-215.4c-11.55,0-20.9-9.36-20.9-20.9c0-9.33,6.12-17.24,14.56-19.92c-6.9-2.16-14.9-0.86-20.94,5.18
			c-13.16,13.16-3.84,35.66,14.77,35.66c0,4.84-1.27,8.66-4.18,12.53c6.89-2.23,13.09-6.76,17.6-12.57
			C434.61-215.41,434.31-215.4,434.01-215.4z"/>
	</g>
	<g>
		<path class="st0" d="M423.44-251.04c-13.16,13.16-3.84,35.66,14.77,35.66c0,4.84-1.27,8.66-4.18,12.53
			c13.96-4.51,25.07-18.46,25.07-33.42C459.1-254.88,436.6-264.2,423.44-251.04z"/>
	</g>
</g>
<text transform="matrix(1 0 0 1.06 110.645 -378.1524)" style="font-family:'GmarketSansTTFBold'; font-size:70px; letter-spacing:-1;">티블을 선택하는 이유</text>
<text transform="matrix(0.9536 0 -0.342 0.9397 256.6049 -325.3239)" class="st1" style="font-family:'GmarketSansTTFBold'; font-size:60px;">Tble Point</text>
<g>
	<path class="st0" d="M434.01-473.66c-11.55,0-20.9-9.36-20.9-20.9c0-9.33,6.12-17.24,14.56-19.92c-6.9-2.16-14.9-0.86-20.94,5.18
		c-13.16,13.16-3.84,35.66,14.77,35.66c0,4.84-1.27,8.66-4.18,12.53c6.89-2.23,13.09-6.76,17.6-12.57
		C434.61-473.67,434.31-473.66,434.01-473.66z"/>
	<path class="st0" d="M423.44-509.3c-13.16,13.16-3.84,35.66,14.77,35.66c0,4.84-1.27,8.66-4.18,12.53
		c13.96-4.51,25.07-18.46,25.07-33.42C459.1-513.14,436.6-522.47,423.44-509.3z"/>
</g>
<text transform="matrix(1 0 0 1.06 -887.1812 -486.1524)" style="font-family:'GmarketSansTTFBold'; font-size:70px; letter-spacing:-1;">티블을 선택하는 이유</text>
<text transform="matrix(0.9536 0 -0.342 0.9397 -741.2212 -433.3239)" class="st1" style="font-family:'GmarketSansTTFBold'; font-size:60px;">Tble Point</text>
<g>
	<path class="st0" d="M-563.82-581.66c-11.55,0-20.9-9.36-20.9-20.9c0-9.33,6.12-17.24,14.56-19.92c-6.9-2.16-14.9-0.86-20.94,5.18
		c-13.16,13.16-3.84,35.66,14.77,35.66c0,4.84-1.27,8.66-4.18,12.53c6.89-2.23,13.09-6.76,17.6-12.57
		C-563.22-581.67-563.52-581.66-563.82-581.66z"/>
	<path class="st0" d="M-574.38-617.3c-13.16,13.16-3.84,35.66,14.77,35.66c0,4.84-1.27,8.66-4.18,12.53
		c13.96-4.51,25.07-18.46,25.07-33.42C-538.72-621.14-561.22-630.47-574.38-617.3z"/>
</g>
</svg>
