<?xml version="1.0" encoding="utf-8"?>
<!-- Generator: Adobe Illustrator 26.1.0, SVG Export Plug-In . SVG Version: 6.00 Build 0)  -->
<svg version="1.1" id="레이어_1" xmlns="http://www.w3.org/2000/svg" xmlns:xlink="http://www.w3.org/1999/xlink" x="0px"
	 y="0px" viewBox="0 0 243.39 252" style="enable-background:new 0 0 243.39 252;" xml:space="preserve">
<style type="text/css">
	.st0{fill:#FFFFFF;}
	.st1{fill:#FFD141;}
	.st2{fill:#F6CA46;}
	.st3{fill:#FABE00;}
</style>
<text transform="matrix(1 0 0 1.06 1707.6017 611.5656)" style="font-family:'GmarketSansTTFBold'; font-size:70px; letter-spacing:-1;">티블을 선택하는 이유</text>
<text transform="matrix(0.9536 0 -0.342 0.9397 1853.5613 664.3933)" class="st1" style="font-family:'GmarketSansTTFBold'; font-size:60px;">Tble Point</text>
<g>
	<path class="st0" d="M2030.96,516.06c-11.55,0-20.9-9.36-20.9-20.9c0-9.33,6.12-17.24,14.56-19.92c-6.9-2.16-14.9-0.86-20.94,5.18
		c-13.16,13.16-3.84,35.66,14.77,35.66c0,4.84-1.27,8.66-4.18,12.53c6.89-2.23,13.09-6.76,17.6-12.57
		C2031.57,516.05,2031.27,516.06,2030.96,516.06z"/>
	<path class="st0" d="M2020.4,480.41c-13.16,13.16-3.84,35.66,14.77,35.66c0,4.84-1.27,8.66-4.18,12.53
		c13.96-4.51,25.07-18.46,25.07-33.42C2056.06,476.57,2033.56,467.25,2020.4,480.41z"/>
</g>
<text transform="matrix(1 0 0 1.06 1707.6017 325.1308)" style="font-family:'GmarketSansTTFBold'; font-size:70px; letter-spacing:-1;">티블을 선택하는 이유</text>
<text transform="matrix(0.9536 0 -0.342 0.9397 1853.5613 377.9586)" class="st1" style="font-family:'GmarketSansTTFBold'; font-size:60px;">Tble Point</text>
<g>
	<path class="st0" d="M2030.96,229.63c-11.55,0-20.9-9.36-20.9-20.9c0-9.33,6.12-17.24,14.56-19.92c-6.9-2.16-14.9-0.86-20.94,5.18
		c-13.16,13.16-3.84,35.66,14.77,35.66c0,4.84-1.27,8.66-4.18,12.53c6.89-2.23,13.09-6.76,17.6-12.57
		C2031.57,229.62,2031.27,229.63,2030.96,229.63z"/>
	<path class="st0" d="M2020.4,193.98c-13.16,13.16-3.84,35.66,14.77,35.66c0,4.84-1.27,8.66-4.18,12.53
		c13.96-4.51,25.07-18.46,25.07-33.42C2056.06,190.14,2033.56,180.82,2020.4,193.98z"/>
</g>
<text transform="matrix(1 0 0 1.06 1707.6017 85.6523)" style="font-family:'GmarketSansTTFBold'; font-size:70px; letter-spacing:-1;">티블을 선택하는 이유</text>
<text transform="matrix(0.9536 0 -0.342 0.9397 1853.5613 138.4807)" class="st1" style="font-family:'GmarketSansTTFBold'; font-size:60px;">Tble Point</text>
<g>
	<path class="st0" d="M2030.96-9.85c-11.55,0-20.9-9.36-20.9-20.9c0-9.33,6.12-17.24,14.56-19.92c-6.9-2.16-14.9-0.86-20.94,5.18
		c-13.16,13.16-3.84,35.66,14.77,35.66c0,4.84-1.27,8.66-4.18,12.53c6.89-2.23,13.09-6.76,17.6-12.57
		C2031.57-9.86,2031.27-9.85,2030.96-9.85z"/>
	<path class="st0" d="M2020.4-45.5c-13.16,13.16-3.84,35.66,14.77,35.66c0,4.84-1.27,8.66-4.18,12.53
		c13.96-4.51,25.07-18.46,25.07-33.42C2056.06-49.34,2033.56-58.66,2020.4-45.5z"/>
</g>
<text transform="matrix(1 0 0 1.06 1707.6017 -160.8695)" style="font-family:'GmarketSansTTFBold'; font-size:70px; letter-spacing:-1;">티블을 선택하는 이유</text>
<text transform="matrix(0.9536 0 -0.342 0.9397 1853.5613 -108.0412)" class="st1" style="font-family:'GmarketSansTTFBold'; font-size:60px;">Tble Point</text>
<g>
	<path class="st0" d="M2030.96-256.37c-11.55,0-20.9-9.36-20.9-20.9c0-9.33,6.12-17.24,14.56-19.92c-6.9-2.16-14.9-0.86-20.94,5.18
		c-13.16,13.16-3.84,35.66,14.77,35.66c0,4.84-1.27,8.66-4.18,12.53c6.89-2.23,13.09-6.76,17.6-12.57
		C2031.57-256.38,2031.27-256.37,2030.96-256.37z"/>
	<path class="st0" d="M2020.4-292.02c-13.16,13.16-3.84,35.66,14.77,35.66c0,4.84-1.27,8.66-4.18,12.53
		c13.96-4.51,25.07-18.46,25.07-33.42C2056.06-295.86,2033.56-305.18,2020.4-292.02z"/>
</g>
<text transform="matrix(1 0 0 1.06 641.6887 1088.174)" style="font-family:'GmarketSansTTFBold'; font-size:70px; letter-spacing:-1;">티블을 선택하는 이유</text>
<text transform="matrix(0.9536 0 -0.342 0.9397 787.6483 1141.0023)" class="st1" style="font-family:'GmarketSansTTFBold'; font-size:60px;">Tble Point</text>
<g>
	<path class="st0" d="M965.05,992.67c-11.55,0-20.9-9.36-20.9-20.9c0-9.33,6.12-17.24,14.56-19.92c-6.9-2.16-14.9-0.86-20.94,5.18
		c-13.16,13.16-3.84,35.66,14.77,35.66c0,4.84-1.27,8.66-4.18,12.53c6.89-2.23,13.09-6.76,17.6-12.57
		C965.65,992.66,965.35,992.67,965.05,992.67z"/>
	<path class="st0" d="M954.49,957.02c-13.16,13.16-3.84,35.66,14.77,35.66c0,4.84-1.27,8.66-4.18,12.53
		c13.96-4.51,25.07-18.46,25.07-33.42C990.15,953.18,967.65,943.86,954.49,957.02z"/>
</g>
<text transform="matrix(1 0 0 1.06 641.6885 853.3914)" style="font-family:'GmarketSansTTFBold'; font-size:70px; letter-spacing:-1;">티블을 선택하는 이유</text>
<text transform="matrix(0.9536 0 -0.342 0.9397 787.6484 906.2198)" class="st1" style="font-family:'GmarketSansTTFBold'; font-size:60px;">Tble Point</text>
<g>
	<path class="st0" d="M965.05,757.89c-11.55,0-20.9-9.36-20.9-20.9c0-9.33,6.12-17.24,14.56-19.92c-6.9-2.16-14.9-0.86-20.94,5.18
		c-13.16,13.16-3.84,35.66,14.77,35.66c0,4.84-1.27,8.66-4.18,12.53c6.89-2.23,13.09-6.76,17.6-12.57
		C965.65,757.88,965.35,757.89,965.05,757.89z"/>
	<path class="st0" d="M954.49,722.24c-13.16,13.16-3.84,35.66,14.77,35.66c0,4.84-1.27,8.66-4.18,12.53
		c13.96-4.51,25.07-18.46,25.07-33.42C990.15,718.4,967.65,709.08,954.49,722.24z"/>
</g>
<text transform="matrix(1 0 0 1.06 641.6885 604.5216)" style="font-family:'GmarketSansTTFBold'; font-size:70px; letter-spacing:-1;">티블을 선택하는 이유</text>
<text transform="matrix(0.9536 0 -0.342 0.9397 787.6484 657.3506)" class="st1" style="font-family:'GmarketSansTTFBold'; font-size:60px;">Tble Point</text>
<g>
	<path class="st0" d="M965.05,509.02c-11.55,0-20.9-9.36-20.9-20.9c0-9.33,6.12-17.24,14.56-19.92c-6.9-2.16-14.9-0.86-20.94,5.18
		c-13.16,13.16-3.84,35.66,14.77,35.66c0,4.84-1.27,8.66-4.18,12.53c6.89-2.23,13.09-6.76,17.6-12.57
		C965.65,509.01,965.35,509.02,965.05,509.02z"/>
	<path class="st0" d="M954.49,473.37c-13.16,13.16-3.84,35.66,14.77,35.66c0,4.84-1.27,8.66-4.18,12.53
		c13.96-4.51,25.07-18.46,25.07-33.42C990.15,469.53,967.65,460.21,954.49,473.37z"/>
</g>
<text transform="matrix(1 0 0 1.06 641.6885 357.9999)" style="font-family:'GmarketSansTTFBold'; font-size:70px; letter-spacing:-1;">티블을 선택하는 이유</text>
<text transform="matrix(0.9536 0 -0.342 0.9397 787.6484 410.8284)" class="st1" style="font-family:'GmarketSansTTFBold'; font-size:60px;">Tble Point</text>
<g>
	<path class="st0" d="M965.05,262.5c-11.55,0-20.9-9.36-20.9-20.9c0-9.33,6.12-17.24,14.56-19.92c-6.9-2.16-14.9-0.86-20.94,5.18
		c-13.16,13.16-3.84,35.66,14.77,35.66c0,4.84-1.27,8.66-4.18,12.53c6.89-2.23,13.09-6.76,17.6-12.57
		C965.65,262.49,965.35,262.5,965.05,262.5z"/>
	<path class="st0" d="M954.49,226.85c-13.16,13.16-3.84,35.66,14.77,35.66c0,4.84-1.27,8.66-4.18,12.53
		c13.96-4.51,25.07-18.46,25.07-33.42C990.15,223.01,967.65,213.69,954.49,226.85z"/>
</g>
<g>
	<path class="st0" d="M712.18,86.38h-25.34v-9.87h8.26V66.42h11.69v10.09h5.6c3.08,0,6-0.19,8.75-0.56
		c2.75-0.37,4.99-0.95,6.72-1.74v9.87C724.54,85.61,719.32,86.38,712.18,86.38z M712.46,61.67h-23.38V51.58h35.14v21.82h-11.76
		V61.67z M736.64,92.54c4.69,2.18,7.04,5.42,7.04,9.72s-2.35,7.54-7.04,9.72c-4.69,2.18-11.3,3.26-19.84,3.26
		c-8.59,0-15.23-1.09-19.92-3.26c-4.69-2.18-7.04-5.42-7.04-9.72s2.35-7.54,7.04-9.72s11.33-3.26,19.92-3.26
		C725.34,89.27,731.95,90.36,736.64,92.54z M727.58,105.04c2.43-0.67,3.64-1.59,3.64-2.78s-1.21-2.11-3.64-2.78
		c-2.43-0.67-6.02-1-10.78-1c-4.81,0-8.42,0.33-10.85,1c-2.43,0.67-3.64,1.59-3.64,2.78s1.21,2.12,3.64,2.78
		c2.43,0.67,6.04,1,10.85,1C721.56,106.04,725.15,105.71,727.58,105.04z M749.98,62.34v11.58h-6.86v14.84h-11.83V51.13h11.83v11.21
		H749.98z"/>
	<path class="st0" d="M812.91,100.55v11.72h-60.48v-11.72h19.46V75.77h12.25v24.78H812.91z M797.3,64.27h-41.72V52.62h54.04v41.77
		H797.3V64.27z"/>
	<path class="st0" d="M878.5,81.7v10.31h-24.29v8.61h-11.9v-8.61h-24.29V81.7H878.5z M833.56,104.11h42.14v10.39h-54.18V95.73h12.04
		V104.11z M874.86,77.99h-53.2V51.13h53.2V77.99z M863.1,61h-29.68v7.12h29.68V61z"/>
	<path class="st0" d="M919.31,110.83c-2.89,0.47-5.88,0.71-8.96,0.71h-26.74V99.81h27.23c2.99,0,5.87-0.21,8.65-0.63
		c2.78-0.42,5.05-1.05,6.82-1.89v11.58C924.53,109.7,922.2,110.36,919.31,110.83z M914.16,54.14c2.87,1.71,5.12,4.12,6.76,7.23
		c1.63,3.12,2.45,6.7,2.45,10.76c0,4.06-0.82,7.64-2.45,10.76c-1.63,3.12-3.89,5.53-6.76,7.23c-2.87,1.71-6.15,2.56-9.83,2.56
		c-3.69,0-6.98-0.85-9.87-2.56c-2.89-1.71-5.16-4.12-6.79-7.23c-1.63-3.12-2.45-6.7-2.45-10.76c0-4.06,0.82-7.64,2.45-10.76
		c1.63-3.12,3.9-5.53,6.79-7.23c2.89-1.71,6.18-2.56,9.87-2.56C908.01,51.58,911.29,52.43,914.16,54.14z M898.73,65.42
		c-1.4,1.76-2.1,4-2.1,6.71c0,2.77,0.7,5.02,2.1,6.75c1.4,1.73,3.27,2.6,5.6,2.6c2.33,0,4.2-0.88,5.6-2.63
		c1.4-1.75,2.1-3.99,2.1-6.71c0-2.72-0.7-4.96-2.1-6.71c-1.4-1.76-3.27-2.63-5.6-2.63C901.99,62.78,900.13,63.66,898.73,65.42z
		 M941.57,114.5h-11.83V51.13h11.83V114.5z"/>
	<path class="st0" d="M979.37,85.71c-3.59,2.28-7.44,3.51-11.55,3.71V77.77c3.08-0.4,5.84-1.79,8.29-4.19
		c2.45-2.4,4.38-5.54,5.77-9.42c1.4-3.88,2.12-8.13,2.17-12.73l11.9,0.74c0,5.05-0.79,9.89-2.38,14.54l17.22,12.91l-6.93,8.9
		l-15.19-11.95C986.06,80.39,982.96,83.43,979.37,85.71z M1025.71,103.22v11.28h-54.32V92.31h12.04v10.91H1025.71z M1024.87,98.03
		h-11.83V51.13h11.83V98.03z"/>
	<path class="st0" d="M1044.57,85.52c-3.34,1.76-6.97,2.68-10.89,2.78V77.77c3.41-0.3,6.3-1.55,8.68-3.75
		c2.38-2.2,4.01-4.88,4.9-8.05h-12.88V55.88h13.16v-5.86h12.04v5.86h13.16v7.27h6.16V51.13h11.83v37.62h-11.83V74.28h-7.84v-8.31
		h-11.69c-0.37,1.58-0.7,2.75-0.98,3.49l16.1,9.2l-5.32,9.2l-15.96-9.35C1050.79,81.43,1047.91,83.77,1044.57,85.52z M1083.91,92.57
		c4.92,2,7.38,5.28,7.38,9.83s-2.46,7.83-7.38,9.83c-4.92,2-11.56,3-19.92,3c-8.35,0-14.99-1-19.92-3c-4.92-2-7.38-5.28-7.38-9.83
		s2.46-7.83,7.38-9.83c4.92-2,11.56-3.01,19.92-3.01C1072.35,89.57,1078.99,90.57,1083.91,92.57z M1074.7,104.93
		c2.61-0.49,3.92-1.33,3.92-2.52c0-2.18-4.88-3.26-14.63-3.26c-9.75,0-14.63,1.09-14.63,3.26c0,1.19,1.31,2.03,3.92,2.52
		c2.61,0.5,6.18,0.74,10.71,0.74C1068.52,105.67,1072.09,105.42,1074.7,104.93z"/>
	<path class="st0" d="M1124.96,58.77h13.3V70.2h-38.78V58.77h13.37v-7.87h12.11V58.77z M1128.08,75.36
		c2.64,1.71,4.65,4.06,6.05,7.05c1.4,2.99,2.1,6.37,2.1,10.13c0,3.76-0.7,7.14-2.1,10.13c-1.4,2.99-3.42,5.34-6.05,7.05
		c-2.64,1.71-5.71,2.56-9.21,2.56s-6.57-0.85-9.21-2.56c-2.64-1.71-4.65-4.06-6.06-7.05c-1.4-2.99-2.1-6.37-2.1-10.13
		c0-3.76,0.7-7.13,2.1-10.13c1.4-2.99,3.42-5.34,6.06-7.05c2.64-1.71,5.71-2.56,9.21-2.56S1125.44,73.65,1128.08,75.36z
		 M1123.35,99.07c1.07-1.63,1.61-3.81,1.61-6.53c0-2.72-0.54-4.9-1.61-6.53c-1.07-1.63-2.57-2.45-4.48-2.45
		c-1.91,0-3.41,0.82-4.48,2.45c-1.07,1.63-1.61,3.81-1.61,6.53c0,2.72,0.54,4.9,1.61,6.53c1.07,1.63,2.57,2.45,4.48,2.45
		C1120.79,101.51,1122.28,100.7,1123.35,99.07z M1161.36,86.45h-7v28.05h-11.83V51.13h11.83v23.15h7V86.45z"/>
	<path class="st0" d="M1200.56,69.76c0,8.51-1.41,15.9-4.24,22.19c-2.82,6.28-6.82,11.12-12,14.51s-11.25,5.08-18.2,5.08V99.66
		c7.14-0.05,12.65-2.72,16.52-8.01c3.87-5.29,5.81-12.59,5.81-21.89v-5.71h-22.33V52.62h34.44V69.76z M1221.63,114.5h-11.83V51.13
		h11.83V114.5z"/>
</g>
<g>
	<path class="st1" d="M786.44,162.68c-3.04-2.09-4.96-4.96-5.79-8.63c-0.82-3.66-0.4-7.79,1.27-12.38
		c1.67-4.58,4.25-8.71,7.74-12.38c3.49-3.67,7.51-6.54,12.07-8.63c4.55-2.09,9.2-3.13,13.93-3.13c4.16,0,7.61,0.75,10.36,2.25
		c2.75,1.5,4.68,3.57,5.78,6.2c1.1,2.63,1.38,5.58,0.84,8.85h-10.53c0.25-2.25-0.49-4.13-2.21-5.64c-1.72-1.5-4.2-2.26-7.45-2.26
		c-2.78,0-5.53,0.63-8.24,1.89c-2.71,1.26-5.11,3.01-7.2,5.24c-2.09,2.24-3.65,4.76-4.68,7.58c-1.01,2.78-1.29,5.3-0.83,7.56
		c0.46,2.25,1.58,4.01,3.37,5.27c1.79,1.26,4.08,1.89,6.87,1.89c2.14,0,4.3-0.41,6.49-1.24c2.19-0.83,4.14-1.9,5.86-3.21
		s2.96-2.67,3.74-4.06h10.53c-1.63,3.12-4.02,6.05-7.15,8.8c-3.14,2.74-6.73,4.95-10.79,6.62c-4.06,1.67-8.17,2.51-12.33,2.51
		C793.36,165.81,789.48,164.77,786.44,162.68z"/>
	<path class="st1" d="M864.7,133.08c2.17,1.49,3.54,3.54,4.1,6.17c0.57,2.63,0.25,5.6-0.95,8.91c-1.2,3.31-3.05,6.28-5.53,8.91
		c-2.48,2.63-5.35,4.69-8.6,6.17c-3.25,1.48-6.57,2.23-9.96,2.23c-3.4,0-6.18-0.74-8.34-2.23c-2.17-1.49-3.54-3.54-4.1-6.17
		c-0.57-2.63-0.25-5.6,0.95-8.91c1.2-3.31,3.05-6.28,5.53-8.91c2.48-2.63,5.35-4.69,8.6-6.17c3.25-1.48,6.57-2.23,9.96-2.23
		C859.75,130.86,862.53,131.6,864.7,133.08z M846.6,141.88c-2.06,1.64-3.56,3.73-4.49,6.29c-0.93,2.56-0.96,4.65-0.08,6.29
		c0.87,1.63,2.49,2.45,4.86,2.45c2.36,0,4.58-0.82,6.64-2.45c2.06-1.64,3.56-3.73,4.49-6.29c0.93-2.56,0.96-4.65,0.08-6.29
		c-0.87-1.63-2.49-2.45-4.86-2.45C850.87,139.43,848.66,140.24,846.6,141.88z"/>
	<path class="st1" d="M879.82,131.65H890l-1.23,3.38c3.11-2.78,6.74-4.17,10.9-4.17c2.59,0,4.67,0.59,6.22,1.78
		c1.55,1.18,2.47,2.88,2.75,5.1c0.28,2.22-0.13,4.83-1.22,7.84l-6.96,19.11h-10.18l6.34-17.42c0.92-2.52,1.11-4.45,0.59-5.78
		c-0.53-1.33-1.74-2-3.65-2c-1.98,0-3.81,0.73-5.49,2.2c-1.68,1.47-2.98,3.48-3.91,6.03l-6.18,16.97h-10.18L879.82,131.65z"/>
	<path class="st1" d="M936.24,140.27h-6.64l-8.89,24.41h-10.18l8.89-24.41h-6.64l3.14-8.63h6.64l3.57-9.81h10.18l-3.57,9.81h6.64
		L936.24,140.27z"/>
	<path class="st1" d="M938,163.25c-1.94-1.49-3.12-3.54-3.53-6.17c-0.42-2.63-0.02-5.6,1.18-8.91c1.2-3.31,2.97-6.28,5.3-8.91
		c2.33-2.63,5.01-4.69,8.03-6.17c3.02-1.48,6.11-2.23,9.28-2.23c4.31,0,7.01,1.39,8.09,4.17l1.23-3.38h10.18l-12.03,33.04h-10.18
		l1.23-3.38c-3.11,2.78-6.82,4.17-11.13,4.17C942.49,165.47,939.94,164.73,938,163.25z M957.22,154.45
		c2.08-1.64,3.59-3.73,4.52-6.29c0.93-2.56,0.95-4.65,0.06-6.29c-0.89-1.63-2.58-2.45-5.06-2.45c-2.4,0-4.63,0.82-6.67,2.45
		c-2.05,1.64-3.53,3.73-4.46,6.29c-0.93,2.56-0.97,4.65-0.11,6.29c0.85,1.63,2.48,2.45,4.89,2.45
		C952.86,156.91,955.14,156.09,957.22,154.45z"/>
	<path class="st1" d="M1001.33,162.01c-3.85,2.31-7.9,3.47-12.13,3.47c-3.4,0-6.18-0.74-8.34-2.23c-2.17-1.49-3.54-3.54-4.1-6.17
		c-0.57-2.63-0.25-5.6,0.95-8.91c1.2-3.31,3.05-6.28,5.53-8.91c2.48-2.63,5.35-4.69,8.6-6.17c3.25-1.48,6.57-2.23,9.96-2.23
		c2.86,0,5.27,0.55,7.23,1.66c1.96,1.11,3.36,2.62,4.18,4.54c0.83,1.92,1.01,4.04,0.54,6.37h-10.3c0-1.16-0.41-2.09-1.24-2.79
		c-0.83-0.7-2.03-1.04-3.6-1.04c-2.37,0-4.55,0.8-6.57,2.4c-2.01,1.6-3.48,3.66-4.39,6.17s-0.95,4.58-0.1,6.17
		c0.85,1.6,2.46,2.4,4.82,2.4c1.56,0,3.04-0.36,4.42-1.07c1.38-0.71,2.53-1.67,3.42-2.88h10.3
		C1008.25,156.62,1005.19,159.7,1001.33,162.01z"/>
	<path class="st1" d="M1040.37,140.27h-6.64l-8.89,24.41h-10.18l8.89-24.41h-6.64l3.14-8.63h6.64l3.57-9.81h10.18l-3.57,9.81h6.64
		L1040.37,140.27z"/>
	<path class="st1" d="M1058.33,163.7c-1.55-1.18-2.47-2.88-2.75-5.1c-0.28-2.22,0.13-4.83,1.22-7.84l6.96-19.11h10.18l-6.34,17.42
		c-0.92,2.52-1.11,4.45-0.59,5.78c0.52,1.33,1.74,2,3.65,2c1.98,0,3.81-0.73,5.49-2.2c1.68-1.47,2.98-3.48,3.91-6.03l6.18-16.97
		h10.18l-12.03,33.04h-10.18l1.23-3.38c-3.11,2.78-6.74,4.17-10.9,4.17C1061.96,165.47,1059.88,164.88,1058.33,163.7z"/>
	<path class="st1" d="M1125.53,132.18c1.97,0.88,3.34,2.13,4.13,3.75c0.79,1.62,0.84,3.5,0.18,5.64H1120
		c0.22-1.02-0.09-1.81-0.93-2.4c-0.84-0.58-2.02-0.87-3.54-0.87c-1.53,0-2.88,0.24-4.06,0.71c-1.18,0.47-1.91,1.08-2.18,1.83
		c-0.29,0.79,0.07,1.43,1.08,1.92c1,0.49,2.89,0.96,5.67,1.41c4.58,0.71,7.6,1.9,9.06,3.55c1.46,1.65,1.66,3.93,0.61,6.82
		c-0.79,2.18-2.2,4.1-4.21,5.75c-2.01,1.65-4.39,2.93-7.12,3.83c-2.73,0.9-5.53,1.35-8.39,1.35c-2.9,0-5.35-0.46-7.36-1.38
		c-2.01-0.92-3.4-2.23-4.18-3.92c-0.78-1.69-0.81-3.66-0.1-5.92h9.84c-0.23,1.05,0.11,1.91,1.01,2.57c0.91,0.66,2.16,0.99,3.76,0.99
		c1.64,0,3.09-0.26,4.35-0.79c1.26-0.53,2.03-1.16,2.3-1.92c0.29-0.79-0.1-1.46-1.16-2s-2.95-1.02-5.66-1.44
		c-4.15-0.64-7.07-1.73-8.74-3.27c-1.67-1.54-1.93-3.89-0.78-7.05c0.77-2.1,2.11-3.95,4.04-5.52c1.93-1.58,4.21-2.8,6.86-3.67
		c2.64-0.86,5.39-1.3,8.25-1.3C1121.19,130.86,1123.56,131.3,1125.53,132.18z"/>
</g>
<g>
	<g>
		<path class="st2" d="M965.05,11.28c-11.55,0-20.9-9.36-20.9-20.9c0-9.33,6.12-17.24,14.56-19.92c-6.9-2.16-14.9-0.86-20.94,5.18
			c-13.16,13.16-3.84,35.66,14.77,35.66c0,4.84-1.27,8.66-4.18,12.53c6.89-2.23,13.09-6.76,17.6-12.57
			C965.65,11.27,965.35,11.28,965.05,11.28z"/>
	</g>
	<g>
		<path class="st2" d="M954.49-24.37c-13.16,13.16-3.84,35.66,14.77,35.66c0,4.84-1.27,8.66-4.18,12.53
			c13.96-4.51,25.07-18.46,25.07-33.42C990.15-28.21,967.65-37.53,954.49-24.37z"/>
	</g>
</g>
<g>
	<path d="M727.16-210.65h-40.88v-9.2h14.42v-4.82h12.04v4.82h14.42V-210.65z M693.73-188.87c-3.48-2.05-5.22-4.91-5.22-8.57
		c0-3.66,1.74-6.52,5.22-8.57c3.48-2.05,7.8-3.08,12.98-3.08s9.51,1.03,12.98,3.08c3.48,2.05,5.21,4.91,5.21,8.57
		c0,3.66-1.74,6.52-5.21,8.57c-3.48,2.05-7.8,3.08-12.98,3.08S697.21-186.82,693.73-188.87z M690.2-183.79h52.78v23.6H690.2V-183.79
		z M701.57-199.6c-1.28,0.54-1.92,1.26-1.92,2.15c0,0.89,0.64,1.61,1.92,2.15c1.28,0.54,3,0.82,5.15,0.82
		c2.15,0,3.86-0.27,5.15-0.82c1.28-0.54,1.92-1.26,1.92-2.15c0-0.89-0.64-1.61-1.92-2.15c-1.28-0.54-3-0.82-5.15-0.82
		C704.57-200.41,702.86-200.14,701.57-199.6z M701.89-169.77h29.4v-4.45h-29.4V-169.77z M749.98-198.85h-7v12.84h-11.83v-37.55
		h11.83v12.84h7V-198.85z"/>
	<path d="M767.83-204.94c0,9.1-0.49,16.45-1.47,22.04c-0.98,5.59-2.58,9.81-4.79,12.65c-2.22,2.84-5.21,4.46-9,4.86v-10.54
		c1.4-0.35,2.49-1.54,3.26-3.6c0.77-2.05,1.32-5.02,1.65-8.9c0.33-3.88,0.49-8.99,0.49-15.32v-8.16h-5.39v-10.17h15.26V-204.94z
		 M788.62-223.27h10.08v61.96h-10.08v-27.75h-4.76c-0.75,8.61-2.4,14.94-4.97,19c-2.57,4.05-6.3,6.36-11.2,6.9v-10.54
		c2.33-0.64,4.04-3.26,5.11-7.86c1.07-4.6,1.61-11.8,1.61-21.59v-8.76h-4.48v-10.17h14.56v17.66v3.78h4.13V-223.27z M812.28-223.56
		v63.37h-10.22v-63.37H812.28z"/>
	<path d="M844.76-215.92h13.3v11.43h-38.78v-11.43h13.37v-7.87h12.11V-215.92z M847.87-199.34c2.64,1.71,4.65,4.06,6.05,7.05
		c1.4,2.99,2.1,6.37,2.1,10.13c0,3.76-0.7,7.14-2.1,10.13c-1.4,2.99-3.42,5.34-6.05,7.05c-2.64,1.71-5.71,2.56-9.21,2.56
		s-6.57-0.85-9.21-2.56c-2.64-1.71-4.65-4.06-6.06-7.05c-1.4-2.99-2.1-6.37-2.1-10.13c0-3.76,0.7-7.13,2.1-10.13
		c1.4-2.99,3.42-5.34,6.06-7.05c2.64-1.71,5.71-2.56,9.21-2.56S845.23-201.04,847.87-199.34z M843.15-175.63
		c1.07-1.63,1.61-3.81,1.61-6.53c0-2.72-0.54-4.9-1.61-6.53c-1.07-1.63-2.57-2.45-4.48-2.45c-1.91,0-3.41,0.82-4.48,2.45
		c-1.07,1.63-1.61,3.81-1.61,6.53c0,2.72,0.54,4.9,1.61,6.53c1.07,1.63,2.57,2.45,4.48,2.45C840.58-173.18,842.07-174,843.15-175.63
		z M881.16-188.24h-7v28.05h-11.83v-63.37h11.83v23.15h7V-188.24z"/>
	<path d="M944.09-183.35h-60.48v-10.46h60.48V-183.35z M899.15-170.66h42.14v10.46h-54.18v-19.66h12.04V-170.66z M899.15-208.57
		h41.86v10.39h-53.76v-25.75h11.9V-208.57z"/>
	<path d="M1001.84-175.33c2.89-0.59,5.13-1.29,6.72-2.08v11.21c-1.77,0.94-4.14,1.68-7.1,2.23c-2.96,0.54-5.92,0.82-8.85,0.82
		h-24.99v-11.35h4.9v-36.21h-4.48v-11.35h38.29v11.35h-4.48V-175.33z M984.13-174.52h6.09v-36.21h-6.09V-174.52z M1030.19-188.24h-7
		v28.05h-11.83v-63.37h11.83v23.15h7V-188.24z"/>
	<path d="M1093.11-173.92v11.5h-60.48v-11.5H1093.11z M1090.52-179.79h-54.53v-42.29h53.83v10.98h-42.14v4.97h41.16v10.39h-41.16
		v4.97h42.84V-179.79z"/>
	<path d="M1123.77-174.66c2.85,0,5.68-0.26,8.5-0.78c2.82-0.52,5.15-1.22,6.97-2.12v11.35c-1.77,0.94-4.12,1.68-7.04,2.23
		c-2.92,0.54-5.85,0.82-8.79,0.82h-22.82v-59.29h12.18v47.79H1123.77z M1156.32-223.56v63.37h-11.83v-31.31h-18.48v-12.09h18.48
		v-19.96H1156.32z"/>
	<path d="M1189.57-196.26l17.29,25.82l-9.66,7.2l-11.9-18.48c-2.47,5.99-5.54,10.56-9.21,13.73c-3.66,3.17-7.76,4.77-12.28,4.82
		v-12.91c3.17-0.4,5.96-2.58,8.36-6.57c2.4-3.98,4.28-9.4,5.64-16.25c1.35-6.85,2.03-14.65,2.03-23.41l12.04,0.45
		C1191.88-212.56,1191.11-204.02,1189.57-196.26z M1226.95-188.24h-7v28.05h-11.83v-63.37h11.83v23.15h7V-188.24z"/>
</g>
<g>
	<path class="st1" d="M800.37-146.88H785.2l-13.42,36.87h-10.41l13.42-36.87h-15.16l3.3-9.08h40.74L800.37-146.88z"/>
	<path class="st1" d="M803.68-113.39l-1.23,3.38h-10.18l17.24-47.36h10.18l-6.44,17.7c3.11-2.78,6.82-4.17,11.13-4.17
		c3.17,0,5.72,0.74,7.66,2.23c1.94,1.49,3.12,3.54,3.53,6.17c0.42,2.63,0.02,5.6-1.18,8.91c-1.2,3.31-2.97,6.28-5.3,8.91
		c-2.33,2.63-5.01,4.69-8.03,6.17c-3.02,1.48-6.11,2.23-9.28,2.23C807.47-109.22,804.77-110.61,803.68-113.39z M819.96-120.24
		c2.04-1.64,3.53-3.73,4.46-6.29c0.93-2.56,0.97-4.65,0.11-6.29c-0.85-1.63-2.48-2.45-4.89-2.45c-2.48,0-4.76,0.82-6.84,2.45
		c-2.08,1.64-3.59,3.73-4.52,6.29c-0.93,2.56-0.95,4.65-0.06,6.29c0.89,1.63,2.58,2.45,5.06,2.45
		C815.7-117.79,817.92-118.61,819.96-120.24z"/>
	<path class="st1" d="M844.5-110.01h-10.18l17.24-47.36h10.18L844.5-110.01z"/>
	<path class="st1" d="M859.42-111.45c-2.11-1.49-3.43-3.54-3.96-6.17c-0.53-2.63-0.19-5.6,1.01-8.91c1.2-3.31,3.03-6.28,5.47-8.91
		c2.44-2.63,5.26-4.69,8.46-6.17c3.19-1.48,6.46-2.23,9.82-2.23s6.09,0.74,8.2,2.23c2.11,1.49,3.43,3.54,3.96,6.17
		c0.53,2.63,0.19,5.6-1.01,8.91c-0.4,1.09-0.86,2.16-1.4,3.21h-24.54c-0.32,1.92-0.02,3.4,0.9,4.45c0.91,1.05,2.32,1.58,4.23,1.58
		c1.45,0,2.82-0.23,4.12-0.7c1.3-0.47,2.3-1.1,3-1.89h10.24c-1.34,2.1-3.08,3.96-5.22,5.55c-2.15,1.6-4.53,2.85-7.14,3.75
		c-2.62,0.9-5.26,1.35-7.93,1.35C864.26-109.22,861.53-109.96,859.42-111.45z M882.6-129.8c0.3-1.99,0-3.5-0.92-4.54
		c-0.92-1.03-2.37-1.55-4.36-1.55s-3.79,0.52-5.43,1.55c-1.64,1.03-3.02,2.55-4.17,4.54H882.6z"/>
	<path class="st1" d="M924.39-155.96h17.91c4,0,7.19,0.7,9.57,2.09c2.37,1.39,3.86,3.35,4.47,5.86c0.61,2.52,0.3,5.47-0.93,8.85
		c-1.25,3.42-3.09,6.4-5.54,8.94c-2.45,2.54-5.37,4.5-8.75,5.89c-3.39,1.39-7.08,2.08-11.09,2.08h-7.5l-4.45,12.24h-10.41
		L924.39-155.96z M932.88-131.32c2.94,0,5.46-0.68,7.58-2.03c2.11-1.35,3.63-3.29,4.54-5.81c0.92-2.52,0.8-4.44-0.34-5.75
		s-3.18-1.97-6.12-1.97h-7.04l-5.66,15.56H932.88z"/>
	<path class="st1" d="M956.48-111.45c-1.94-1.49-3.12-3.54-3.53-6.17c-0.42-2.63-0.02-5.6,1.18-8.91c1.2-3.31,2.97-6.28,5.3-8.91
		c2.33-2.63,5.01-4.69,8.03-6.17c3.02-1.48,6.11-2.23,9.28-2.23c4.31,0,7.01,1.39,8.09,4.17l1.23-3.38h10.18l-12.03,33.04h-10.18
		l1.23-3.38c-3.11,2.78-6.82,4.17-11.13,4.17C960.97-109.22,958.42-109.96,956.48-111.45z M975.7-120.24
		c2.08-1.64,3.59-3.73,4.52-6.29c0.93-2.56,0.95-4.65,0.06-6.29c-0.89-1.63-2.58-2.45-5.06-2.45c-2.4,0-4.63,0.82-6.67,2.45
		c-2.05,1.64-3.53,3.73-4.46,6.29c-0.93,2.56-0.97,4.65-0.11,6.29c0.85,1.63,2.48,2.45,4.89,2.45
		C971.34-117.79,973.62-118.61,975.7-120.24z"/>
	<path class="st1" d="M1003.91-143.05h10.18l-1.23,3.38c3.11-2.78,6.74-4.17,10.9-4.17c1.83,0,3.23,0.19,4.2,0.56l-3.31,9.42
		c-1.18-0.75-2.78-1.13-4.8-1.13c-2.71,0-5.09,0.71-7.16,2.14c-2.07,1.43-3.56,3.4-4.47,5.92l-6.16,16.91h-10.18L1003.91-143.05z"/>
	<path class="st1" d="M1051.24-134.42h-6.64l-8.89,24.41h-10.18l8.89-24.41h-6.64l3.14-8.63h6.64l3.57-9.81h10.18l-3.57,9.81h6.64
		L1051.24-134.42z"/>
	<path class="st1" d="M1059.13-143.05h10.18l-1.23,3.38c3.11-2.78,6.74-4.17,10.9-4.17c2.59,0,4.67,0.59,6.22,1.78
		c1.55,1.18,2.47,2.88,2.75,5.1c0.28,2.22-0.13,4.83-1.22,7.84l-6.96,19.11h-10.18l6.34-17.42c0.92-2.52,1.11-4.45,0.59-5.78
		c-0.53-1.33-1.74-2-3.65-2c-1.98,0-3.81,0.73-5.49,2.2c-1.68,1.47-2.98,3.48-3.91,6.03l-6.18,16.97h-10.18L1059.13-143.05z"/>
	<path class="st1" d="M1093.88-111.45c-2.11-1.49-3.43-3.54-3.96-6.17c-0.53-2.63-0.19-5.6,1.01-8.91c1.2-3.31,3.03-6.28,5.47-8.91
		c2.44-2.63,5.26-4.69,8.46-6.17c3.19-1.48,6.46-2.23,9.82-2.23s6.09,0.74,8.2,2.23c2.11,1.49,3.43,3.54,3.96,6.17
		c0.53,2.63,0.19,5.6-1.01,8.91c-0.4,1.09-0.86,2.16-1.4,3.21h-24.54c-0.32,1.92-0.02,3.4,0.9,4.45c0.91,1.05,2.32,1.58,4.23,1.58
		c1.45,0,2.82-0.23,4.12-0.7c1.3-0.47,2.3-1.1,3-1.89h10.24c-1.34,2.1-3.08,3.96-5.22,5.55c-2.15,1.6-4.53,2.85-7.14,3.75
		c-2.62,0.9-5.26,1.35-7.93,1.35C1098.73-109.22,1095.99-109.96,1093.88-111.45z M1117.07-129.8c0.3-1.99,0-3.5-0.92-4.54
		c-0.92-1.03-2.37-1.55-4.36-1.55s-3.79,0.52-5.43,1.55c-1.64,1.03-3.02,2.55-4.17,4.54H1117.07z"/>
	<path class="st1" d="M1137.85-143.05h10.18l-1.23,3.38c3.11-2.78,6.74-4.17,10.9-4.17c1.83,0,3.23,0.19,4.2,0.56l-3.31,9.42
		c-1.18-0.75-2.78-1.13-4.8-1.13c-2.71,0-5.09,0.71-7.16,2.14c-2.07,1.43-3.56,3.4-4.47,5.92l-6.16,16.91h-10.18L1137.85-143.05z"/>
</g>
<g>
	<g>
		<path class="st2" d="M965.05-263.42c-11.55,0-20.9-9.36-20.9-20.9c0-9.33,6.12-17.24,14.56-19.92c-6.9-2.16-14.9-0.86-20.94,5.18
			c-13.16,13.16-3.84,35.66,14.77,35.66c0,4.84-1.27,8.66-4.18,12.53c6.89-2.23,13.09-6.76,17.6-12.57
			C965.65-263.43,965.35-263.42,965.05-263.42z"/>
	</g>
	<g>
		<path class="st2" d="M954.49-299.07c-13.16,13.16-3.84,35.66,14.77,35.66c0,4.84-1.27,8.66-4.18,12.53
			c13.96-4.51,25.07-18.46,25.07-33.42C990.15-302.91,967.65-312.23,954.49-299.07z"/>
	</g>
</g>
<g>
	<path d="M721.66-485.04h34.79v58.92h-34.79V-485.04z M733.49-437.77h11.13v-35.62h-11.13V-437.77z M782.77-451.2h-7v28.05h-11.83
		v-63.37h11.83v23.15h7V-451.2z"/>
	<path d="M818.33-486.22h10.92v61.96h-10.92v-27.31h-6.51c-1.03,5.49-2.78,10.14-5.25,13.95c-2.47,3.81-5.46,6.67-8.96,8.57
		c-3.5,1.9-7.35,2.88-11.55,2.93v-11.2c3.97-0.25,7.21-1.61,9.73-4.08s4.25-6.04,5.18-10.69h-14.91v-11.06h15.68v-10.83h-15.68
		v-11.06h26.74v21.59h5.53V-486.22z M844.72-486.52v63.37h-11.06v-63.37H844.72z"/>
	<path d="M887.35-451.28c-2.66,0.4-5.41,0.59-8.26,0.59h-26.32v-35.1h37.38v9.5h-25.69v3.64h24.5v8.83h-24.5v3.64h15.4
		c2.66,0,5.23-0.19,7.7-0.56c2.47-0.37,4.5-0.88,6.09-1.52v9.35C892.11-452.21,890.01-451.67,887.35-451.28z M901.81-445.08
		c4.92,2,7.39,5.28,7.39,9.83s-2.46,7.83-7.39,9.83c-4.92,2-11.56,3-19.92,3c-8.35,0-14.99-1-19.91-3c-4.92-2-7.39-5.28-7.39-9.83
		s2.46-7.83,7.39-9.83c4.92-2,11.56-3.01,19.91-3.01C890.24-448.08,896.88-447.08,901.81-445.08z M892.6-432.73
		c2.61-0.49,3.92-1.33,3.92-2.52c0-2.18-4.88-3.26-14.63-3.26c-9.75,0-14.63,1.09-14.63,3.26c0,1.19,1.31,2.03,3.92,2.52
		c2.61,0.5,6.18,0.74,10.71,0.74C886.42-431.98,889.99-432.23,892.6-432.73z M908.63-448.9H896.8v-37.62h11.83V-448.9z"/>
	<path d="M947.27-451.46c-3.55,2.05-7.42,3.13-11.62,3.23v-11.35c2.61-0.2,4.95-1.04,7-2.52c2.05-1.48,3.7-3.36,4.94-5.64
		c1.24-2.28,2.04-4.72,2.42-7.35h-13.51v-10.68h38.64v10.68h-13.16c-0.14,1.73-0.47,3.59-0.98,5.57l16.66,11.8l-6.51,8.98
		l-14.91-10.91C953.8-456.25,950.82-453.51,947.27-451.46z M992.91-434.43v11.28h-54.32v-22.19h12.04v10.91H992.91z M992.07-439.63
		h-11.83v-46.89h11.83V-439.63z"/>
	<path d="M1030.5-473.61h-32.06v-9.13h10.43v-4.75h11.76v4.75h9.87V-473.61z M1027.7-453.98c-1.31,1.81-3.08,3.19-5.32,4.16
		c-2.24,0.96-4.74,1.45-7.49,1.45c-2.75,0-5.25-0.48-7.49-1.45c-2.24-0.96-4.01-2.35-5.32-4.16c-1.31-1.8-1.96-3.9-1.96-6.27
		c0-2.38,0.65-4.46,1.96-6.27c1.31-1.8,3.08-3.19,5.32-4.16c2.24-0.96,4.74-1.45,7.49-1.45c2.75,0,5.25,0.48,7.49,1.45
		c2.24,0.96,4.01,2.35,5.32,4.16c1.31,1.81,1.96,3.9,1.96,6.27C1029.66-457.88,1029.01-455.79,1027.7-453.98z M1052.06-444.37
		c5.09,1.98,7.63,5.15,7.63,9.5s-2.54,7.52-7.63,9.5c-5.09,1.98-11.95,2.97-20.58,2.97c-8.63,0-15.49-0.99-20.58-2.97
		c-5.09-1.98-7.63-5.15-7.63-9.5s2.54-7.52,7.63-9.5c5.09-1.98,11.95-2.97,20.58-2.97C1040.11-447.34,1046.97-446.35,1052.06-444.37
		z M1011.7-457.88c0.86,0.59,1.93,0.89,3.19,0.89c1.26,0,2.32-0.3,3.19-0.89c0.86-0.59,1.29-1.38,1.29-2.37s-0.43-1.78-1.29-2.38
		c-0.86-0.59-1.92-0.89-3.19-0.89c-1.26,0-2.32,0.3-3.19,0.89c-0.86,0.59-1.29,1.39-1.29,2.38S1010.84-458.47,1011.7-457.88z
		 M1042.78-432.54c2.96-0.52,4.44-1.3,4.44-2.34s-1.48-1.82-4.44-2.34c-2.96-0.52-6.73-0.78-11.31-0.78c-4.57,0-8.34,0.26-11.3,0.78
		c-2.96,0.52-4.45,1.3-4.45,2.34s1.48,1.82,4.45,2.34c2.96,0.52,6.73,0.78,11.3,0.78C1036.05-431.76,1039.82-432.02,1042.78-432.54z
		 M1043.66-449.64h-10.71v-36.58h10.71v12.61h4.83v-12.91h10.85v39.1h-10.85v-15.06h-4.83V-449.64z"/>
	<path d="M1125.91-455.95v10.31h-24.29v8.61h-11.9v-8.61h-24.29v-10.31H1125.91z M1095.39-470.64c-3.45,3.46-7.64,6.21-12.56,8.24
		c-4.92,2.03-10.14,3.09-15.65,3.19v-10.68c3.83-0.15,7.51-1,11.06-2.56c3.55-1.56,6.53-3.71,8.96-6.46
		c2.43-2.75,3.94-5.87,4.55-9.39l11.97,2.08c-0.51,2.67-1.31,5.07-2.38,7.2l24.29,10.61l-4.55,9.57L1095.39-470.64z M1080.97-433.54
		h42.14v10.39h-54.18v-18.77h12.04V-433.54z"/>
	<path d="M1156.57-461.96l17.36,29.09l-10.15,6.68l-11.27-20.03c-2.43,6.43-5.48,11.38-9.17,14.84c-3.69,3.46-7.79,5.22-12.32,5.27
		v-13.06c3.03-0.35,5.69-2.51,7.98-6.49c2.29-3.98,4.06-9.39,5.32-16.21c1.26-6.83,1.89-14.62,1.89-23.37l12.04,0.45
		C1158.25-476.4,1157.69-468.79,1156.57-461.96z M1189.12-486.52v63.37h-11.83v-31.16h-12.6v-11.72h12.6v-20.48H1189.12z"/>
</g>
<g>
	<path class="st1" d="M794.24-409.84h-15.16l-13.42,36.87h-10.41l13.42-36.87h-15.16l3.3-9.08h40.74L794.24-409.84z"/>
	<path class="st1" d="M797.56-376.35l-1.23,3.38h-10.18l17.24-47.36h10.18l-6.44,17.7c3.11-2.78,6.82-4.17,11.13-4.17
		c3.17,0,5.72,0.74,7.66,2.23c1.94,1.49,3.12,3.54,3.53,6.17c0.42,2.63,0.02,5.6-1.18,8.91c-1.2,3.31-2.97,6.28-5.3,8.91
		c-2.33,2.63-5.01,4.69-8.03,6.17c-3.02,1.48-6.11,2.23-9.28,2.23C801.34-372.18,798.65-373.57,797.56-376.35z M813.84-383.2
		c2.04-1.64,3.53-3.73,4.46-6.29c0.93-2.56,0.97-4.65,0.11-6.29c-0.85-1.63-2.48-2.45-4.89-2.45c-2.48,0-4.76,0.82-6.84,2.45
		c-2.08,1.64-3.59,3.73-4.52,6.29c-0.93,2.56-0.95,4.65-0.06,6.29c0.89,1.63,2.58,2.45,5.06,2.45
		C809.57-380.75,811.8-381.57,813.84-383.2z"/>
	<path class="st1" d="M838.38-372.97H828.2l17.24-47.36h10.18L838.38-372.97z"/>
	<path class="st1" d="M853.29-374.4c-2.11-1.49-3.43-3.54-3.96-6.17c-0.53-2.63-0.19-5.6,1.01-8.91c1.2-3.31,3.03-6.28,5.47-8.91
		c2.44-2.63,5.26-4.69,8.46-6.17c3.19-1.48,6.46-2.23,9.82-2.23s6.09,0.74,8.2,2.23c2.11,1.49,3.43,3.54,3.96,6.17
		c0.53,2.63,0.19,5.6-1.01,8.91c-0.4,1.09-0.86,2.16-1.4,3.21H859.3c-0.32,1.92-0.02,3.4,0.9,4.45c0.91,1.05,2.32,1.58,4.23,1.58
		c1.45,0,2.82-0.23,4.12-0.7c1.3-0.47,2.3-1.1,3-1.89h10.24c-1.34,2.1-3.08,3.96-5.22,5.55c-2.15,1.6-4.53,2.85-7.14,3.75
		c-2.62,0.9-5.26,1.35-7.93,1.35C858.14-372.18,855.4-372.92,853.29-374.4z M876.48-392.76c0.3-1.99,0-3.5-0.92-4.54
		c-0.92-1.03-2.37-1.55-4.36-1.55s-3.79,0.52-5.43,1.55c-1.64,1.03-3.02,2.55-4.17,4.54H876.48z"/>
	<path class="st1" d="M918.27-418.92h17.91c4,0,7.19,0.7,9.57,2.09c2.37,1.39,3.86,3.35,4.47,5.86c0.61,2.52,0.3,5.47-0.93,8.85
		c-1.25,3.42-3.09,6.4-5.54,8.94c-2.45,2.54-5.37,4.5-8.75,5.89c-3.39,1.39-7.08,2.08-11.09,2.08h-7.5l-4.45,12.24h-10.41
		L918.27-418.92z M926.75-394.28c2.94,0,5.46-0.68,7.58-2.03c2.11-1.35,3.63-3.29,4.54-5.81c0.92-2.52,0.8-4.44-0.34-5.75
		s-3.18-1.97-6.12-1.97h-7.04l-5.66,15.56H926.75z"/>
	<path class="st1" d="M956.02-406.01h10.18l-1.23,3.38c3.11-2.78,6.74-4.17,10.9-4.17c1.83,0,3.23,0.19,4.2,0.56l-3.31,9.42
		c-1.18-0.75-2.78-1.13-4.8-1.13c-2.71,0-5.09,0.71-7.16,2.14c-2.07,1.43-3.56,3.4-4.47,5.92l-6.16,16.91H944L956.02-406.01z"/>
	<path class="st1" d="M1008.48-404.57c2.17,1.49,3.54,3.54,4.1,6.17c0.57,2.63,0.25,5.6-0.95,8.91c-1.2,3.31-3.05,6.28-5.53,8.91
		c-2.48,2.63-5.35,4.69-8.6,6.17c-3.25,1.48-6.57,2.23-9.96,2.23c-3.4,0-6.18-0.74-8.34-2.23c-2.17-1.49-3.54-3.54-4.1-6.17
		c-0.57-2.63-0.25-5.6,0.95-8.91c1.2-3.31,3.05-6.28,5.53-8.91c2.48-2.63,5.35-4.69,8.6-6.17c3.25-1.48,6.57-2.23,9.96-2.23
		C1003.53-406.79,1006.32-406.05,1008.48-404.57z M990.38-395.77c-2.06,1.64-3.56,3.73-4.49,6.29c-0.93,2.56-0.96,4.65-0.08,6.29
		c0.87,1.63,2.49,2.45,4.86,2.45c2.36,0,4.58-0.82,6.64-2.45c2.06-1.64,3.56-3.73,4.49-6.29c0.93-2.56,0.96-4.65,0.08-6.29
		c-0.87-1.63-2.49-2.45-4.86-2.45C994.66-398.23,992.44-397.41,990.38-395.77z"/>
	<path class="st1" d="M1039.49-375.65c-3.85,2.31-7.9,3.47-12.13,3.47c-3.4,0-6.18-0.74-8.34-2.23c-2.17-1.49-3.54-3.54-4.1-6.17
		c-0.57-2.63-0.25-5.6,0.95-8.91c1.2-3.31,3.05-6.28,5.53-8.91c2.48-2.63,5.35-4.69,8.6-6.17c3.25-1.48,6.57-2.23,9.96-2.23
		c2.86,0,5.27,0.55,7.23,1.66c1.96,1.11,3.36,2.62,4.18,4.54c0.83,1.92,1.01,4.04,0.54,6.37h-10.3c0-1.16-0.41-2.09-1.24-2.79
		c-0.83-0.7-2.03-1.04-3.6-1.04c-2.37,0-4.55,0.8-6.57,2.4c-2.01,1.6-3.48,3.66-4.39,6.17s-0.95,4.58-0.1,6.17
		c0.85,1.6,2.46,2.4,4.82,2.4c1.56,0,3.04-0.36,4.42-1.07c1.38-0.71,2.53-1.67,3.42-2.88h10.3
		C1046.41-381.03,1043.35-377.96,1039.49-375.65z"/>
	<path class="st1" d="M1057.09-374.4c-2.11-1.49-3.43-3.54-3.96-6.17c-0.53-2.63-0.19-5.6,1.01-8.91c1.2-3.31,3.03-6.28,5.47-8.91
		c2.44-2.63,5.26-4.69,8.46-6.17c3.19-1.48,6.46-2.23,9.82-2.23s6.09,0.74,8.2,2.23c2.11,1.49,3.43,3.54,3.96,6.17
		c0.53,2.63,0.19,5.6-1.01,8.91c-0.4,1.09-0.86,2.16-1.4,3.21h-24.54c-0.32,1.92-0.02,3.4,0.9,4.45c0.91,1.05,2.32,1.58,4.23,1.58
		c1.45,0,2.82-0.23,4.12-0.7c1.3-0.47,2.3-1.1,3-1.89h10.24c-1.34,2.1-3.08,3.96-5.22,5.55c-2.15,1.6-4.53,2.85-7.14,3.75
		c-2.62,0.9-5.26,1.35-7.93,1.35C1061.94-372.18,1059.2-372.92,1057.09-374.4z M1080.28-392.76c0.3-1.99,0-3.5-0.92-4.54
		c-0.92-1.03-2.37-1.55-4.36-1.55s-3.79,0.52-5.43,1.55c-1.64,1.03-3.02,2.55-4.17,4.54H1080.28z"/>
	<path class="st1" d="M1122.5-405.47c1.97,0.88,3.34,2.13,4.13,3.75c0.79,1.62,0.84,3.5,0.18,5.64h-9.84
		c0.22-1.02-0.09-1.81-0.93-2.4c-0.84-0.58-2.02-0.87-3.54-0.87c-1.53,0-2.88,0.24-4.06,0.71c-1.18,0.47-1.91,1.08-2.18,1.83
		c-0.29,0.79,0.07,1.43,1.08,1.92c1,0.49,2.89,0.96,5.67,1.41c4.58,0.71,7.6,1.9,9.06,3.55c1.46,1.65,1.66,3.93,0.61,6.82
		c-0.79,2.18-2.2,4.1-4.21,5.75c-2.01,1.65-4.39,2.93-7.12,3.83c-2.73,0.9-5.53,1.35-8.39,1.35c-2.9,0-5.35-0.46-7.36-1.38
		c-2.01-0.92-3.4-2.23-4.18-3.92c-0.78-1.69-0.81-3.66-0.1-5.92h9.84c-0.23,1.05,0.11,1.91,1.01,2.57c0.91,0.66,2.16,0.99,3.76,0.99
		c1.64,0,3.09-0.26,4.35-0.79c1.26-0.53,2.03-1.16,2.3-1.92c0.29-0.79-0.1-1.46-1.16-2s-2.95-1.02-5.66-1.44
		c-4.15-0.64-7.07-1.73-8.74-3.27c-1.67-1.54-1.93-3.89-0.78-7.05c0.77-2.1,2.11-3.95,4.04-5.52c1.93-1.58,4.21-2.8,6.86-3.67
		c2.64-0.86,5.39-1.3,8.25-1.3C1118.15-406.79,1120.53-406.35,1122.5-405.47z"/>
	<path class="st1" d="M1158.43-405.47c1.97,0.88,3.34,2.13,4.13,3.75c0.79,1.62,0.84,3.5,0.18,5.64h-9.84
		c0.22-1.02-0.09-1.81-0.93-2.4c-0.84-0.58-2.02-0.87-3.54-0.87c-1.53,0-2.88,0.24-4.06,0.71c-1.18,0.47-1.91,1.08-2.18,1.83
		c-0.29,0.79,0.07,1.43,1.08,1.92c1,0.49,2.89,0.96,5.67,1.41c4.58,0.71,7.6,1.9,9.06,3.55c1.46,1.65,1.66,3.93,0.61,6.82
		c-0.79,2.18-2.2,4.1-4.21,5.75c-2.01,1.65-4.39,2.93-7.12,3.83c-2.73,0.9-5.53,1.35-8.39,1.35c-2.9,0-5.35-0.46-7.36-1.38
		c-2.01-0.92-3.4-2.23-4.18-3.92c-0.78-1.69-0.81-3.66-0.1-5.92h9.84c-0.23,1.05,0.11,1.91,1.01,2.57c0.91,0.66,2.16,0.99,3.76,0.99
		c1.64,0,3.09-0.26,4.35-0.79c1.26-0.53,2.03-1.16,2.3-1.92c0.29-0.79-0.1-1.46-1.16-2s-2.95-1.02-5.66-1.44
		c-4.15-0.64-7.07-1.73-8.74-3.27c-1.67-1.54-1.93-3.89-0.78-7.05c0.77-2.1,2.11-3.95,4.04-5.52c1.93-1.58,4.21-2.8,6.86-3.67
		c2.64-0.86,5.39-1.3,8.25-1.3C1154.08-406.79,1156.46-406.35,1158.43-405.47z"/>
</g>
<g>
	<g>
		<path class="st0" d="M965.05-526.37c-11.55,0-20.9-9.36-20.9-20.9c0-9.33,6.12-17.24,14.56-19.92c-6.9-2.16-14.9-0.86-20.94,5.18
			c-13.16,13.16-3.84,35.66,14.77,35.66c0,4.84-1.27,8.66-4.18,12.53c6.89-2.23,13.09-6.76,17.6-12.57
			C965.65-526.38,965.35-526.37,965.05-526.37z"/>
	</g>
	<g>
		<path class="st0" d="M954.49-562.02c-13.16,13.16-3.84,35.66,14.77,35.66c0,4.84-1.27,8.66-4.18,12.53
			c13.96-4.51,25.07-18.46,25.07-33.42C990.15-565.86,967.65-575.18,954.49-562.02z"/>
	</g>
</g>
<text transform="matrix(1 0 0 1.06 641.6885 -689.1307)" style="font-family:'GmarketSansTTFBold'; font-size:70px; letter-spacing:-1;">티블을 선택하는 이유</text>
<text transform="matrix(0.9536 0 -0.342 0.9397 787.6484 -636.3022)" class="st1" style="font-family:'GmarketSansTTFBold'; font-size:60px;">Tble Point</text>
<g>
	<path class="st0" d="M965.05-784.64c-11.55,0-20.9-9.36-20.9-20.9c0-9.33,6.12-17.24,14.56-19.92c-6.9-2.16-14.9-0.86-20.94,5.18
		c-13.16,13.16-3.84,35.66,14.77,35.66c0,4.84-1.27,8.66-4.18,12.53c6.89-2.23,13.09-6.76,17.6-12.57
		C965.65-784.65,965.35-784.64,965.05-784.64z"/>
	<path class="st0" d="M954.49-820.28c-13.16,13.16-3.84,35.66,14.77,35.66c0,4.84-1.27,8.66-4.18,12.53
		c13.96-4.51,25.07-18.46,25.07-33.42C990.15-824.12,967.65-833.44,954.49-820.28z"/>
</g>
<text transform="matrix(1 0 0 1.06 -356.1377 -797.1307)" style="font-family:'GmarketSansTTFBold'; font-size:70px; letter-spacing:-1;">티블을 선택하는 이유</text>
<text transform="matrix(0.9536 0 -0.342 0.9397 -210.1777 -744.3021)" class="st1" style="font-family:'GmarketSansTTFBold'; font-size:60px;">Tble Point</text>
<g>
	<path class="st0" d="M-32.78-892.64c-11.55,0-20.9-9.36-20.9-20.9c0-9.33,6.12-17.24,14.56-19.92c-6.9-2.16-14.9-0.86-20.94,5.18
		c-13.16,13.16-3.84,35.66,14.77,35.66c0,4.84-1.27,8.66-4.18,12.53c6.89-2.23,13.09-6.76,17.6-12.57
		C-32.17-892.65-32.47-892.64-32.78-892.64z"/>
	<path class="st0" d="M-43.34-928.28c-13.16,13.16-3.84,35.66,14.77,35.66c0,4.84-1.27,8.66-4.18,12.53
		c13.96-4.51,25.07-18.46,25.07-33.42C-7.68-932.12-30.18-941.44-43.34-928.28z"/>
</g>
<g>
	<g>
		<path class="st3" d="M132.27,112.75c-29.26,0-52.98-23.72-52.98-52.98c0-23.65,15.51-43.68,36.9-50.49
			C98.72,3.81,78.43,7.09,63.12,22.4c-33.35,33.35-9.73,90.38,37.44,90.38c0,12.28-3.22,21.94-10.59,31.77
			c17.47-5.64,33.17-17.12,44.6-31.86C133.8,112.72,133.04,112.75,132.27,112.75z"/>
		<path class="st3" d="M105.5,22.4c-33.35,33.35-9.73,90.38,37.44,90.38c0,12.28-3.22,21.94-10.59,31.77
			c35.38-11.43,63.53-46.77,63.53-84.71C195.89,12.67,138.86-10.95,105.5,22.4z"/>
	</g>
	<g>
		<path class="st0" d="M223.38,191.46c-10.47-6.63-23.99-5.92-33.71,1.79c-9.71,7.71-13.48,20.71-9.4,32.42
			c4.08,11.71,15.12,19.55,27.52,19.55c9.41,0,18.54-4.33,24.64-11.44c-4.88-1.78-9.77-3.56-14.65-5.33
			c-3.05,2.46-6.06,3.53-9.98,3.53c-5.76,0-10.13-4.28-12.04-9.27c13.47,0,26.94,0,40.42,0
			C238.98,210.62,233.85,198.09,223.38,191.46z M195.75,209.45c4.72-12.36,19.36-12.36,24.08,0
			C211.8,209.45,203.77,209.45,195.75,209.45z"/>
		<path class="st0" d="M99.18,186.93v-15.9H83.28v58.28l15.89,15.89h13.25c16.09,0,29.14-13.05,29.14-29.14
			c0-16.09-13.05-29.14-29.14-29.14H99.18z M112.42,202.83c7.31,0,13.24,5.93,13.24,13.25c0,7.31-5.93,13.25-13.24,13.25H99.18
			v-26.49H112.42z"/>
		<rect x="152.16" y="171.04" class="st0" width="15.89" height="74.17"/>
		<g>
			<polygon class="st0" points="48.85,171.04 32.95,186.93 32.95,245.21 48.85,245.21 48.85,186.93 75.34,186.93 75.34,171.04 			
				"/>
			<polygon class="st0" points="6.46,171.04 6.46,186.94 25.46,186.94 41.36,171.04 			"/>
		</g>
	</g>
</g>
</svg>
