<?xml version="1.0" encoding="utf-8"?>
<!-- Generator: Adobe Illustrator 26.1.0, SVG Export Plug-In . SVG Version: 6.00 Build 0)  -->
<svg version="1.1" id="레이어_1" xmlns="http://www.w3.org/2000/svg" xmlns:xlink="http://www.w3.org/1999/xlink" x="0px"
	 y="0px" viewBox="0 0 856.87 206.39" style="enable-background:new 0 0 856.87 206.39;" xml:space="preserve">
<style type="text/css">
	.st0{fill:#FFFFFF;}
	.st1{fill:#FFD141;}
</style>
<text transform="matrix(1 0 0 1.06 1176.5582 1185.5004)" style="font-family:'GmarketSansTTFBold'; font-size:70px; letter-spacing:-1;">티블을 선택하는 이유</text>
<text transform="matrix(0.9536 0 -0.342 0.9397 1322.5178 1238.3281)" class="st1" style="font-family:'GmarketSansTTFBold'; font-size:60px;">Tble Point</text>
<g>
	<path class="st0" d="M1499.92,1090c-11.55,0-20.9-9.36-20.9-20.9c0-9.33,6.12-17.24,14.56-19.92c-6.9-2.16-14.9-0.86-20.94,5.18
		c-13.16,13.16-3.84,35.66,14.77,35.66c0,4.84-1.27,8.66-4.18,12.53c6.89-2.23,13.09-6.76,17.6-12.57
		C1500.52,1089.99,1500.22,1090,1499.92,1090z"/>
	<path class="st0" d="M1489.36,1054.35c-13.16,13.16-3.84,35.66,14.77,35.66c0,4.84-1.27,8.66-4.18,12.53
		c13.96-4.51,25.07-18.46,25.07-33.42C1525.02,1050.51,1502.52,1041.19,1489.36,1054.35z"/>
</g>
<text transform="matrix(1 0 0 1.06 1176.5582 899.0656)" style="font-family:'GmarketSansTTFBold'; font-size:70px; letter-spacing:-1;">티블을 선택하는 이유</text>
<text transform="matrix(0.9536 0 -0.342 0.9397 1322.5178 951.8933)" class="st1" style="font-family:'GmarketSansTTFBold'; font-size:60px;">Tble Point</text>
<g>
	<path class="st0" d="M1499.92,803.56c-11.55,0-20.9-9.36-20.9-20.9c0-9.33,6.12-17.24,14.56-19.92c-6.9-2.16-14.9-0.86-20.94,5.18
		c-13.16,13.16-3.84,35.66,14.77,35.66c0,4.84-1.27,8.66-4.18,12.53c6.89-2.23,13.09-6.76,17.6-12.57
		C1500.52,803.55,1500.22,803.56,1499.92,803.56z"/>
	<path class="st0" d="M1489.36,767.91c-13.16,13.16-3.84,35.66,14.77,35.66c0,4.84-1.27,8.66-4.18,12.53
		c13.96-4.51,25.07-18.46,25.07-33.42C1525.02,764.07,1502.52,754.75,1489.36,767.91z"/>
</g>
<text transform="matrix(1 0 0 1.06 1176.5582 659.587)" style="font-family:'GmarketSansTTFBold'; font-size:70px; letter-spacing:-1;">티블을 선택하는 이유</text>
<text transform="matrix(0.9536 0 -0.342 0.9397 1322.5178 712.4155)" class="st1" style="font-family:'GmarketSansTTFBold'; font-size:60px;">Tble Point</text>
<g>
	<path class="st0" d="M1499.92,564.08c-11.55,0-20.9-9.36-20.9-20.9c0-9.33,6.12-17.24,14.56-19.92c-6.9-2.16-14.9-0.86-20.94,5.18
		c-13.16,13.16-3.84,35.66,14.77,35.66c0,4.84-1.27,8.66-4.18,12.53c6.89-2.23,13.09-6.76,17.6-12.57
		C1500.52,564.07,1500.22,564.08,1499.92,564.08z"/>
	<path class="st0" d="M1489.36,528.43c-13.16,13.16-3.84,35.66,14.77,35.66c0,4.84-1.27,8.66-4.18,12.53
		c13.96-4.51,25.07-18.46,25.07-33.42C1525.02,524.59,1502.52,515.27,1489.36,528.43z"/>
</g>
<text transform="matrix(1 0 0 1.06 1176.5582 413.0653)" style="font-family:'GmarketSansTTFBold'; font-size:70px; letter-spacing:-1;">티블을 선택하는 이유</text>
<text transform="matrix(0.9536 0 -0.342 0.9397 1322.5178 465.8936)" class="st1" style="font-family:'GmarketSansTTFBold'; font-size:60px;">Tble Point</text>
<g>
	<path class="st0" d="M1499.92,317.56c-11.55,0-20.9-9.36-20.9-20.9c0-9.33,6.12-17.24,14.56-19.92c-6.9-2.16-14.9-0.86-20.94,5.18
		c-13.16,13.16-3.84,35.66,14.77,35.66c0,4.84-1.27,8.66-4.18,12.53c6.89-2.23,13.09-6.76,17.6-12.57
		C1500.52,317.55,1500.22,317.56,1499.92,317.56z"/>
	<path class="st0" d="M1489.36,281.91c-13.16,13.16-3.84,35.66,14.77,35.66c0,4.84-1.27,8.66-4.18,12.53
		c13.96-4.51,25.07-18.46,25.07-33.42C1525.02,278.07,1502.52,268.75,1489.36,281.91z"/>
</g>
<text transform="matrix(1 0 0 1.06 110.6452 1662.1088)" style="font-family:'GmarketSansTTFBold'; font-size:70px; letter-spacing:-1;">티블을 선택하는 이유</text>
<text transform="matrix(0.9536 0 -0.342 0.9397 256.6048 1714.9371)" class="st1" style="font-family:'GmarketSansTTFBold'; font-size:60px;">Tble Point</text>
<g>
	<path class="st0" d="M434.01,1566.6c-11.55,0-20.9-9.36-20.9-20.9c0-9.33,6.12-17.24,14.56-19.92c-6.9-2.16-14.9-0.86-20.94,5.18
		c-13.16,13.16-3.84,35.66,14.77,35.66c0,4.84-1.27,8.66-4.18,12.53c6.89-2.23,13.09-6.76,17.6-12.57
		C434.61,1566.59,434.31,1566.6,434.01,1566.6z"/>
	<path class="st0" d="M423.44,1530.96c-13.16,13.16-3.84,35.66,14.77,35.66c0,4.84-1.27,8.66-4.18,12.53
		c13.96-4.51,25.07-18.46,25.07-33.42C459.1,1527.12,436.6,1517.8,423.44,1530.96z"/>
</g>
<text transform="matrix(1 0 0 1.06 110.645 1427.3262)" style="font-family:'GmarketSansTTFBold'; font-size:70px; letter-spacing:-1;">티블을 선택하는 이유</text>
<text transform="matrix(0.9536 0 -0.342 0.9397 256.6049 1480.1547)" class="st1" style="font-family:'GmarketSansTTFBold'; font-size:60px;">Tble Point</text>
<g>
	<path class="st0" d="M434.01,1331.82c-11.55,0-20.9-9.36-20.9-20.9c0-9.33,6.12-17.24,14.56-19.92c-6.9-2.16-14.9-0.86-20.94,5.18
		c-13.16,13.16-3.84,35.66,14.77,35.66c0,4.84-1.27,8.66-4.18,12.53c6.89-2.23,13.09-6.76,17.6-12.57
		C434.61,1331.81,434.31,1331.82,434.01,1331.82z"/>
	<path class="st0" d="M423.44,1296.17c-13.16,13.16-3.84,35.66,14.77,35.66c0,4.84-1.27,8.66-4.18,12.53
		c13.96-4.51,25.07-18.46,25.07-33.42C459.1,1292.33,436.6,1283.01,423.44,1296.17z"/>
</g>
<text transform="matrix(1 0 0 1.06 110.645 1178.4564)" style="font-family:'GmarketSansTTFBold'; font-size:70px; letter-spacing:-1;">티블을 선택하는 이유</text>
<text transform="matrix(0.9536 0 -0.342 0.9397 256.6049 1231.2854)" class="st1" style="font-family:'GmarketSansTTFBold'; font-size:60px;">Tble Point</text>
<g>
	<path class="st0" d="M434.01,1082.95c-11.55,0-20.9-9.36-20.9-20.9c0-9.33,6.12-17.24,14.56-19.92c-6.9-2.16-14.9-0.86-20.94,5.18
		c-13.16,13.16-3.84,35.66,14.77,35.66c0,4.84-1.27,8.66-4.18,12.53c6.89-2.23,13.09-6.76,17.6-12.57
		C434.61,1082.94,434.31,1082.95,434.01,1082.95z"/>
	<path class="st0" d="M423.44,1047.3c-13.16,13.16-3.84,35.66,14.77,35.66c0,4.84-1.27,8.66-4.18,12.53
		c13.96-4.51,25.07-18.46,25.07-33.42C459.1,1043.46,436.6,1034.14,423.44,1047.3z"/>
</g>
<text transform="matrix(1 0 0 1.06 110.645 931.9348)" style="font-family:'GmarketSansTTFBold'; font-size:70px; letter-spacing:-1;">티블을 선택하는 이유</text>
<text transform="matrix(0.9536 0 -0.342 0.9397 256.6049 984.7631)" class="st1" style="font-family:'GmarketSansTTFBold'; font-size:60px;">Tble Point</text>
<g>
	<path class="st0" d="M434.01,836.43c-11.55,0-20.9-9.36-20.9-20.9c0-9.33,6.12-17.24,14.56-19.92c-6.9-2.16-14.9-0.86-20.94,5.18
		c-13.16,13.16-3.84,35.66,14.77,35.66c0,4.84-1.27,8.66-4.18,12.53c6.89-2.23,13.09-6.76,17.6-12.57
		C434.61,836.42,434.31,836.43,434.01,836.43z"/>
	<path class="st0" d="M423.44,800.78c-13.16,13.16-3.84,35.66,14.77,35.66c0,4.84-1.27,8.66-4.18,12.53
		c13.96-4.51,25.07-18.46,25.07-33.42C459.1,796.94,436.6,787.62,423.44,800.78z"/>
</g>
<text transform="matrix(1 0 0 1.06 110.645 680.7171)" style="font-family:'GmarketSansTTFBold'; font-size:70px; letter-spacing:-1;">티블을 선택하는 이유</text>
<text transform="matrix(0.9536 0 -0.342 0.9397 256.6049 733.546)" class="st1" style="font-family:'GmarketSansTTFBold'; font-size:60px;">Tble Point</text>
<g>
	<path class="st0" d="M434.01,585.21c-11.55,0-20.9-9.36-20.9-20.9c0-9.33,6.12-17.24,14.56-19.92c-6.9-2.16-14.9-0.86-20.94,5.18
		c-13.16,13.16-3.84,35.66,14.77,35.66c0,4.84-1.27,8.66-4.18,12.53c6.89-2.23,13.09-6.76,17.6-12.57
		C434.61,585.2,434.31,585.21,434.01,585.21z"/>
	<path class="st0" d="M423.44,549.56c-13.16,13.16-3.84,35.66,14.77,35.66c0,4.84-1.27,8.66-4.18,12.53
		c13.96-4.51,25.07-18.46,25.07-33.42C459.1,545.72,436.6,536.4,423.44,549.56z"/>
</g>
<text transform="matrix(1 0 0 1.06 110.645 406.0215)" style="font-family:'GmarketSansTTFBold'; font-size:70px; letter-spacing:-1;">티블을 선택하는 이유</text>
<text transform="matrix(0.9536 0 -0.342 0.9397 256.6049 458.8504)" class="st1" style="font-family:'GmarketSansTTFBold'; font-size:60px;">Tble Point</text>
<g>
	<path class="st0" d="M434.01,310.52c-11.55,0-20.9-9.36-20.9-20.9c0-9.33,6.12-17.24,14.56-19.92c-6.9-2.16-14.9-0.86-20.94,5.18
		c-13.16,13.16-3.84,35.66,14.77,35.66c0,4.84-1.27,8.66-4.18,12.53c6.89-2.23,13.09-6.76,17.6-12.57
		C434.61,310.51,434.31,310.52,434.01,310.52z"/>
	<path class="st0" d="M423.44,274.87c-13.16,13.16-3.84,35.66,14.77,35.66c0,4.84-1.27,8.66-4.18,12.53
		c13.96-4.51,25.07-18.46,25.07-33.42C459.1,271.03,436.6,261.71,423.44,274.87z"/>
</g>
<g>
	<path d="M190.62,88.9h34.79v58.92h-34.79V88.9z M202.45,136.16h11.13v-35.62h-11.13V136.16z M251.73,122.73h-7v28.05H232.9V87.41
		h11.83v23.15h7V122.73z"/>
	<path d="M287.29,87.71h10.92v61.96h-10.92v-27.31h-6.51c-1.03,5.49-2.78,10.14-5.25,13.95c-2.47,3.81-5.46,6.67-8.96,8.57
		c-3.5,1.9-7.35,2.88-11.55,2.93v-11.2c3.97-0.25,7.21-1.61,9.73-4.08s4.25-6.04,5.18-10.69h-14.91v-11.06h15.68V99.95h-15.68V88.9
		h26.74v21.59h5.53V87.71z M313.68,87.41v63.37h-11.06V87.41H313.68z"/>
	<path d="M356.31,122.66c-2.66,0.4-5.41,0.59-8.26,0.59h-26.32v-35.1h37.38v9.5h-25.69v3.64h24.5v8.83h-24.5v3.64h15.4
		c2.66,0,5.23-0.19,7.7-0.56c2.47-0.37,4.5-0.88,6.09-1.52v9.35C361.07,121.72,358.97,122.26,356.31,122.66z M370.76,128.86
		c4.92,2,7.39,5.28,7.39,9.83s-2.46,7.83-7.39,9.83c-4.92,2-11.56,3-19.92,3c-8.35,0-14.99-1-19.91-3c-4.92-2-7.39-5.28-7.39-9.83
		s2.46-7.83,7.39-9.83c4.92-2,11.56-3.01,19.91-3.01C359.2,125.85,365.84,126.85,370.76,128.86z M361.56,141.21
		c2.61-0.49,3.92-1.33,3.92-2.52c0-2.18-4.88-3.26-14.63-3.26c-9.75,0-14.63,1.09-14.63,3.26c0,1.19,1.31,2.03,3.92,2.52
		c2.61,0.5,6.18,0.74,10.71,0.74C355.37,141.95,358.94,141.7,361.56,141.21z M377.59,125.03h-11.83V87.41h11.83V125.03z"/>
	<path d="M416.23,122.47c-3.55,2.05-7.42,3.13-11.62,3.23v-11.35c2.61-0.2,4.95-1.04,7-2.52c2.05-1.48,3.7-3.36,4.94-5.64
		c1.24-2.28,2.04-4.72,2.42-7.35h-13.51V88.16h38.64v10.68h-13.16c-0.14,1.73-0.47,3.59-0.98,5.57l16.66,11.8l-6.51,8.98
		l-14.91-10.91C422.76,117.69,419.77,120.42,416.23,122.47z M461.87,139.5v11.28h-54.32V128.6h12.04v10.91H461.87z M461.03,134.31
		H449.2V87.41h11.83V134.31z"/>
	<path d="M499.46,100.33H467.4V91.2h10.43v-4.75h11.76v4.75h9.87V100.33z M496.66,119.95c-1.31,1.81-3.08,3.19-5.32,4.16
		c-2.24,0.96-4.74,1.45-7.49,1.45c-2.75,0-5.25-0.48-7.49-1.45c-2.24-0.96-4.01-2.35-5.32-4.16c-1.31-1.8-1.96-3.9-1.96-6.27
		c0-2.38,0.65-4.46,1.96-6.27c1.31-1.8,3.08-3.19,5.32-4.16c2.24-0.96,4.74-1.45,7.49-1.45c2.75,0,5.25,0.48,7.49,1.45
		c2.24,0.96,4.01,2.35,5.32,4.16c1.31,1.81,1.96,3.9,1.96,6.27C498.62,116.06,497.96,118.15,496.66,119.95z M521.02,129.56
		c5.09,1.98,7.63,5.15,7.63,9.5s-2.54,7.52-7.63,9.5c-5.09,1.98-11.95,2.97-20.58,2.97c-8.63,0-15.49-0.99-20.58-2.97
		c-5.09-1.98-7.63-5.15-7.63-9.5s2.54-7.52,7.63-9.5c5.09-1.98,11.95-2.97,20.58-2.97C509.07,126.59,515.93,127.58,521.02,129.56z
		 M480.66,116.06c0.86,0.59,1.93,0.89,3.19,0.89c1.26,0,2.32-0.3,3.19-0.89c0.86-0.59,1.29-1.38,1.29-2.37s-0.43-1.78-1.29-2.38
		c-0.86-0.59-1.92-0.89-3.19-0.89c-1.26,0-2.32,0.3-3.19,0.89c-0.86,0.59-1.29,1.39-1.29,2.38S479.8,115.46,480.66,116.06z
		 M511.74,141.39c2.96-0.52,4.44-1.3,4.44-2.34s-1.48-1.82-4.44-2.34c-2.96-0.52-6.73-0.78-11.31-0.78c-4.57,0-8.34,0.26-11.3,0.78
		c-2.96,0.52-4.45,1.3-4.45,2.34s1.48,1.82,4.45,2.34c2.96,0.52,6.73,0.78,11.3,0.78C505.01,142.17,508.78,141.91,511.74,141.39z
		 M512.62,124.29h-10.71V87.71h10.71v12.61h4.83V87.41h10.85v39.1h-10.85v-15.06h-4.83V124.29z"/>
	<path d="M594.87,117.98v10.31h-24.29v8.61h-11.9v-8.61h-24.29v-10.31H594.87z M564.35,103.29c-3.45,3.46-7.64,6.21-12.56,8.24
		c-4.92,2.03-10.14,3.09-15.65,3.19v-10.68c3.83-0.15,7.51-1,11.06-2.56c3.55-1.56,6.53-3.71,8.96-6.46
		c2.43-2.75,3.94-5.87,4.55-9.39l11.97,2.08c-0.51,2.67-1.31,5.07-2.38,7.2l24.29,10.61l-4.55,9.57L564.35,103.29z M549.93,140.39
		h42.14v10.39h-54.18v-18.77h12.04V140.39z"/>
	<path d="M625.52,111.97l17.36,29.09l-10.15,6.68l-11.27-20.03c-2.43,6.43-5.48,11.38-9.17,14.84c-3.69,3.46-7.79,5.22-12.32,5.27
		v-13.06c3.03-0.35,5.69-2.51,7.98-6.49c2.29-3.98,4.06-9.39,5.32-16.21c1.26-6.83,1.89-14.62,1.89-23.37l12.04,0.45
		C627.21,97.53,626.65,105.15,625.52,111.97z M658.07,87.41v63.37h-11.83v-31.16h-12.6v-11.72h12.6V87.41H658.07z"/>
</g>
<g>
	<path class="st1" d="M263.2,164.1h-15.16l-13.42,36.87h-10.41l13.42-36.87h-15.16l3.3-9.08h40.74L263.2,164.1z"/>
	<path class="st1" d="M266.52,197.59l-1.23,3.38H255.1l17.24-47.36h10.18l-6.44,17.7c3.11-2.78,6.82-4.17,11.13-4.17
		c3.17,0,5.72,0.74,7.66,2.23c1.94,1.49,3.12,3.54,3.53,6.17c0.42,2.63,0.02,5.6-1.18,8.91c-1.2,3.31-2.97,6.28-5.3,8.91
		c-2.33,2.63-5.01,4.69-8.03,6.17c-3.02,1.48-6.11,2.23-9.28,2.23C270.3,201.76,267.6,200.37,266.52,197.59z M282.8,190.73
		c2.04-1.64,3.53-3.73,4.46-6.29c0.93-2.56,0.97-4.65,0.11-6.29c-0.85-1.63-2.48-2.45-4.89-2.45c-2.48,0-4.76,0.82-6.84,2.45
		c-2.08,1.64-3.59,3.73-4.52,6.29c-0.93,2.56-0.95,4.65-0.06,6.29c0.89,1.63,2.58,2.45,5.06,2.45
		C278.53,193.19,280.75,192.37,282.8,190.73z"/>
	<path class="st1" d="M307.34,200.97h-10.18l17.24-47.36h10.18L307.34,200.97z"/>
	<path class="st1" d="M322.25,199.53c-2.11-1.49-3.43-3.54-3.96-6.17c-0.53-2.63-0.19-5.6,1.01-8.91c1.2-3.31,3.03-6.28,5.47-8.91
		c2.44-2.63,5.26-4.69,8.46-6.17c3.19-1.48,6.46-2.23,9.82-2.23s6.09,0.74,8.2,2.23c2.11,1.49,3.43,3.54,3.96,6.17
		c0.53,2.63,0.19,5.6-1.01,8.91c-0.4,1.09-0.86,2.16-1.4,3.21h-24.54c-0.32,1.92-0.02,3.4,0.9,4.45c0.91,1.05,2.32,1.58,4.23,1.58
		c1.45,0,2.82-0.23,4.12-0.7c1.3-0.47,2.3-1.1,3-1.89h10.24c-1.34,2.1-3.08,3.96-5.22,5.55c-2.15,1.6-4.53,2.85-7.14,3.75
		c-2.62,0.9-5.26,1.35-7.93,1.35C327.09,201.76,324.36,201.01,322.25,199.53z M345.44,181.18c0.3-1.99,0-3.5-0.92-4.54
		c-0.92-1.03-2.37-1.55-4.36-1.55s-3.79,0.52-5.43,1.55c-1.64,1.03-3.02,2.55-4.17,4.54H345.44z"/>
	<path class="st1" d="M387.23,155.02h17.91c4,0,7.19,0.7,9.57,2.09c2.37,1.39,3.86,3.35,4.47,5.86c0.61,2.52,0.3,5.47-0.93,8.85
		c-1.25,3.42-3.09,6.4-5.54,8.94c-2.45,2.54-5.37,4.5-8.75,5.89c-3.39,1.39-7.08,2.08-11.09,2.08h-7.5l-4.45,12.24H370.5
		L387.23,155.02z M395.71,179.66c2.94,0,5.46-0.68,7.58-2.03c2.11-1.35,3.63-3.29,4.54-5.81c0.92-2.52,0.8-4.44-0.34-5.75
		s-3.18-1.97-6.12-1.97h-7.04l-5.66,15.56H395.71z"/>
	<path class="st1" d="M424.98,167.93h10.18l-1.23,3.38c3.11-2.78,6.74-4.17,10.9-4.17c1.83,0,3.23,0.19,4.2,0.56l-3.31,9.42
		c-1.18-0.75-2.78-1.13-4.8-1.13c-2.71,0-5.09,0.71-7.16,2.14c-2.07,1.43-3.56,3.4-4.47,5.92l-6.16,16.91h-10.18L424.98,167.93z"/>
	<path class="st1" d="M477.44,169.37c2.17,1.49,3.54,3.54,4.1,6.17c0.57,2.63,0.25,5.6-0.95,8.91c-1.2,3.31-3.05,6.28-5.53,8.91
		c-2.48,2.63-5.35,4.69-8.6,6.17c-3.25,1.48-6.57,2.23-9.96,2.23c-3.4,0-6.18-0.74-8.34-2.23c-2.17-1.49-3.54-3.54-4.1-6.17
		c-0.57-2.63-0.25-5.6,0.95-8.91c1.2-3.31,3.05-6.28,5.53-8.91c2.48-2.63,5.35-4.69,8.6-6.17c3.25-1.48,6.57-2.23,9.96-2.23
		C472.49,167.14,475.27,167.88,477.44,169.37z M459.33,178.16c-2.06,1.64-3.56,3.73-4.49,6.29c-0.93,2.56-0.96,4.65-0.08,6.29
		c0.87,1.63,2.49,2.45,4.86,2.45c2.36,0,4.58-0.82,6.64-2.45c2.06-1.64,3.56-3.73,4.49-6.29c0.93-2.56,0.96-4.65,0.08-6.29
		c-0.87-1.63-2.49-2.45-4.86-2.45C463.61,175.71,461.4,176.53,459.33,178.16z"/>
	<path class="st1" d="M508.45,198.29c-3.85,2.31-7.9,3.47-12.13,3.47c-3.4,0-6.18-0.74-8.34-2.23c-2.17-1.49-3.54-3.54-4.1-6.17
		c-0.57-2.63-0.25-5.6,0.95-8.91c1.2-3.31,3.05-6.28,5.53-8.91c2.48-2.63,5.35-4.69,8.6-6.17c3.25-1.48,6.57-2.23,9.96-2.23
		c2.86,0,5.27,0.55,7.23,1.66c1.96,1.11,3.36,2.62,4.18,4.54c0.83,1.92,1.01,4.04,0.54,6.37h-10.3c0-1.16-0.41-2.09-1.24-2.79
		c-0.83-0.7-2.03-1.04-3.6-1.04c-2.37,0-4.55,0.8-6.57,2.4c-2.01,1.6-3.48,3.66-4.39,6.17s-0.95,4.58-0.1,6.17
		c0.85,1.6,2.46,2.4,4.82,2.4c1.56,0,3.04-0.36,4.42-1.07c1.38-0.71,2.53-1.67,3.42-2.88h10.3
		C515.37,192.91,512.31,195.98,508.45,198.29z"/>
	<path class="st1" d="M526.05,199.53c-2.11-1.49-3.43-3.54-3.96-6.17c-0.53-2.63-0.19-5.6,1.01-8.91c1.2-3.31,3.03-6.28,5.47-8.91
		c2.44-2.63,5.26-4.69,8.46-6.17c3.19-1.48,6.46-2.23,9.82-2.23s6.09,0.74,8.2,2.23c2.11,1.49,3.43,3.54,3.96,6.17
		c0.53,2.63,0.19,5.6-1.01,8.91c-0.4,1.09-0.86,2.16-1.4,3.21h-24.54c-0.32,1.92-0.02,3.4,0.9,4.45c0.91,1.05,2.32,1.58,4.23,1.58
		c1.45,0,2.82-0.23,4.12-0.7c1.3-0.47,2.3-1.1,3-1.89h10.24c-1.34,2.1-3.08,3.96-5.22,5.55c-2.15,1.6-4.53,2.85-7.14,3.75
		c-2.62,0.9-5.26,1.35-7.93,1.35C530.89,201.76,528.16,201.01,526.05,199.53z M549.24,181.18c0.3-1.99,0-3.5-0.92-4.54
		c-0.92-1.03-2.37-1.55-4.36-1.55s-3.79,0.52-5.43,1.55c-1.64,1.03-3.02,2.55-4.17,4.54H549.24z"/>
	<path class="st1" d="M591.45,168.46c1.97,0.88,3.34,2.13,4.13,3.75c0.79,1.62,0.84,3.5,0.18,5.64h-9.84
		c0.22-1.02-0.09-1.81-0.93-2.4c-0.84-0.58-2.02-0.87-3.54-0.87c-1.53,0-2.88,0.24-4.06,0.71c-1.18,0.47-1.91,1.08-2.18,1.83
		c-0.29,0.79,0.07,1.43,1.08,1.92c1,0.49,2.89,0.96,5.67,1.41c4.58,0.71,7.6,1.9,9.06,3.55c1.46,1.65,1.66,3.93,0.61,6.82
		c-0.79,2.18-2.2,4.1-4.21,5.75c-2.01,1.65-4.39,2.93-7.12,3.83c-2.73,0.9-5.53,1.35-8.39,1.35c-2.9,0-5.35-0.46-7.36-1.38
		c-2.01-0.92-3.4-2.23-4.18-3.92c-0.78-1.69-0.81-3.66-0.1-5.92h9.84c-0.23,1.05,0.11,1.91,1.01,2.57c0.91,0.66,2.16,0.99,3.76,0.99
		c1.64,0,3.09-0.26,4.35-0.79c1.26-0.53,2.03-1.16,2.3-1.92c0.29-0.79-0.1-1.46-1.16-2s-2.95-1.02-5.66-1.44
		c-4.15-0.64-7.07-1.73-8.74-3.27c-1.67-1.54-1.93-3.89-0.78-7.05c0.77-2.1,2.11-3.95,4.04-5.52c1.93-1.58,4.21-2.8,6.86-3.67
		c2.64-0.86,5.39-1.3,8.25-1.3C587.11,167.14,589.49,167.58,591.45,168.46z"/>
	<path class="st1" d="M627.39,168.46c1.97,0.88,3.34,2.13,4.13,3.75c0.79,1.62,0.84,3.5,0.18,5.64h-9.84
		c0.22-1.02-0.09-1.81-0.93-2.4c-0.84-0.58-2.02-0.87-3.54-0.87c-1.53,0-2.88,0.24-4.06,0.71c-1.18,0.47-1.91,1.08-2.18,1.83
		c-0.29,0.79,0.07,1.43,1.08,1.92c1,0.49,2.89,0.96,5.67,1.41c4.58,0.71,7.6,1.9,9.06,3.55c1.46,1.65,1.66,3.93,0.61,6.82
		c-0.79,2.18-2.2,4.1-4.21,5.75c-2.01,1.65-4.39,2.93-7.12,3.83c-2.73,0.9-5.53,1.35-8.39,1.35c-2.9,0-5.35-0.46-7.36-1.38
		c-2.01-0.92-3.4-2.23-4.18-3.92c-0.78-1.69-0.81-3.66-0.1-5.92h9.84c-0.23,1.05,0.11,1.91,1.01,2.57c0.91,0.66,2.16,0.99,3.76,0.99
		c1.64,0,3.09-0.26,4.35-0.79c1.26-0.53,2.03-1.16,2.3-1.92c0.29-0.79-0.1-1.46-1.16-2s-2.95-1.02-5.66-1.44
		c-4.15-0.64-7.07-1.73-8.74-3.27c-1.67-1.54-1.93-3.89-0.78-7.05c0.77-2.1,2.11-3.95,4.04-5.52c1.93-1.58,4.21-2.8,6.86-3.67
		c2.64-0.86,5.39-1.3,8.25-1.3C623.04,167.14,625.42,167.58,627.39,168.46z"/>
</g>
<g>
	<g>
		<path class="st0" d="M434.01,47.56c-11.55,0-20.9-9.36-20.9-20.9c0-9.33,6.12-17.24,14.56-19.92c-6.9-2.16-14.9-0.86-20.94,5.18
			c-13.16,13.16-3.84,35.66,14.77,35.66c0,4.84-1.27,8.66-4.18,12.53c6.89-2.23,13.09-6.76,17.6-12.57
			C434.61,47.55,434.31,47.56,434.01,47.56z"/>
	</g>
	<g>
		<path class="st0" d="M423.44,11.91c-13.16,13.16-3.84,35.66,14.77,35.66c0,4.84-1.27,8.66-4.18,12.53
			C448,55.6,459.1,41.65,459.1,26.68C459.1,8.07,436.6-1.25,423.44,11.91z"/>
	</g>
</g>
<text transform="matrix(1 0 0 1.06 110.645 -115.1959)" style="font-family:'GmarketSansTTFBold'; font-size:70px; letter-spacing:-1;">티블을 선택하는 이유</text>
<text transform="matrix(0.9536 0 -0.342 0.9397 256.6049 -62.3674)" class="st1" style="font-family:'GmarketSansTTFBold'; font-size:60px;">Tble Point</text>
<g>
	<path class="st0" d="M434.01-210.7c-11.55,0-20.9-9.36-20.9-20.9c0-9.33,6.12-17.24,14.56-19.92c-6.9-2.16-14.9-0.86-20.94,5.18
		c-13.16,13.16-3.84,35.66,14.77,35.66c0,4.84-1.27,8.66-4.18,12.53c6.89-2.23,13.09-6.76,17.6-12.57
		C434.61-210.71,434.31-210.7,434.01-210.7z"/>
	<path class="st0" d="M423.44-246.35c-13.16,13.16-3.84,35.66,14.77,35.66c0,4.84-1.27,8.66-4.18,12.53
		c13.96-4.51,25.07-18.46,25.07-33.42C459.1-250.19,436.6-259.51,423.44-246.35z"/>
</g>
<text transform="matrix(1 0 0 1.06 -887.1812 -223.1959)" style="font-family:'GmarketSansTTFBold'; font-size:70px; letter-spacing:-1;">티블을 선택하는 이유</text>
<text transform="matrix(0.9536 0 -0.342 0.9397 -741.2212 -170.3674)" class="st1" style="font-family:'GmarketSansTTFBold'; font-size:60px;">Tble Point</text>
<g>
	<path class="st0" d="M-563.82-318.7c-11.55,0-20.9-9.36-20.9-20.9c0-9.33,6.12-17.24,14.56-19.92c-6.9-2.16-14.9-0.86-20.94,5.18
		c-13.16,13.16-3.84,35.66,14.77,35.66c0,4.84-1.27,8.66-4.18,12.53c6.89-2.23,13.09-6.76,17.6-12.57
		C-563.22-318.71-563.52-318.7-563.82-318.7z"/>
	<path class="st0" d="M-574.38-354.35c-13.16,13.16-3.84,35.66,14.77,35.66c0,4.84-1.27,8.66-4.18,12.53
		c13.96-4.51,25.07-18.46,25.07-33.42C-538.72-358.19-561.22-367.51-574.38-354.35z"/>
</g>
</svg>
