<?xml version="1.0" encoding="utf-8"?>
<!-- Generator: Adobe Illustrator 26.1.0, SVG Export Plug-In . SVG Version: 6.00 Build 0)  -->
<svg version="1.1" id="레이어_1" xmlns="http://www.w3.org/2000/svg" xmlns:xlink="http://www.w3.org/1999/xlink" x="0px"
	 y="0px" viewBox="0 0 856.87 206.39" style="enable-background:new 0 0 856.87 206.39;" xml:space="preserve">
<style type="text/css">
	.st0{fill:#FFFFFF;}
	.st1{fill:#FFD141;}
	.st2{fill:#F6CA46;}
	.st3{fill:#FABE00;}
</style>
<text transform="matrix(1 0 0 1.06 1176.5582 150.109)" style="font-family:'GmarketSansTTFBold'; font-size:70px; letter-spacing:-1;">티블을 선택하는 이유</text>
<text transform="matrix(0.9536 0 -0.342 0.9397 1322.5178 202.9368)" class="st1" style="font-family:'GmarketSansTTFBold'; font-size:60px;">Tble Point</text>
<g>
	<path class="st0" d="M1499.92,54.6c-11.55,0-20.9-9.36-20.9-20.9c0-9.33,6.12-17.24,14.56-19.92c-6.9-2.16-14.9-0.86-20.94,5.18
		c-13.16,13.16-3.84,35.66,14.77,35.66c0,4.84-1.27,8.66-4.18,12.53c6.89-2.23,13.09-6.76,17.6-12.57
		C1500.52,54.59,1500.22,54.6,1499.92,54.6z"/>
	<path class="st0" d="M1489.36,18.96c-13.16,13.16-3.84,35.66,14.77,35.66c0,4.84-1.27,8.66-4.18,12.53
		c13.96-4.51,25.07-18.46,25.07-33.42C1525.02,15.12,1502.52,5.8,1489.36,18.96z"/>
</g>
<text transform="matrix(1 0 0 1.06 1176.5582 -136.3257)" style="font-family:'GmarketSansTTFBold'; font-size:70px; letter-spacing:-1;">티블을 선택하는 이유</text>
<text transform="matrix(0.9536 0 -0.342 0.9397 1322.5178 -83.498)" class="st1" style="font-family:'GmarketSansTTFBold'; font-size:60px;">Tble Point</text>
<g>
	<path class="st0" d="M1499.92-231.83c-11.55,0-20.9-9.36-20.9-20.9c0-9.33,6.12-17.24,14.56-19.92c-6.9-2.16-14.9-0.86-20.94,5.18
		c-13.16,13.16-3.84,35.66,14.77,35.66c0,4.84-1.27,8.66-4.18,12.53c6.89-2.23,13.09-6.76,17.6-12.57
		C1500.52-231.84,1500.22-231.83,1499.92-231.83z"/>
	<path class="st0" d="M1489.36-267.48c-13.16,13.16-3.84,35.66,14.77,35.66c0,4.84-1.27,8.66-4.18,12.53
		c13.96-4.51,25.07-18.46,25.07-33.42C1525.02-271.32,1502.52-280.64,1489.36-267.48z"/>
</g>
<text transform="matrix(1 0 0 1.06 1176.5582 -375.8043)" style="font-family:'GmarketSansTTFBold'; font-size:70px; letter-spacing:-1;">티블을 선택하는 이유</text>
<text transform="matrix(0.9536 0 -0.342 0.9397 1322.5178 -322.9758)" class="st1" style="font-family:'GmarketSansTTFBold'; font-size:60px;">Tble Point</text>
<g>
	<path class="st0" d="M1499.92-471.31c-11.55,0-20.9-9.36-20.9-20.9c0-9.33,6.12-17.24,14.56-19.92c-6.9-2.16-14.9-0.86-20.94,5.18
		c-13.16,13.16-3.84,35.66,14.77,35.66c0,4.84-1.27,8.66-4.18,12.53c6.89-2.23,13.09-6.76,17.6-12.57
		C1500.52-471.32,1500.22-471.31,1499.92-471.31z"/>
	<path class="st0" d="M1489.36-506.96c-13.16,13.16-3.84,35.66,14.77,35.66c0,4.84-1.27,8.66-4.18,12.53
		c13.96-4.51,25.07-18.46,25.07-33.42C1525.02-510.8,1502.52-520.12,1489.36-506.96z"/>
</g>
<text transform="matrix(1 0 0 1.06 1176.5582 -622.326)" style="font-family:'GmarketSansTTFBold'; font-size:70px; letter-spacing:-1;">티블을 선택하는 이유</text>
<text transform="matrix(0.9536 0 -0.342 0.9397 1322.5178 -569.4977)" class="st1" style="font-family:'GmarketSansTTFBold'; font-size:60px;">Tble Point</text>
<g>
	<path class="st0" d="M1499.92-717.83c-11.55,0-20.9-9.36-20.9-20.9c0-9.33,6.12-17.24,14.56-19.92c-6.9-2.16-14.9-0.86-20.94,5.18
		c-13.16,13.16-3.84,35.66,14.77,35.66c0,4.84-1.27,8.66-4.18,12.53c6.89-2.23,13.09-6.76,17.6-12.57
		C1500.52-717.84,1500.22-717.83,1499.92-717.83z"/>
	<path class="st0" d="M1489.36-753.48c-13.16,13.16-3.84,35.66,14.77,35.66c0,4.84-1.27,8.66-4.18,12.53
		c13.96-4.51,25.07-18.46,25.07-33.42C1525.02-757.32,1502.52-766.64,1489.36-753.48z"/>
</g>
<text transform="matrix(1 0 0 1.06 110.6452 626.7174)" style="font-family:'GmarketSansTTFBold'; font-size:70px; letter-spacing:-1;">티블을 선택하는 이유</text>
<text transform="matrix(0.9536 0 -0.342 0.9397 256.6048 679.5458)" class="st1" style="font-family:'GmarketSansTTFBold'; font-size:60px;">Tble Point</text>
<g>
	<path class="st0" d="M434.01,531.21c-11.55,0-20.9-9.36-20.9-20.9c0-9.33,6.12-17.24,14.56-19.92c-6.9-2.16-14.9-0.86-20.94,5.18
		c-13.16,13.16-3.84,35.66,14.77,35.66c0,4.84-1.27,8.66-4.18,12.53c6.89-2.23,13.09-6.76,17.6-12.57
		C434.61,531.2,434.31,531.21,434.01,531.21z"/>
	<path class="st0" d="M423.44,495.56c-13.16,13.16-3.84,35.66,14.77,35.66c0,4.84-1.27,8.66-4.18,12.53
		c13.96-4.51,25.07-18.46,25.07-33.42C459.1,491.72,436.6,482.4,423.44,495.56z"/>
</g>
<text transform="matrix(1 0 0 1.06 110.645 391.9349)" style="font-family:'GmarketSansTTFBold'; font-size:70px; letter-spacing:-1;">티블을 선택하는 이유</text>
<text transform="matrix(0.9536 0 -0.342 0.9397 256.6049 444.7633)" class="st1" style="font-family:'GmarketSansTTFBold'; font-size:60px;">Tble Point</text>
<g>
	<path class="st0" d="M434.01,296.43c-11.55,0-20.9-9.36-20.9-20.9c0-9.33,6.12-17.24,14.56-19.92c-6.9-2.16-14.9-0.86-20.94,5.18
		c-13.16,13.16-3.84,35.66,14.77,35.66c0,4.84-1.27,8.66-4.18,12.53c6.89-2.23,13.09-6.76,17.6-12.57
		C434.61,296.42,434.31,296.43,434.01,296.43z"/>
	<path class="st0" d="M423.44,260.78c-13.16,13.16-3.84,35.66,14.77,35.66c0,4.84-1.27,8.66-4.18,12.53
		c13.96-4.51,25.07-18.46,25.07-33.42C459.1,256.94,436.6,247.62,423.44,260.78z"/>
</g>
<g>
	<path d="M84.61,123.51c-3.45,1.81-7.19,2.76-11.2,2.86v-10.76c3.59-0.35,6.62-1.68,9.06-4.01c2.45-2.32,4.02-5.17,4.73-8.53H74.11
		V92.76h13.16V86.3h12.04v6.46h13.16v8.31h6.16V87.41h11.83v43.7h-11.83V112.2h-7.84v-9.13H99.31c-0.23,1.53-0.54,2.85-0.91,3.93
		l16.03,9.72l-5.6,9.27l-15.4-9.65C91,119.32,88.06,121.71,84.61,123.51z M129.2,151.6l-26.32-9.13c-3.41,2.72-7.41,4.79-12.01,6.2
		c-4.6,1.41-9.42,2.11-14.45,2.11v-11.58c5.83,0,10.92-1.11,15.26-3.34c4.34-2.23,7.07-5.34,8.19-9.35l11.83,2.38
		c-0.37,1.43-0.96,2.99-1.75,4.67l23.03,6.9L129.2,151.6z"/>
	<path d="M181.13,122.66h-25.34v-9.87h8.26V102.7h11.69v10.09h5.6c3.08,0,6-0.19,8.75-0.56c2.75-0.37,4.99-0.95,6.72-1.74v9.87
		C193.5,121.89,188.27,122.66,181.13,122.66z M181.41,97.95h-23.38V87.86h35.14v21.82h-11.76V97.95z M205.6,128.82
		c4.69,2.18,7.04,5.42,7.04,9.72s-2.35,7.54-7.04,9.72c-4.69,2.18-11.3,3.26-19.84,3.26c-8.59,0-15.23-1.09-19.92-3.26
		c-4.69-2.18-7.04-5.42-7.04-9.72s2.35-7.54,7.04-9.72c4.69-2.18,11.33-3.26,19.92-3.26C194.29,125.55,200.91,126.64,205.6,128.82z
		 M196.53,141.32c2.43-0.67,3.64-1.59,3.64-2.78s-1.21-2.11-3.64-2.78c-2.43-0.67-6.02-1-10.78-1c-4.81,0-8.42,0.33-10.85,1
		c-2.43,0.67-3.64,1.59-3.64,2.78s1.21,2.12,3.64,2.78c2.43,0.67,6.04,1,10.85,1C190.51,142.32,194.11,141.99,196.53,141.32z
		 M218.93,98.62v11.58h-6.86v14.84h-11.83V87.41h11.83v11.21H218.93z"/>
	<path d="M281.86,136.83v11.72h-60.48v-11.72h19.46v-24.78h12.25v24.78H281.86z M266.25,100.55h-41.72V88.9h54.04v41.77h-12.32
		V100.55z"/>
	<path d="M347.45,138.02h-24.22v14.25h-12.04v-14.25h-24.22v-11.58h60.48V138.02z M316.58,111.46c-3.36,3.22-7.43,5.74-12.21,7.57
		c-4.78,1.83-9.83,2.77-15.16,2.82v-11.43c4.71-0.1,9.08-1.12,13.09-3.08c4.01-1.95,6.88-4.56,8.61-7.83h-20.65V88.16h53.9v11.35
		H324c-0.19,0.69-0.49,1.56-0.91,2.6l23.52,9.42l-4.48,10.39L316.58,111.46z"/>
	<path d="M386.23,136.83c2.43,0,4.91-0.19,7.46-0.56c2.54-0.37,4.7-0.9,6.48-1.6v10.83c-1.68,0.74-3.92,1.31-6.72,1.71
		c-2.8,0.4-5.55,0.59-8.26,0.59h-13.72V88.9h26.11v10.98h-14.7v36.95H386.23z M429.91,87.41v63.37h-11.06v-28.2h-4.97v27.08h-10.92
		V87.71h10.92v23h4.97v-23.3H429.91z"/>
	<path d="M447.9,118.43c-3.64,2.13-7.61,3.32-11.9,3.56v-11.2c3.13-0.39,5.87-1.62,8.22-3.67c2.36-2.05,4.21-4.76,5.57-8.12
		c1.35-3.36,2.05-7.12,2.1-11.28l11.9,0.74c0,4.16-0.63,8.14-1.89,11.95l16.24,10.91l-6.02,9.05l-14.98-10.46
		C454.62,113.46,451.54,116.3,447.9,118.43z M485.35,126.56c4.9,2.25,7.35,5.85,7.35,10.8c0,4.95-2.45,8.54-7.35,10.8
		c-4.9,2.25-11.43,3.38-19.6,3.38c-8.17,0-14.7-1.13-19.6-3.38c-4.9-2.25-7.35-5.85-7.35-10.8c0-4.95,2.45-8.54,7.35-10.8
		c4.9-2.25,11.43-3.38,19.6-3.38C473.92,123.18,480.45,124.31,485.35,126.56z M476.08,140.51c2.59-0.67,3.89-1.72,3.89-3.15
		c0-1.38-1.31-2.42-3.92-3.12c-2.61-0.69-6.04-1.04-10.29-1.04c-4.25,0-7.68,0.35-10.29,1.04c-2.61,0.69-3.92,1.73-3.92,3.12
		c0,1.44,1.29,2.49,3.88,3.15c2.59,0.67,6.03,1,10.33,1C470.04,141.51,473.49,141.17,476.08,140.51z M499.14,97.14v11.95h-7v13.21
		h-11.83V87.41h11.83v9.72H499.14z"/>
	<path d="M579.92,136.83v11.72h-60.48v-11.72H579.92z M577.19,128.37h-55.02v-11.5h9.1v-16.4h-8.47V88.9h53.76v11.58h-8.47v16.4h9.1
		V128.37z M543.17,116.87h13.02v-16.4h-13.02V116.87z"/>
	<path d="M645.51,137.13v11.43h-60.48v-11.43h24.22v-7.12h-20.86v-25.82h42.14v-4.3h-42.28V88.9h53.97v25.75h-42.14v4.38h42.84
		v10.98h-21.63v7.12H645.51z"/>
	<path d="M711.1,136.83v11.72h-60.48v-11.72h24.22v-10.24h-20.93V88.9h53.9v37.69h-20.93v10.24H711.1z M665.67,114.94h30.38v-14.32
		h-30.38V114.94z"/>
	<path d="M727.48,123.18c-3.5,2.33-7.3,3.61-11.41,3.86v-11.65c3.03-0.4,5.73-1.88,8.08-4.45c2.36-2.57,4.19-5.9,5.5-9.98
		c1.31-4.08,2.01-8.5,2.1-13.25l11.9,0.74c0,5.24-0.79,10.34-2.38,15.29l11.83,10.09v-8.61h9.59v-3.71h-9.59V91.27h9.59v-3.86h11.62
		v46.97h-11.62v-18.92h-7.63l2.87,2.45l-7.28,8.53l-14.14-12.61C733.99,117.74,730.98,120.86,727.48,123.18z M775.15,139.58v11.2
		h-54.32v-21.59h12.04v10.39H775.15z"/>
</g>
<g>
	<path class="st1" d="M237.63,164.1h-15.16l-13.42,36.87h-10.41l13.42-36.87h-15.16l3.3-9.08h40.74L237.63,164.1z"/>
	<path class="st1" d="M246.76,153.61h10.18l-6.44,17.7c3.11-2.78,6.74-4.17,10.9-4.17c2.59,0,4.67,0.59,6.22,1.78
		c1.55,1.18,2.47,2.88,2.75,5.1c0.28,2.22-0.13,4.83-1.22,7.84l-6.96,19.11h-10.18l6.34-17.42c0.92-2.52,1.11-4.45,0.59-5.78
		c-0.53-1.33-1.74-2-3.65-2c-1.98,0-3.81,0.73-5.49,2.2c-1.68,1.47-2.98,3.48-3.91,6.03l-6.18,16.97h-10.18L246.76,153.61z"/>
	<path class="st1" d="M276.31,199.53c-2.11-1.49-3.43-3.54-3.96-6.17c-0.53-2.63-0.19-5.6,1.01-8.91c1.2-3.31,3.03-6.28,5.47-8.91
		c2.44-2.63,5.26-4.69,8.46-6.17c3.19-1.48,6.46-2.23,9.82-2.23s6.09,0.74,8.2,2.23c2.11,1.49,3.43,3.54,3.96,6.17
		c0.53,2.63,0.19,5.6-1.01,8.91c-0.4,1.09-0.86,2.16-1.4,3.21h-24.54c-0.32,1.92-0.02,3.4,0.9,4.45c0.91,1.05,2.32,1.58,4.23,1.58
		c1.45,0,2.82-0.23,4.12-0.7c1.3-0.47,2.3-1.1,3-1.89h10.24c-1.34,2.1-3.08,3.96-5.22,5.55c-2.15,1.6-4.53,2.85-7.14,3.75
		c-2.62,0.9-5.26,1.35-7.93,1.35C281.15,201.76,278.42,201.01,276.31,199.53z M299.49,181.18c0.3-1.99,0-3.5-0.92-4.54
		c-0.92-1.03-2.37-1.55-4.36-1.55s-3.79,0.52-5.43,1.55c-1.64,1.03-3.02,2.55-4.17,4.54H299.49z"/>
	<path class="st1" d="M341.28,155.02h17.91c4,0,7.19,0.7,9.57,2.09c2.37,1.39,3.86,3.35,4.47,5.86c0.61,2.52,0.3,5.47-0.93,8.85
		c-1.25,3.42-3.09,6.4-5.54,8.94c-2.45,2.54-5.37,4.5-8.75,5.89c-3.39,1.39-7.08,2.08-11.09,2.08h-7.5l-4.45,12.24h-10.41
		L341.28,155.02z M349.77,179.66c2.94,0,5.46-0.68,7.58-2.03c2.11-1.35,3.63-3.29,4.54-5.81c0.92-2.52,0.8-4.44-0.34-5.75
		s-3.18-1.97-6.12-1.97h-7.04l-5.66,15.56H349.77z"/>
	<path class="st1" d="M379.04,167.93h10.18l-1.23,3.38c3.11-2.78,6.74-4.17,10.9-4.17c1.83,0,3.23,0.19,4.2,0.56l-3.31,9.42
		c-1.18-0.75-2.78-1.13-4.8-1.13c-2.71,0-5.09,0.71-7.16,2.14c-2.07,1.43-3.56,3.4-4.47,5.92l-6.16,16.91h-10.18L379.04,167.93z"/>
	<path class="st1" d="M431.5,169.37c2.17,1.49,3.54,3.54,4.1,6.17c0.57,2.63,0.25,5.6-0.95,8.91c-1.2,3.31-3.05,6.28-5.53,8.91
		c-2.48,2.63-5.35,4.69-8.6,6.17c-3.25,1.48-6.57,2.23-9.96,2.23c-3.4,0-6.18-0.74-8.34-2.23c-2.17-1.49-3.54-3.54-4.1-6.17
		c-0.57-2.63-0.25-5.6,0.95-8.91c1.2-3.31,3.05-6.28,5.53-8.91c2.48-2.63,5.35-4.69,8.6-6.17c3.25-1.48,6.57-2.23,9.96-2.23
		C426.55,167.14,429.33,167.88,431.5,169.37z M413.39,178.16c-2.06,1.64-3.56,3.73-4.49,6.29c-0.93,2.56-0.96,4.65-0.08,6.29
		c0.87,1.63,2.49,2.45,4.86,2.45c2.36,0,4.58-0.82,6.64-2.45c2.06-1.64,3.56-3.73,4.49-6.29c0.93-2.56,0.96-4.65,0.08-6.29
		c-0.87-1.63-2.49-2.45-4.86-2.45C417.67,175.71,415.45,176.53,413.39,178.16z"/>
	<path class="st1" d="M446.61,167.93h10.18l-1.15,3.16c1.52-1.35,3.06-2.35,4.61-2.99c1.55-0.64,3.24-0.96,5.07-0.96
		c2.1,0,3.86,0.4,5.28,1.21c1.42,0.81,2.41,1.98,2.95,3.52c1.83-1.58,3.81-2.76,5.93-3.55s4.44-1.18,6.95-1.18
		c2.55,0,4.59,0.59,6.11,1.78c1.51,1.18,2.4,2.88,2.66,5.1c0.26,2.22-0.16,4.83-1.25,7.84l-6.96,19.11h-10.18l6.34-17.42
		c0.92-2.52,1.14-4.45,0.67-5.78c-0.47-1.33-1.64-2-3.51-2c-1.64,0-3.13,0.62-4.48,1.86c-1.35,1.24-2.49,3.04-3.43,5.41l-6.53,17.93
		H455.7l6.34-17.42c0.92-2.52,1.14-4.45,0.67-5.78c-0.47-1.33-1.64-2-3.51-2c-1.64,0-3.13,0.62-4.48,1.86
		c-1.35,1.24-2.49,3.04-3.43,5.41l-6.53,17.93h-10.18L446.61,167.93z"/>
	<path class="st1" d="M530.59,169.37c2.17,1.49,3.54,3.54,4.1,6.17c0.57,2.63,0.25,5.6-0.95,8.91c-1.2,3.31-3.05,6.28-5.53,8.91
		c-2.48,2.63-5.35,4.69-8.6,6.17c-3.25,1.48-6.57,2.23-9.96,2.23c-3.4,0-6.18-0.74-8.34-2.23c-2.17-1.49-3.54-3.54-4.1-6.17
		c-0.57-2.63-0.25-5.6,0.95-8.91c1.2-3.31,3.05-6.28,5.53-8.91c2.48-2.63,5.35-4.69,8.6-6.17c3.25-1.48,6.57-2.23,9.96-2.23
		C525.64,167.14,528.42,167.88,530.59,169.37z M512.49,178.16c-2.06,1.64-3.56,3.73-4.49,6.29c-0.93,2.56-0.96,4.65-0.08,6.29
		c0.87,1.63,2.49,2.45,4.86,2.45c2.36,0,4.58-0.82,6.64-2.45c2.06-1.64,3.56-3.73,4.49-6.29c0.93-2.56,0.96-4.65,0.08-6.29
		c-0.87-1.63-2.49-2.45-4.86-2.45C516.76,175.71,514.55,176.53,512.49,178.16z"/>
	<path class="st1" d="M562.36,176.56h-6.64l-8.89,24.41h-10.18l8.89-24.41h-6.64l3.14-8.63h6.64l3.57-9.81h10.18l-3.57,9.81h6.64
		L562.36,176.56z"/>
	<path class="st1" d="M568.37,201.08h-10.18l12.07-33.15h10.18L568.37,201.08z M584.98,153.72c0.76,1.17,0.82,2.63,0.17,4.4
		c-0.64,1.77-1.77,3.23-3.37,4.4c-1.61,1.17-3.31,1.75-5.1,1.75c-1.79,0-3.07-0.58-3.83-1.75c-0.76-1.17-0.82-2.63-0.17-4.4
		c0.64-1.77,1.77-3.23,3.37-4.4c1.61-1.16,3.31-1.75,5.1-1.75C582.94,151.97,584.22,152.56,584.98,153.72z"/>
	<path class="st1" d="M612.81,169.37c2.17,1.49,3.54,3.54,4.1,6.17c0.57,2.63,0.25,5.6-0.95,8.91c-1.2,3.31-3.05,6.28-5.53,8.91
		c-2.48,2.63-5.35,4.69-8.6,6.17c-3.25,1.48-6.57,2.23-9.96,2.23c-3.4,0-6.18-0.74-8.34-2.23c-2.17-1.49-3.54-3.54-4.1-6.17
		c-0.57-2.63-0.25-5.6,0.95-8.91c1.2-3.31,3.05-6.28,5.53-8.91c2.48-2.63,5.35-4.69,8.6-6.17c3.25-1.48,6.57-2.23,9.96-2.23
		C607.86,167.14,610.64,167.88,612.81,169.37z M594.71,178.16c-2.06,1.64-3.56,3.73-4.49,6.29c-0.93,2.56-0.96,4.65-0.08,6.29
		c0.87,1.63,2.49,2.45,4.86,2.45c2.36,0,4.58-0.82,6.64-2.45c2.06-1.64,3.56-3.73,4.49-6.29c0.93-2.56,0.96-4.65,0.08-6.29
		c-0.87-1.63-2.49-2.45-4.86-2.45C598.98,175.71,596.77,176.53,594.71,178.16z"/>
	<path class="st1" d="M627.92,167.93h10.18l-1.23,3.38c3.11-2.78,6.74-4.17,10.9-4.17c2.59,0,4.67,0.59,6.22,1.78
		c1.55,1.18,2.47,2.88,2.75,5.1c0.28,2.22-0.13,4.83-1.22,7.84l-6.96,19.11h-10.18l6.34-17.42c0.92-2.52,1.11-4.45,0.59-5.78
		c-0.53-1.33-1.74-2-3.65-2c-1.98,0-3.81,0.73-5.49,2.2c-1.68,1.47-2.98,3.48-3.91,6.03l-6.18,16.97H615.9L627.92,167.93z"/>
</g>
<g>
	<g>
		<path class="st2" d="M434.01,47.56c-11.55,0-20.9-9.36-20.9-20.9c0-9.33,6.12-17.24,14.56-19.92c-6.9-2.16-14.9-0.86-20.94,5.18
			c-13.16,13.16-3.84,35.66,14.77,35.66c0,4.84-1.27,8.66-4.18,12.53c6.89-2.23,13.09-6.76,17.6-12.57
			C434.61,47.55,434.31,47.56,434.01,47.56z"/>
	</g>
	<g>
		<path class="st2" d="M423.44,11.91c-13.16,13.16-3.84,35.66,14.77,35.66c0,4.84-1.27,8.66-4.18,12.53
			C448,55.6,459.1,41.65,459.1,26.68C459.1,8.07,436.6-1.25,423.44,11.91z"/>
	</g>
</g>
<text transform="matrix(1 0 0 1.06 110.645 -103.4566)" style="font-family:'GmarketSansTTFBold'; font-size:70px; letter-spacing:-1;">티블을 선택하는 이유</text>
<text transform="matrix(0.9536 0 -0.342 0.9397 256.6049 -50.6282)" class="st1" style="font-family:'GmarketSansTTFBold'; font-size:60px;">Tble Point</text>
<g>
	<path class="st0" d="M434.01-198.96c-11.55,0-20.9-9.36-20.9-20.9c0-9.33,6.12-17.24,14.56-19.92c-6.9-2.16-14.9-0.86-20.94,5.18
		c-13.16,13.16-3.84,35.66,14.77,35.66c0,4.84-1.27,8.66-4.18,12.53c6.89-2.23,13.09-6.76,17.6-12.57
		C434.61-198.97,434.31-198.96,434.01-198.96z"/>
	<path class="st0" d="M423.44-234.61c-13.16,13.16-3.84,35.66,14.77,35.66c0,4.84-1.27,8.66-4.18,12.53
		c13.96-4.51,25.07-18.46,25.07-33.42C459.1-238.45,436.6-247.77,423.44-234.61z"/>
</g>
<g>
	<path class="st0" d="M181.13-375.08h-25.34v-9.87h8.26v-10.09h11.69v10.09h5.6c3.08,0,6-0.19,8.75-0.56
		c2.75-0.37,4.99-0.95,6.72-1.74v9.87C193.5-375.85,188.27-375.08,181.13-375.08z M181.41-399.79h-23.38v-10.09h35.14v21.82h-11.76
		V-399.79z M205.6-368.92c4.69,2.18,7.04,5.42,7.04,9.72s-2.35,7.54-7.04,9.72c-4.69,2.18-11.3,3.26-19.84,3.26
		c-8.59,0-15.23-1.09-19.92-3.26c-4.69-2.18-7.04-5.42-7.04-9.72s2.35-7.54,7.04-9.72s11.33-3.26,19.92-3.26
		C194.29-372.18,200.91-371.1,205.6-368.92z M196.53-356.42c2.43-0.67,3.64-1.59,3.64-2.78s-1.21-2.11-3.64-2.78
		c-2.43-0.67-6.02-1-10.78-1c-4.81,0-8.42,0.33-10.85,1c-2.43,0.67-3.64,1.59-3.64,2.78s1.21,2.12,3.64,2.78
		c2.43,0.67,6.04,1,10.85,1C190.51-355.42,194.11-355.75,196.53-356.42z M218.93-399.12v11.58h-6.86v14.84h-11.83v-37.62h11.83
		v11.21H218.93z"/>
	<path class="st0" d="M281.86-360.91v11.72h-60.48v-11.72h19.46v-24.78h12.25v24.78H281.86z M266.25-397.19h-41.72v-11.65h54.04
		v41.77h-12.32V-397.19z"/>
	<path class="st0" d="M347.45-379.75v10.31h-24.29v8.61h-11.9v-8.61h-24.29v-10.31H347.45z M302.51-357.35h42.14v10.39h-54.18
		v-18.77h12.04V-357.35z M343.81-383.46h-53.2v-26.86h53.2V-383.46z M332.05-400.46h-29.68v7.12h29.68V-400.46z"/>
	<path class="st0" d="M388.26-350.63c-2.89,0.47-5.88,0.71-8.96,0.71h-26.74v-11.72h27.23c2.99,0,5.87-0.21,8.65-0.63
		c2.78-0.42,5.05-1.05,6.82-1.89v11.58C393.49-351.76,391.16-351.1,388.26-350.63z M383.12-407.32c2.87,1.71,5.12,4.12,6.76,7.23
		c1.63,3.12,2.45,6.7,2.45,10.76c0,4.06-0.82,7.64-2.45,10.76c-1.63,3.12-3.89,5.53-6.76,7.23c-2.87,1.71-6.15,2.56-9.83,2.56
		c-3.69,0-6.98-0.85-9.87-2.56c-2.89-1.71-5.16-4.12-6.79-7.23c-1.63-3.12-2.45-6.7-2.45-10.76c0-4.06,0.82-7.64,2.45-10.76
		c1.63-3.12,3.9-5.53,6.79-7.23c2.89-1.71,6.18-2.56,9.87-2.56C376.97-409.88,380.25-409.03,383.12-407.32z M367.68-396.04
		c-1.4,1.76-2.1,4-2.1,6.71c0,2.77,0.7,5.02,2.1,6.75c1.4,1.73,3.27,2.6,5.6,2.6c2.33,0,4.2-0.88,5.6-2.63
		c1.4-1.75,2.1-3.99,2.1-6.71c0-2.72-0.7-4.96-2.1-6.71s-3.27-2.63-5.6-2.63C370.95-398.68,369.08-397.8,367.68-396.04z
		 M410.52-346.96h-11.83v-63.37h11.83V-346.96z"/>
	<path class="st0" d="M448.32-375.75c-3.59,2.28-7.44,3.51-11.55,3.71v-11.65c3.08-0.4,5.84-1.79,8.29-4.19
		c2.45-2.4,4.38-5.54,5.77-9.42c1.4-3.88,2.12-8.12,2.17-12.73l11.9,0.74c0,5.05-0.79,9.89-2.38,14.54l17.22,12.91l-6.93,8.9
		l-15.19-11.95C455.02-381.06,451.91-378.02,448.32-375.75z M494.66-358.24v11.28h-54.32v-22.19h12.04v10.91H494.66z M493.82-363.43
		h-11.83v-46.89h11.83V-363.43z"/>
	<path class="st0" d="M513.53-375.93c-3.34,1.76-6.97,2.68-10.89,2.78v-10.54c3.41-0.3,6.3-1.55,8.68-3.75
		c2.38-2.2,4.01-4.88,4.9-8.05h-12.88v-10.09h13.16v-5.86h12.04v5.86h13.16v7.27h6.16v-12.02h11.83v37.62h-11.83v-14.47h-7.84v-8.31
		h-11.69c-0.37,1.58-0.7,2.75-0.98,3.49l16.1,9.2l-5.32,9.2l-15.96-9.35C519.74-380.02,516.86-377.69,513.53-375.93z M552.87-368.88
		c4.92,2,7.38,5.28,7.38,9.83s-2.46,7.83-7.38,9.83c-4.92,2-11.56,3-19.92,3c-8.35,0-14.99-1-19.92-3c-4.92-2-7.38-5.28-7.38-9.83
		s2.46-7.83,7.38-9.83c4.92-2,11.56-3.01,19.92-3.01C541.3-371.89,547.94-370.89,552.87-368.88z M543.66-356.53
		c2.61-0.49,3.92-1.33,3.92-2.52c0-2.18-4.88-3.26-14.63-3.26c-9.75,0-14.63,1.09-14.63,3.26c0,1.19,1.31,2.03,3.92,2.52
		c2.61,0.5,6.18,0.74,10.71,0.74C537.48-355.79,541.05-356.03,543.66-356.53z"/>
	<path class="st0" d="M593.92-402.68h13.3v11.43h-38.78v-11.43h13.37v-7.87h12.11V-402.68z M597.04-386.1
		c2.64,1.71,4.65,4.06,6.05,7.05c1.4,2.99,2.1,6.37,2.1,10.13c0,3.76-0.7,7.14-2.1,10.13c-1.4,2.99-3.42,5.34-6.05,7.05
		c-2.64,1.71-5.71,2.56-9.21,2.56s-6.57-0.85-9.21-2.56c-2.64-1.71-4.65-4.06-6.06-7.05c-1.4-2.99-2.1-6.37-2.1-10.13
		c0-3.76,0.7-7.13,2.1-10.13c1.4-2.99,3.42-5.34,6.06-7.05c2.64-1.71,5.71-2.56,9.21-2.56S594.4-387.8,597.04-386.1z M592.31-362.39
		c1.07-1.63,1.61-3.81,1.61-6.53c0-2.72-0.54-4.9-1.61-6.53c-1.07-1.63-2.57-2.45-4.48-2.45c-1.91,0-3.41,0.82-4.48,2.45
		c-1.07,1.63-1.61,3.81-1.61,6.53c0,2.72,0.54,4.9,1.61,6.53c1.07,1.63,2.57,2.45,4.48,2.45
		C589.74-359.94,591.24-360.76,592.31-362.39z M630.32-375.01h-7v28.05h-11.83v-63.37h11.83v23.15h7V-375.01z"/>
	<path class="st0" d="M669.52-391.7c0,8.51-1.41,15.9-4.24,22.19c-2.82,6.28-6.82,11.12-12,14.51s-11.25,5.08-18.2,5.08v-11.87
		c7.14-0.05,12.65-2.72,16.52-8.01c3.87-5.29,5.81-12.59,5.81-21.89v-5.71h-22.33v-11.43h34.44V-391.7z M690.59-346.96h-11.83
		v-63.37h11.83V-346.96z"/>
</g>
<g>
	<path class="st1" d="M255.4-298.77c-3.04-2.09-4.96-4.96-5.79-8.63c-0.82-3.66-0.4-7.79,1.27-12.38c1.67-4.58,4.25-8.71,7.74-12.38
		c3.49-3.67,7.51-6.54,12.07-8.63c4.55-2.09,9.2-3.13,13.93-3.13c4.16,0,7.61,0.75,10.36,2.25c2.75,1.5,4.68,3.57,5.78,6.2
		s1.38,5.58,0.84,8.85h-10.53c0.25-2.25-0.49-4.13-2.21-5.64c-1.72-1.5-4.2-2.26-7.45-2.26c-2.78,0-5.53,0.63-8.24,1.89
		c-2.71,1.26-5.11,3.01-7.2,5.24c-2.09,2.24-3.65,4.76-4.68,7.58c-1.01,2.78-1.29,5.3-0.83,7.56c0.46,2.25,1.58,4.01,3.37,5.27
		c1.79,1.26,4.08,1.89,6.87,1.89c2.14,0,4.3-0.41,6.49-1.24c2.19-0.83,4.14-1.9,5.86-3.21s2.96-2.67,3.74-4.06h10.53
		c-1.63,3.12-4.02,6.05-7.15,8.8c-3.14,2.74-6.73,4.95-10.79,6.62c-4.06,1.67-8.17,2.51-12.33,2.51
		C262.32-295.64,258.44-296.69,255.4-298.77z"/>
	<path class="st1" d="M333.66-328.37c2.17,1.49,3.54,3.54,4.1,6.17c0.57,2.63,0.25,5.6-0.95,8.91c-1.2,3.31-3.05,6.28-5.53,8.91
		c-2.48,2.63-5.35,4.69-8.6,6.17c-3.25,1.48-6.57,2.23-9.96,2.23c-3.4,0-6.18-0.74-8.34-2.23c-2.17-1.49-3.54-3.54-4.1-6.17
		c-0.57-2.63-0.25-5.6,0.95-8.91c1.2-3.31,3.05-6.28,5.53-8.91c2.48-2.63,5.35-4.69,8.6-6.17c3.25-1.48,6.57-2.23,9.96-2.23
		C328.71-330.6,331.49-329.86,333.66-328.37z M315.55-319.58c-2.06,1.64-3.56,3.73-4.49,6.29c-0.93,2.56-0.96,4.65-0.08,6.29
		c0.87,1.63,2.49,2.45,4.86,2.45c2.36,0,4.58-0.82,6.64-2.45c2.06-1.64,3.56-3.73,4.49-6.29c0.93-2.56,0.96-4.65,0.08-6.29
		c-0.87-1.63-2.49-2.45-4.86-2.45C319.83-322.03,317.62-321.21,315.55-319.58z"/>
	<path class="st1" d="M348.77-329.81h10.18l-1.23,3.38c3.11-2.78,6.74-4.17,10.9-4.17c2.59,0,4.67,0.59,6.22,1.78
		c1.55,1.18,2.47,2.88,2.75,5.1c0.28,2.22-0.13,4.83-1.22,7.84l-6.96,19.11h-10.18l6.34-17.42c0.92-2.52,1.11-4.45,0.59-5.78
		c-0.53-1.33-1.74-2-3.65-2c-1.98,0-3.81,0.73-5.49,2.2c-1.68,1.47-2.98,3.48-3.91,6.03l-6.18,16.97h-10.18L348.77-329.81z"/>
	<path class="st1" d="M405.19-321.18h-6.64l-8.89,24.41h-10.18l8.89-24.41h-6.64l3.14-8.63h6.64l3.57-9.81h10.18l-3.57,9.81h6.64
		L405.19-321.18z"/>
	<path class="st1" d="M406.96-298.21c-1.94-1.49-3.12-3.54-3.53-6.17c-0.42-2.63-0.02-5.6,1.18-8.91c1.2-3.31,2.97-6.28,5.3-8.91
		c2.33-2.63,5.01-4.69,8.03-6.17c3.02-1.48,6.11-2.23,9.28-2.23c4.31,0,7.01,1.39,8.09,4.17l1.23-3.38h10.18l-12.03,33.04h-10.18
		l1.23-3.38c-3.11,2.78-6.82,4.17-11.13,4.17C411.45-295.98,408.9-296.72,406.96-298.21z M426.18-307c2.08-1.64,3.59-3.73,4.52-6.29
		c0.93-2.56,0.95-4.65,0.06-6.29c-0.89-1.63-2.58-2.45-5.06-2.45c-2.4,0-4.63,0.82-6.67,2.45c-2.05,1.64-3.53,3.73-4.46,6.29
		c-0.93,2.56-0.97,4.65-0.11,6.29c0.85,1.63,2.48,2.45,4.89,2.45C421.82-304.55,424.1-305.37,426.18-307z"/>
	<path class="st1" d="M470.29-299.45c-3.85,2.31-7.9,3.47-12.13,3.47c-3.4,0-6.18-0.74-8.34-2.23c-2.17-1.49-3.54-3.54-4.1-6.17
		c-0.57-2.63-0.25-5.6,0.95-8.91c1.2-3.31,3.05-6.28,5.53-8.91c2.48-2.63,5.35-4.69,8.6-6.17c3.25-1.48,6.57-2.23,9.96-2.23
		c2.86,0,5.27,0.55,7.23,1.66c1.96,1.11,3.36,2.62,4.18,4.54c0.83,1.92,1.01,4.04,0.54,6.37h-10.3c0-1.16-0.41-2.09-1.24-2.79
		c-0.83-0.7-2.03-1.04-3.6-1.04c-2.37,0-4.55,0.8-6.57,2.4c-2.01,1.6-3.48,3.66-4.39,6.17s-0.95,4.58-0.1,6.17
		c0.85,1.6,2.46,2.4,4.82,2.4c1.56,0,3.04-0.36,4.42-1.07c1.38-0.71,2.53-1.67,3.42-2.88h10.3
		C477.21-304.83,474.14-301.76,470.29-299.45z"/>
	<path class="st1" d="M509.33-321.18h-6.64l-8.89,24.41h-10.18l8.89-24.41h-6.64l3.14-8.63h6.64l3.57-9.81h10.18l-3.57,9.81h6.64
		L509.33-321.18z"/>
	<path class="st1" d="M527.29-297.76c-1.55-1.18-2.47-2.88-2.75-5.1c-0.28-2.22,0.13-4.83,1.22-7.84l6.96-19.11h10.18l-6.34,17.42
		c-0.92,2.52-1.11,4.45-0.59,5.78c0.52,1.33,1.74,2,3.65,2c1.98,0,3.81-0.73,5.49-2.2c1.68-1.47,2.98-3.48,3.91-6.03l6.18-16.97
		h10.18l-12.03,33.04h-10.18l1.23-3.38c-3.11,2.78-6.74,4.17-10.9,4.17C530.91-295.98,528.84-296.57,527.29-297.76z"/>
	<path class="st1" d="M594.49-329.27c1.97,0.88,3.34,2.13,4.13,3.75c0.79,1.62,0.84,3.5,0.18,5.64h-9.84
		c0.22-1.02-0.09-1.81-0.93-2.4c-0.84-0.58-2.02-0.87-3.54-0.87c-1.53,0-2.88,0.24-4.06,0.71c-1.18,0.47-1.91,1.08-2.18,1.83
		c-0.29,0.79,0.07,1.43,1.08,1.92c1,0.49,2.89,0.96,5.67,1.41c4.58,0.71,7.6,1.9,9.06,3.55c1.46,1.65,1.66,3.93,0.61,6.82
		c-0.79,2.18-2.2,4.1-4.21,5.75c-2.01,1.65-4.39,2.93-7.12,3.83c-2.73,0.9-5.53,1.35-8.39,1.35c-2.9,0-5.35-0.46-7.36-1.38
		c-2.01-0.92-3.4-2.23-4.18-3.92c-0.78-1.69-0.81-3.66-0.1-5.92h9.84c-0.23,1.05,0.11,1.91,1.01,2.57c0.91,0.66,2.16,0.99,3.76,0.99
		c1.64,0,3.09-0.26,4.35-0.79c1.26-0.53,2.03-1.16,2.3-1.92c0.29-0.79-0.1-1.46-1.16-2s-2.95-1.02-5.66-1.44
		c-4.15-0.64-7.07-1.73-8.74-3.27c-1.67-1.54-1.93-3.89-0.78-7.05c0.77-2.1,2.11-3.95,4.04-5.52c1.93-1.58,4.21-2.8,6.86-3.67
		c2.64-0.86,5.39-1.3,8.25-1.3C590.14-330.6,592.52-330.16,594.49-329.27z"/>
</g>
<g>
	<g>
		<path class="st2" d="M434.01-450.18c-11.55,0-20.9-9.36-20.9-20.9c0-9.33,6.12-17.24,14.56-19.92c-6.9-2.16-14.9-0.86-20.94,5.18
			c-13.16,13.16-3.84,35.66,14.77,35.66c0,4.84-1.27,8.66-4.18,12.53c6.89-2.23,13.09-6.76,17.6-12.57
			C434.61-450.19,434.31-450.18,434.01-450.18z"/>
	</g>
	<g>
		<path class="st2" d="M423.44-485.83c-13.16,13.16-3.84,35.66,14.77,35.66c0,4.84-1.27,8.66-4.18,12.53
			c13.96-4.51,25.07-18.46,25.07-33.42C459.1-489.67,436.6-498.99,423.44-485.83z"/>
	</g>
</g>
<g>
	<path d="M196.11-672.11h-40.88v-9.2h14.42v-4.82h12.04v4.82h14.42V-672.11z M162.69-650.33c-3.48-2.05-5.22-4.91-5.22-8.57
		c0-3.66,1.74-6.52,5.22-8.57c3.48-2.05,7.8-3.08,12.98-3.08s9.51,1.03,12.98,3.08c3.48,2.05,5.21,4.91,5.21,8.57
		c0,3.66-1.74,6.52-5.21,8.57c-3.48,2.05-7.8,3.08-12.98,3.08S166.17-648.28,162.69-650.33z M159.15-645.25h52.78v23.6h-52.78
		V-645.25z M170.53-661.05c-1.28,0.54-1.92,1.26-1.92,2.15c0,0.89,0.64,1.61,1.92,2.15c1.28,0.54,3,0.82,5.15,0.82
		c2.15,0,3.86-0.27,5.15-0.82c1.28-0.54,1.92-1.26,1.92-2.15c0-0.89-0.64-1.61-1.92-2.15c-1.28-0.54-3-0.82-5.15-0.82
		C173.53-661.87,171.81-661.6,170.53-661.05z M170.84-631.22h29.4v-4.45h-29.4V-631.22z M218.93-660.31h-7v12.84H200.1v-37.55h11.83
		v12.84h7V-660.31z"/>
	<path d="M236.78-666.39c0,9.1-0.49,16.45-1.47,22.04c-0.98,5.59-2.58,9.81-4.79,12.65c-2.22,2.84-5.21,4.46-9,4.86v-10.54
		c1.4-0.35,2.49-1.54,3.26-3.6c0.77-2.05,1.32-5.02,1.65-8.9c0.33-3.88,0.49-8.99,0.49-15.32v-8.16h-5.39v-10.17h15.26V-666.39z
		 M257.57-684.72h10.08v61.96h-10.08v-27.75h-4.76c-0.75,8.61-2.4,14.94-4.97,19c-2.57,4.05-6.3,6.36-11.2,6.9v-10.54
		c2.33-0.64,4.04-3.26,5.11-7.86c1.07-4.6,1.61-11.8,1.61-21.59v-8.76h-4.48v-10.17h14.56v17.66v3.78h4.13V-684.72z M281.23-685.02
		v63.37h-10.22v-63.37H281.23z"/>
	<path d="M313.71-677.38h13.3v11.43h-38.78v-11.43h13.37v-7.87h12.11V-677.38z M316.83-660.79c2.64,1.71,4.65,4.06,6.05,7.05
		c1.4,2.99,2.1,6.37,2.1,10.13c0,3.76-0.7,7.14-2.1,10.13c-1.4,2.99-3.42,5.34-6.05,7.05c-2.64,1.71-5.71,2.56-9.21,2.56
		s-6.57-0.85-9.21-2.56c-2.64-1.71-4.65-4.06-6.06-7.05c-1.4-2.99-2.1-6.37-2.1-10.13c0-3.76,0.7-7.13,2.1-10.13
		c1.4-2.99,3.42-5.34,6.06-7.05c2.64-1.71,5.71-2.56,9.21-2.56S314.19-662.5,316.83-660.79z M312.1-637.09
		c1.07-1.63,1.61-3.81,1.61-6.53c0-2.72-0.54-4.9-1.61-6.53c-1.07-1.63-2.57-2.45-4.48-2.45c-1.91,0-3.41,0.82-4.48,2.45
		c-1.07,1.63-1.61,3.81-1.61,6.53c0,2.72,0.54,4.9,1.61,6.53c1.07,1.63,2.57,2.45,4.48,2.45
		C309.54-634.64,311.03-635.45,312.1-637.09z M350.11-649.7h-7v28.05h-11.83v-63.37h11.83v23.15h7V-649.7z"/>
	<path d="M413.04-644.8h-60.48v-10.46h60.48V-644.8z M368.1-632.11h42.14v10.46h-54.18v-19.66h12.04V-632.11z M368.1-670.03h41.86
		v10.39H356.2v-25.75h11.9V-670.03z"/>
	<path d="M470.79-636.79c2.89-0.59,5.13-1.29,6.72-2.08v11.21c-1.77,0.94-4.14,1.68-7.1,2.23c-2.96,0.54-5.92,0.82-8.85,0.82h-24.99
		v-11.35h4.9v-36.21h-4.48v-11.35h38.29v11.35h-4.48V-636.79z M453.08-635.97h6.09v-36.21h-6.09V-635.97z M499.14-649.7h-7v28.05
		h-11.83v-63.37h11.83v23.15h7V-649.7z"/>
	<path d="M562.07-635.38v11.5h-60.48v-11.5H562.07z M559.48-641.24h-54.53v-42.29h53.83v10.98h-42.14v4.97h41.16v10.39h-41.16v4.97
		h42.84V-641.24z"/>
	<path d="M592.73-636.12c2.85,0,5.68-0.26,8.5-0.78c2.82-0.52,5.15-1.22,6.97-2.12v11.35c-1.77,0.94-4.12,1.68-7.04,2.23
		c-2.92,0.54-5.85,0.82-8.79,0.82h-22.82v-59.29h12.18v47.79H592.73z M625.28-685.02v63.37h-11.83v-31.31h-18.48v-12.09h18.48
		v-19.96H625.28z"/>
	<path d="M658.53-657.71l17.29,25.82l-9.66,7.2l-11.9-18.48c-2.47,5.99-5.54,10.56-9.21,13.73c-3.66,3.17-7.76,4.77-12.28,4.82
		v-12.91c3.17-0.4,5.96-2.58,8.36-6.57c2.4-3.98,4.28-9.4,5.64-16.25c1.35-6.85,2.03-14.65,2.03-23.41l12.04,0.45
		C660.84-674.01,660.07-665.48,658.53-657.71z M695.91-649.7h-7v28.05h-11.83v-63.37h11.83v23.15h7V-649.7z"/>
</g>
<g>
	<path class="st1" d="M269.32-608.34h-15.16l-13.42,36.87h-10.41l13.42-36.87h-15.16l3.3-9.08h40.74L269.32-608.34z"/>
	<path class="st1" d="M272.64-574.85l-1.23,3.38h-10.18l17.24-47.36h10.18l-6.44,17.7c3.11-2.78,6.82-4.17,11.13-4.17
		c3.17,0,5.72,0.74,7.66,2.23c1.94,1.49,3.12,3.54,3.53,6.17c0.42,2.63,0.02,5.6-1.18,8.91c-1.2,3.31-2.97,6.28-5.3,8.91
		c-2.33,2.63-5.01,4.69-8.03,6.17c-3.02,1.48-6.11,2.23-9.28,2.23C276.42-570.68,273.72-572.07,272.64-574.85z M288.92-581.7
		c2.04-1.64,3.53-3.73,4.46-6.29c0.93-2.56,0.97-4.65,0.11-6.29c-0.85-1.63-2.48-2.45-4.89-2.45c-2.48,0-4.76,0.82-6.84,2.45
		c-2.08,1.64-3.59,3.73-4.52,6.29c-0.93,2.56-0.95,4.65-0.06,6.29c0.89,1.63,2.58,2.45,5.06,2.45
		C284.65-579.25,286.88-580.06,288.92-581.7z"/>
	<path class="st1" d="M313.46-571.47h-10.18l17.24-47.36h10.18L313.46-571.47z"/>
	<path class="st1" d="M328.37-572.9c-2.11-1.49-3.43-3.54-3.96-6.17c-0.53-2.63-0.19-5.6,1.01-8.91c1.2-3.31,3.03-6.28,5.47-8.91
		c2.44-2.63,5.26-4.69,8.46-6.17c3.19-1.48,6.46-2.23,9.82-2.23s6.09,0.74,8.2,2.23c2.11,1.49,3.43,3.54,3.96,6.17
		c0.53,2.63,0.19,5.6-1.01,8.91c-0.4,1.09-0.86,2.16-1.4,3.21h-24.54c-0.32,1.92-0.02,3.4,0.9,4.45c0.91,1.05,2.32,1.58,4.23,1.58
		c1.45,0,2.82-0.23,4.12-0.7c1.3-0.47,2.3-1.1,3-1.89h10.24c-1.34,2.1-3.08,3.96-5.22,5.55c-2.15,1.6-4.53,2.85-7.14,3.75
		c-2.62,0.9-5.26,1.35-7.93,1.35C333.22-570.68,330.48-571.42,328.37-572.9z M351.56-591.26c0.3-1.99,0-3.5-0.92-4.54
		c-0.92-1.03-2.37-1.55-4.36-1.55s-3.79,0.52-5.43,1.55c-1.64,1.03-3.02,2.55-4.17,4.54H351.56z"/>
	<path class="st1" d="M393.35-617.42h17.91c4,0,7.19,0.7,9.57,2.09c2.37,1.39,3.86,3.35,4.47,5.86c0.61,2.52,0.3,5.47-0.93,8.85
		c-1.25,3.42-3.09,6.4-5.54,8.94c-2.45,2.54-5.37,4.5-8.75,5.89c-3.39,1.39-7.08,2.08-11.09,2.08h-7.5l-4.45,12.24h-10.41
		L393.35-617.42z M401.83-592.78c2.94,0,5.46-0.68,7.58-2.03c2.11-1.35,3.63-3.29,4.54-5.81c0.92-2.52,0.8-4.44-0.34-5.75
		s-3.18-1.97-6.12-1.97h-7.04l-5.66,15.56H401.83z"/>
	<path class="st1" d="M425.44-572.9c-1.94-1.49-3.12-3.54-3.53-6.17c-0.42-2.63-0.02-5.6,1.18-8.91c1.2-3.31,2.97-6.28,5.3-8.91
		c2.33-2.63,5.01-4.69,8.03-6.17c3.02-1.48,6.11-2.23,9.28-2.23c4.31,0,7.01,1.39,8.09,4.17l1.23-3.38h10.18l-12.03,33.04H443
		l1.23-3.38c-3.11,2.78-6.82,4.17-11.13,4.17C429.93-570.68,427.38-571.42,425.44-572.9z M444.66-581.7
		c2.08-1.64,3.59-3.73,4.52-6.29c0.93-2.56,0.95-4.65,0.06-6.29c-0.89-1.63-2.58-2.45-5.06-2.45c-2.4,0-4.63,0.82-6.67,2.45
		c-2.05,1.64-3.53,3.73-4.46,6.29c-0.93,2.56-0.97,4.65-0.11,6.29c0.85,1.63,2.48,2.45,4.89,2.45
		C440.3-579.25,442.58-580.06,444.66-581.7z"/>
	<path class="st1" d="M472.87-604.51h10.18l-1.23,3.38c3.11-2.78,6.74-4.17,10.9-4.17c1.83,0,3.23,0.19,4.2,0.56l-3.31,9.42
		c-1.18-0.75-2.78-1.13-4.8-1.13c-2.71,0-5.09,0.71-7.16,2.14c-2.07,1.43-3.56,3.4-4.47,5.92l-6.16,16.91h-10.18L472.87-604.51z"/>
	<path class="st1" d="M520.2-595.88h-6.64l-8.89,24.41h-10.18l8.89-24.41h-6.64l3.14-8.63h6.64l3.57-9.81h10.18l-3.57,9.81h6.64
		L520.2-595.88z"/>
	<path class="st1" d="M528.08-604.51h10.18l-1.23,3.38c3.11-2.78,6.74-4.17,10.9-4.17c2.59,0,4.67,0.59,6.22,1.78
		c1.55,1.18,2.47,2.88,2.75,5.1c0.28,2.22-0.13,4.83-1.22,7.84l-6.96,19.11h-10.18l6.34-17.42c0.92-2.52,1.11-4.45,0.59-5.78
		c-0.53-1.33-1.74-2-3.65-2c-1.98,0-3.81,0.73-5.49,2.2c-1.68,1.47-2.98,3.48-3.91,6.03l-6.18,16.97h-10.18L528.08-604.51z"/>
	<path class="st1" d="M562.84-572.9c-2.11-1.49-3.43-3.54-3.96-6.17c-0.53-2.63-0.19-5.6,1.01-8.91c1.2-3.31,3.03-6.28,5.47-8.91
		c2.44-2.63,5.26-4.69,8.46-6.17c3.19-1.48,6.46-2.23,9.82-2.23s6.09,0.74,8.2,2.23c2.11,1.49,3.43,3.54,3.96,6.17
		c0.53,2.63,0.19,5.6-1.01,8.91c-0.4,1.09-0.86,2.16-1.4,3.21h-24.54c-0.32,1.92-0.02,3.4,0.9,4.45c0.91,1.05,2.32,1.58,4.23,1.58
		c1.45,0,2.82-0.23,4.12-0.7c1.3-0.47,2.3-1.1,3-1.89h10.24c-1.34,2.1-3.08,3.96-5.22,5.55c-2.15,1.6-4.53,2.85-7.14,3.75
		c-2.62,0.9-5.26,1.35-7.93,1.35C567.68-570.68,564.95-571.42,562.84-572.9z M586.03-591.26c0.3-1.99,0-3.5-0.92-4.54
		c-0.92-1.03-2.37-1.55-4.36-1.55s-3.79,0.52-5.43,1.55c-1.64,1.03-3.02,2.55-4.17,4.54H586.03z"/>
	<path class="st1" d="M606.81-604.51H617l-1.23,3.38c3.11-2.78,6.74-4.17,10.9-4.17c1.83,0,3.23,0.19,4.2,0.56l-3.31,9.42
		c-1.18-0.75-2.78-1.13-4.8-1.13c-2.71,0-5.09,0.71-7.16,2.14c-2.07,1.43-3.56,3.4-4.47,5.92l-6.16,16.91h-10.18L606.81-604.51z"/>
</g>
<g>
	<g>
		<path class="st2" d="M434.01-724.87c-11.55,0-20.9-9.36-20.9-20.9c0-9.33,6.12-17.24,14.56-19.92c-6.9-2.16-14.9-0.86-20.94,5.18
			c-13.16,13.16-3.84,35.66,14.77,35.66c0,4.84-1.27,8.66-4.18,12.53c6.89-2.23,13.09-6.76,17.6-12.57
			C434.61-724.88,434.31-724.87,434.01-724.87z"/>
	</g>
	<g>
		<path class="st2" d="M423.44-760.52c-13.16,13.16-3.84,35.66,14.77,35.66c0,4.84-1.27,8.66-4.18,12.53
			c13.96-4.51,25.07-18.46,25.07-33.42C459.1-764.36,436.6-773.68,423.44-760.52z"/>
	</g>
</g>
<g>
	<path d="M190.62-946.49h34.79v58.92h-34.79V-946.49z M202.45-899.23h11.13v-35.62h-11.13V-899.23z M251.73-912.66h-7v28.05H232.9
		v-63.37h11.83v23.15h7V-912.66z"/>
	<path d="M287.29-947.68h10.92v61.96h-10.92v-27.31h-6.51c-1.03,5.49-2.78,10.14-5.25,13.95c-2.47,3.81-5.46,6.67-8.96,8.57
		c-3.5,1.9-7.35,2.88-11.55,2.93v-11.2c3.97-0.25,7.21-1.61,9.73-4.08s4.25-6.04,5.18-10.69h-14.91v-11.06h15.68v-10.83h-15.68
		v-11.06h26.74v21.59h5.53V-947.68z M313.68-947.98v63.37h-11.06v-63.37H313.68z"/>
	<path d="M356.31-912.73c-2.66,0.4-5.41,0.59-8.26,0.59h-26.32v-35.1h37.38v9.5h-25.69v3.64h24.5v8.83h-24.5v3.64h15.4
		c2.66,0,5.23-0.19,7.7-0.56c2.47-0.37,4.5-0.88,6.09-1.52v9.35C361.07-913.67,358.97-913.13,356.31-912.73z M370.76-906.54
		c4.92,2,7.39,5.28,7.39,9.83s-2.46,7.83-7.39,9.83c-4.92,2-11.56,3-19.92,3c-8.35,0-14.99-1-19.91-3c-4.92-2-7.39-5.28-7.39-9.83
		s2.46-7.83,7.39-9.83c4.92-2,11.56-3.01,19.91-3.01C359.2-909.54,365.84-908.54,370.76-906.54z M361.56-894.18
		c2.61-0.49,3.92-1.33,3.92-2.52c0-2.18-4.88-3.26-14.63-3.26c-9.75,0-14.63,1.09-14.63,3.26c0,1.19,1.31,2.03,3.92,2.52
		c2.61,0.5,6.18,0.74,10.71,0.74C355.37-893.44,358.94-893.69,361.56-894.18z M377.59-910.36h-11.83v-37.62h11.83V-910.36z"/>
	<path d="M416.23-912.92c-3.55,2.05-7.42,3.13-11.62,3.23v-11.35c2.61-0.2,4.95-1.04,7-2.52c2.05-1.48,3.7-3.36,4.94-5.64
		c1.24-2.28,2.04-4.72,2.42-7.35h-13.51v-10.68h38.64v10.68h-13.16c-0.14,1.73-0.47,3.59-0.98,5.57l16.66,11.8l-6.51,8.98
		l-14.91-10.91C422.76-917.7,419.77-914.97,416.23-912.92z M461.87-895.89v11.28h-54.32v-22.19h12.04v10.91H461.87z M461.03-901.08
		H449.2v-46.89h11.83V-901.08z"/>
	<path d="M499.46-935.07H467.4v-9.13h10.43v-4.75h11.76v4.75h9.87V-935.07z M496.66-915.44c-1.31,1.81-3.08,3.19-5.32,4.16
		c-2.24,0.96-4.74,1.45-7.49,1.45c-2.75,0-5.25-0.48-7.49-1.45c-2.24-0.96-4.01-2.35-5.32-4.16c-1.31-1.8-1.96-3.9-1.96-6.27
		c0-2.38,0.65-4.46,1.96-6.27c1.31-1.8,3.08-3.19,5.32-4.16c2.24-0.96,4.74-1.45,7.49-1.45c2.75,0,5.25,0.48,7.49,1.45
		c2.24,0.96,4.01,2.35,5.32,4.16c1.31,1.81,1.96,3.9,1.96,6.27C498.62-919.34,497.96-917.24,496.66-915.44z M521.02-905.83
		c5.09,1.98,7.63,5.15,7.63,9.5s-2.54,7.52-7.63,9.5c-5.09,1.98-11.95,2.97-20.58,2.97c-8.63,0-15.49-0.99-20.58-2.97
		c-5.09-1.98-7.63-5.15-7.63-9.5s2.54-7.52,7.63-9.5c5.09-1.98,11.95-2.97,20.58-2.97C509.07-908.8,515.93-907.81,521.02-905.83z
		 M480.66-919.34c0.86,0.59,1.93,0.89,3.19,0.89c1.26,0,2.32-0.3,3.19-0.89c0.86-0.59,1.29-1.38,1.29-2.37s-0.43-1.78-1.29-2.38
		c-0.86-0.59-1.92-0.89-3.19-0.89c-1.26,0-2.32,0.3-3.19,0.89c-0.86,0.59-1.29,1.39-1.29,2.38S479.8-919.93,480.66-919.34z
		 M511.74-894c2.96-0.52,4.44-1.3,4.44-2.34s-1.48-1.82-4.44-2.34c-2.96-0.52-6.73-0.78-11.31-0.78c-4.57,0-8.34,0.26-11.3,0.78
		c-2.96,0.52-4.45,1.3-4.45,2.34s1.48,1.82,4.45,2.34c2.96,0.52,6.73,0.78,11.3,0.78C505.01-893.22,508.78-893.48,511.74-894z
		 M512.62-911.1h-10.71v-36.58h10.71v12.61h4.83v-12.91h10.85v39.1h-10.85v-15.06h-4.83V-911.1z"/>
	<path d="M594.87-917.41v10.31h-24.29v8.61h-11.9v-8.61h-24.29v-10.31H594.87z M564.35-932.1c-3.45,3.46-7.64,6.21-12.56,8.24
		c-4.92,2.03-10.14,3.09-15.65,3.19v-10.68c3.83-0.15,7.51-1,11.06-2.56c3.55-1.56,6.53-3.71,8.96-6.46
		c2.43-2.75,3.94-5.87,4.55-9.39l11.97,2.08c-0.51,2.67-1.31,5.07-2.38,7.2l24.29,10.61l-4.55,9.57L564.35-932.1z M549.93-895h42.14
		v10.39h-54.18v-18.77h12.04V-895z"/>
	<path d="M625.52-923.42l17.36,29.09l-10.15,6.68l-11.27-20.03c-2.43,6.43-5.48,11.38-9.17,14.84c-3.69,3.46-7.79,5.22-12.32,5.27
		v-13.06c3.03-0.35,5.69-2.51,7.98-6.49c2.29-3.98,4.06-9.39,5.32-16.21c1.26-6.83,1.89-14.62,1.89-23.37l12.04,0.45
		C627.21-937.86,626.65-930.24,625.52-923.42z M658.07-947.98v63.37h-11.83v-31.16h-12.6v-11.72h12.6v-20.48H658.07z"/>
</g>
<g>
	<path class="st1" d="M263.2-871.3h-15.16l-13.42,36.87h-10.41l13.42-36.87h-15.16l3.3-9.08h40.74L263.2-871.3z"/>
	<path class="st1" d="M266.52-837.81l-1.23,3.38H255.1l17.24-47.36h10.18l-6.44,17.7c3.11-2.78,6.82-4.17,11.13-4.17
		c3.17,0,5.72,0.74,7.66,2.23c1.94,1.49,3.12,3.54,3.53,6.17c0.42,2.63,0.02,5.6-1.18,8.91c-1.2,3.31-2.97,6.28-5.3,8.91
		c-2.33,2.63-5.01,4.69-8.03,6.17c-3.02,1.48-6.11,2.23-9.28,2.23C270.3-833.63,267.6-835.02,266.52-837.81z M282.8-844.66
		c2.04-1.64,3.53-3.73,4.46-6.29c0.93-2.56,0.97-4.65,0.11-6.29c-0.85-1.63-2.48-2.45-4.89-2.45c-2.48,0-4.76,0.82-6.84,2.45
		c-2.08,1.64-3.59,3.73-4.52,6.29c-0.93,2.56-0.95,4.65-0.06,6.29c0.89,1.63,2.58,2.45,5.06,2.45
		C278.53-842.2,280.75-843.02,282.8-844.66z"/>
	<path class="st1" d="M307.34-834.42h-10.18l17.24-47.36h10.18L307.34-834.42z"/>
	<path class="st1" d="M322.25-835.86c-2.11-1.49-3.43-3.54-3.96-6.17c-0.53-2.63-0.19-5.6,1.01-8.91c1.2-3.31,3.03-6.28,5.47-8.91
		c2.44-2.63,5.26-4.69,8.46-6.17c3.19-1.48,6.46-2.23,9.82-2.23s6.09,0.74,8.2,2.23c2.11,1.49,3.43,3.54,3.96,6.17
		c0.53,2.63,0.19,5.6-1.01,8.91c-0.4,1.09-0.86,2.16-1.4,3.21h-24.54c-0.32,1.92-0.02,3.4,0.9,4.45c0.91,1.05,2.32,1.58,4.23,1.58
		c1.45,0,2.82-0.23,4.12-0.7c1.3-0.47,2.3-1.1,3-1.89h10.24c-1.34,2.1-3.08,3.96-5.22,5.55c-2.15,1.6-4.53,2.85-7.14,3.75
		c-2.62,0.9-5.26,1.35-7.93,1.35C327.09-833.63,324.36-834.38,322.25-835.86z M345.44-854.21c0.3-1.99,0-3.5-0.92-4.54
		c-0.92-1.03-2.37-1.55-4.36-1.55s-3.79,0.52-5.43,1.55c-1.64,1.03-3.02,2.55-4.17,4.54H345.44z"/>
	<path class="st1" d="M387.23-880.37h17.91c4,0,7.19,0.7,9.57,2.09c2.37,1.39,3.86,3.35,4.47,5.86c0.61,2.52,0.3,5.47-0.93,8.85
		c-1.25,3.42-3.09,6.4-5.54,8.94c-2.45,2.54-5.37,4.5-8.75,5.89c-3.39,1.39-7.08,2.08-11.09,2.08h-7.5l-4.45,12.24H370.5
		L387.23-880.37z M395.71-855.74c2.94,0,5.46-0.68,7.58-2.03c2.11-1.35,3.63-3.29,4.54-5.81c0.92-2.52,0.8-4.44-0.34-5.75
		s-3.18-1.97-6.12-1.97h-7.04l-5.66,15.56H395.71z"/>
	<path class="st1" d="M424.98-867.46h10.18l-1.23,3.38c3.11-2.78,6.74-4.17,10.9-4.17c1.83,0,3.23,0.19,4.2,0.56l-3.31,9.42
		c-1.18-0.75-2.78-1.13-4.8-1.13c-2.71,0-5.09,0.71-7.16,2.14c-2.07,1.43-3.56,3.4-4.47,5.92l-6.16,16.91h-10.18L424.98-867.46z"/>
	<path class="st1" d="M477.44-866.03c2.17,1.49,3.54,3.54,4.1,6.17c0.57,2.63,0.25,5.6-0.95,8.91c-1.2,3.31-3.05,6.28-5.53,8.91
		c-2.48,2.63-5.35,4.69-8.6,6.17c-3.25,1.48-6.57,2.23-9.96,2.23c-3.4,0-6.18-0.74-8.34-2.23c-2.17-1.49-3.54-3.54-4.1-6.17
		c-0.57-2.63-0.25-5.6,0.95-8.91c1.2-3.31,3.05-6.28,5.53-8.91c2.48-2.63,5.35-4.69,8.6-6.17c3.25-1.48,6.57-2.23,9.96-2.23
		C472.49-868.25,475.27-867.51,477.44-866.03z M459.33-857.23c-2.06,1.64-3.56,3.73-4.49,6.29c-0.93,2.56-0.96,4.65-0.08,6.29
		c0.87,1.63,2.49,2.45,4.86,2.45c2.36,0,4.58-0.82,6.64-2.45c2.06-1.64,3.56-3.73,4.49-6.29c0.93-2.56,0.96-4.65,0.08-6.29
		c-0.87-1.63-2.49-2.45-4.86-2.45C463.61-859.68,461.4-858.86,459.33-857.23z"/>
	<path class="st1" d="M508.45-837.1c-3.85,2.31-7.9,3.47-12.13,3.47c-3.4,0-6.18-0.74-8.34-2.23c-2.17-1.49-3.54-3.54-4.1-6.17
		c-0.57-2.63-0.25-5.6,0.95-8.91c1.2-3.31,3.05-6.28,5.53-8.91c2.48-2.63,5.35-4.69,8.6-6.17c3.25-1.48,6.57-2.23,9.96-2.23
		c2.86,0,5.27,0.55,7.23,1.66c1.96,1.11,3.36,2.62,4.18,4.54c0.83,1.92,1.01,4.04,0.54,6.37h-10.3c0-1.16-0.41-2.09-1.24-2.79
		c-0.83-0.7-2.03-1.04-3.6-1.04c-2.37,0-4.55,0.8-6.57,2.4c-2.01,1.6-3.48,3.66-4.39,6.17s-0.95,4.58-0.1,6.17
		c0.85,1.6,2.46,2.4,4.82,2.4c1.56,0,3.04-0.36,4.42-1.07c1.38-0.71,2.53-1.67,3.42-2.88h10.3
		C515.37-842.49,512.31-839.41,508.45-837.1z"/>
	<path class="st1" d="M526.05-835.86c-2.11-1.49-3.43-3.54-3.96-6.17c-0.53-2.63-0.19-5.6,1.01-8.91c1.2-3.31,3.03-6.28,5.47-8.91
		c2.44-2.63,5.26-4.69,8.46-6.17c3.19-1.48,6.46-2.23,9.82-2.23s6.09,0.74,8.2,2.23c2.11,1.49,3.43,3.54,3.96,6.17
		c0.53,2.63,0.19,5.6-1.01,8.91c-0.4,1.09-0.86,2.16-1.4,3.21h-24.54c-0.32,1.92-0.02,3.4,0.9,4.45c0.91,1.05,2.32,1.58,4.23,1.58
		c1.45,0,2.82-0.23,4.12-0.7c1.3-0.47,2.3-1.1,3-1.89h10.24c-1.34,2.1-3.08,3.96-5.22,5.55c-2.15,1.6-4.53,2.85-7.14,3.75
		c-2.62,0.9-5.26,1.35-7.93,1.35C530.89-833.63,528.16-834.38,526.05-835.86z M549.24-854.21c0.3-1.99,0-3.5-0.92-4.54
		c-0.92-1.03-2.37-1.55-4.36-1.55s-3.79,0.52-5.43,1.55c-1.64,1.03-3.02,2.55-4.17,4.54H549.24z"/>
	<path class="st1" d="M591.45-866.93c1.97,0.88,3.34,2.13,4.13,3.75c0.79,1.62,0.84,3.5,0.18,5.64h-9.84
		c0.22-1.02-0.09-1.81-0.93-2.4c-0.84-0.58-2.02-0.87-3.54-0.87c-1.53,0-2.88,0.24-4.06,0.71c-1.18,0.47-1.91,1.08-2.18,1.83
		c-0.29,0.79,0.07,1.43,1.08,1.92c1,0.49,2.89,0.96,5.67,1.41c4.58,0.71,7.6,1.9,9.06,3.55c1.46,1.65,1.66,3.93,0.61,6.82
		c-0.79,2.18-2.2,4.1-4.21,5.75c-2.01,1.65-4.39,2.93-7.12,3.83c-2.73,0.9-5.53,1.35-8.39,1.35c-2.9,0-5.35-0.46-7.36-1.38
		c-2.01-0.92-3.4-2.23-4.18-3.92c-0.78-1.69-0.81-3.66-0.1-5.92h9.84c-0.23,1.05,0.11,1.91,1.01,2.57c0.91,0.66,2.16,0.99,3.76,0.99
		c1.64,0,3.09-0.26,4.35-0.79c1.26-0.53,2.03-1.16,2.3-1.92c0.29-0.79-0.1-1.46-1.16-2s-2.95-1.02-5.66-1.44
		c-4.15-0.64-7.07-1.73-8.74-3.27c-1.67-1.54-1.93-3.89-0.78-7.05c0.77-2.1,2.11-3.95,4.04-5.52c1.93-1.58,4.21-2.8,6.86-3.67
		c2.64-0.86,5.39-1.3,8.25-1.3C587.11-868.25,589.49-867.81,591.45-866.93z"/>
	<path class="st1" d="M627.39-866.93c1.97,0.88,3.34,2.13,4.13,3.75c0.79,1.62,0.84,3.5,0.18,5.64h-9.84
		c0.22-1.02-0.09-1.81-0.93-2.4c-0.84-0.58-2.02-0.87-3.54-0.87c-1.53,0-2.88,0.24-4.06,0.71c-1.18,0.47-1.91,1.08-2.18,1.83
		c-0.29,0.79,0.07,1.43,1.08,1.92c1,0.49,2.89,0.96,5.67,1.41c4.58,0.71,7.6,1.9,9.06,3.55c1.46,1.65,1.66,3.93,0.61,6.82
		c-0.79,2.18-2.2,4.1-4.21,5.75c-2.01,1.65-4.39,2.93-7.12,3.83c-2.73,0.9-5.53,1.35-8.39,1.35c-2.9,0-5.35-0.46-7.36-1.38
		c-2.01-0.92-3.4-2.23-4.18-3.92c-0.78-1.69-0.81-3.66-0.1-5.92h9.84c-0.23,1.05,0.11,1.91,1.01,2.57c0.91,0.66,2.16,0.99,3.76,0.99
		c1.64,0,3.09-0.26,4.35-0.79c1.26-0.53,2.03-1.16,2.3-1.92c0.29-0.79-0.1-1.46-1.16-2s-2.95-1.02-5.66-1.44
		c-4.15-0.64-7.07-1.73-8.74-3.27c-1.67-1.54-1.93-3.89-0.78-7.05c0.77-2.1,2.11-3.95,4.04-5.52c1.93-1.58,4.21-2.8,6.86-3.67
		c2.64-0.86,5.39-1.3,8.25-1.3C623.04-868.25,625.42-867.81,627.39-866.93z"/>
</g>
<g>
	<g>
		<path class="st0" d="M434.01-987.83c-11.55,0-20.9-9.36-20.9-20.9c0-9.33,6.12-17.24,14.56-19.92c-6.9-2.16-14.9-0.86-20.94,5.18
			c-13.16,13.16-3.84,35.66,14.77,35.66c0,4.84-1.27,8.66-4.18,12.53c6.89-2.23,13.09-6.76,17.6-12.57
			C434.61-987.84,434.31-987.83,434.01-987.83z"/>
	</g>
	<g>
		<path class="st0" d="M423.44-1023.48c-13.16,13.16-3.84,35.66,14.77,35.66c0,4.84-1.27,8.66-4.18,12.53
			c13.96-4.51,25.07-18.46,25.07-33.42C459.1-1027.32,436.6-1036.64,423.44-1023.48z"/>
	</g>
</g>
<text transform="matrix(1 0 0 1.06 110.645 -1150.5872)" style="font-family:'GmarketSansTTFBold'; font-size:70px; letter-spacing:-1;">티블을 선택하는 이유</text>
<text transform="matrix(0.9536 0 -0.342 0.9397 256.6049 -1097.7587)" class="st1" style="font-family:'GmarketSansTTFBold'; font-size:60px;">Tble Point</text>
<g>
	<path class="st0" d="M434.01-1246.09c-11.55,0-20.9-9.36-20.9-20.9c0-9.33,6.12-17.24,14.56-19.92c-6.9-2.16-14.9-0.86-20.94,5.18
		c-13.16,13.16-3.84,35.66,14.77,35.66c0,4.84-1.27,8.66-4.18,12.53c6.89-2.23,13.09-6.76,17.6-12.57
		C434.61-1246.1,434.31-1246.09,434.01-1246.09z"/>
	<path class="st0" d="M423.44-1281.74c-13.16,13.16-3.84,35.66,14.77,35.66c0,4.84-1.27,8.66-4.18,12.53
		c13.96-4.51,25.07-18.46,25.07-33.42C459.1-1285.58,436.6-1294.9,423.44-1281.74z"/>
</g>
<text transform="matrix(1 0 0 1.06 -887.1812 -1258.5872)" style="font-family:'GmarketSansTTFBold'; font-size:70px; letter-spacing:-1;">티블을 선택하는 이유</text>
<text transform="matrix(0.9536 0 -0.342 0.9397 -741.2212 -1205.7587)" class="st1" style="font-family:'GmarketSansTTFBold'; font-size:60px;">Tble Point</text>
<g>
	<path class="st0" d="M-563.82-1354.09c-11.55,0-20.9-9.36-20.9-20.9c0-9.33,6.12-17.24,14.56-19.92c-6.9-2.16-14.9-0.86-20.94,5.18
		c-13.16,13.16-3.84,35.66,14.77,35.66c0,4.84-1.27,8.66-4.18,12.53c6.89-2.23,13.09-6.76,17.6-12.57
		C-563.22-1354.1-563.52-1354.09-563.82-1354.09z"/>
	<path class="st0" d="M-574.38-1389.74c-13.16,13.16-3.84,35.66,14.77,35.66c0,4.84-1.27,8.66-4.18,12.53
		c13.96-4.51,25.07-18.46,25.07-33.42C-538.72-1393.58-561.22-1402.9-574.38-1389.74z"/>
</g>
<g>
	<g>
		<path class="st3" d="M-398.77-348.71c-29.26,0-52.98-23.72-52.98-52.98c0-23.65,15.51-43.68,36.9-50.49
			c-17.48-5.47-37.77-2.19-53.08,13.12c-33.35,33.35-9.73,90.38,37.44,90.38c0,12.28-3.22,21.94-10.59,31.77
			c17.47-5.64,33.17-17.12,44.6-31.86C-397.24-348.73-398-348.71-398.77-348.71z"/>
		<path class="st3" d="M-425.54-439.06c-33.35,33.35-9.73,90.38,37.44,90.38c0,12.28-3.22,21.94-10.59,31.77
			c35.38-11.43,63.53-46.77,63.53-84.71C-335.16-448.79-392.19-472.41-425.54-439.06z"/>
	</g>
	<g>
		<path class="st0" d="M-307.66-270c-10.47-6.63-23.99-5.92-33.71,1.79s-13.48,20.71-9.4,32.42c4.08,11.71,15.12,19.55,27.52,19.55
			c9.41,0,18.54-4.33,24.64-11.44c-4.88-1.78-9.77-3.56-14.65-5.33c-3.05,2.46-6.06,3.53-9.98,3.53c-5.76,0-10.13-4.28-12.04-9.27
			c13.47,0,26.94,0,40.42,0C-292.06-250.83-297.19-263.36-307.66-270z M-335.3-252.01c4.72-12.36,19.36-12.36,24.08,0
			C-319.24-252.01-327.27-252.01-335.3-252.01z"/>
		<path class="st0" d="M-431.86-274.52v-15.9h-15.89v58.28l15.89,15.89h13.25c16.09,0,29.14-13.05,29.14-29.14
			c0-16.09-13.05-29.14-29.14-29.14H-431.86z M-418.62-258.63c7.31,0,13.24,5.93,13.24,13.24c0,7.31-5.93,13.25-13.24,13.25h-13.25
			v-26.49H-418.62z"/>
		<rect x="-378.88" y="-290.42" class="st0" width="15.89" height="74.17"/>
		<g>
			<polygon class="st0" points="-482.2,-290.42 -498.09,-274.52 -498.09,-216.24 -482.2,-216.24 -482.2,-274.52 -455.71,-274.52 
				-455.71,-290.42 			"/>
			<polygon class="st0" points="-524.58,-290.42 -524.58,-274.52 -505.58,-274.52 -489.68,-290.42 			"/>
		</g>
	</g>
</g>
</svg>
