<?xml version="1.0" encoding="utf-8"?>
<!-- Generator: Adobe Illustrator 26.1.0, SVG Export Plug-In . SVG Version: 6.00 Build 0)  -->
<svg version="1.1" id="레이어_1" xmlns="http://www.w3.org/2000/svg" xmlns:xlink="http://www.w3.org/1999/xlink" x="0px"
	 y="0px" viewBox="0 0 856.9 206.4" style="enable-background:new 0 0 856.9 206.4;" xml:space="preserve">
<style type="text/css">
	.st0{fill:#FFFFFF;}
	.st1{enable-background:new    ;}
	.st2{fill:#F3F3F3;}
	.st3{fill:#F6CA46;}
	.st4{fill:#FFD141;}
	.st5{fill:#FABE00;}
</style>
<text transform="matrix(0.9434 0 0 1 1176.5586 150.1092)" style="font-family:'GmarketSansTTFBold'; font-size:74.2px;">티블을 선택하는 이유</text>
<text transform="matrix(0.9536 0 -0.342 0.9397 1322.5172 202.9371)" class="st4" style="font-family:'GmarketSansTTFBold'; font-size:60px;">Tble Point</text>
<g>
	<path class="st0" d="M1499.9,54.6c-11.6,0-20.9-9.4-20.9-20.9c0-9.3,6.1-17.2,14.6-19.9c-6.9-2.2-14.9-0.9-20.9,5.2
		c-13.2,13.2-3.8,35.7,14.8,35.7c0,4.8-1.3,8.7-4.2,12.5c6.9-2.2,13.1-6.8,17.6-12.6C1500.5,54.6,1500.2,54.6,1499.9,54.6z"/>
	<path class="st0" d="M1489.4,19c-13.2,13.2-3.8,35.7,14.8,35.7c0,4.8-1.3,8.7-4.2,12.5c14-4.5,25.1-18.5,25.1-33.4
		C1525,15.1,1502.5,5.8,1489.4,19z"/>
</g>
<text transform="matrix(0.9434 0 0 1 1176.5586 -136.3253)" style="font-family:'GmarketSansTTFBold'; font-size:74.2px;">티블을 선택하는 이유</text>
<text transform="matrix(0.9536 0 -0.342 0.9397 1322.5179 -83.4979)" class="st4" style="font-family:'GmarketSansTTFBold'; font-size:60px;">Tble Point</text>
<g>
	<path class="st0" d="M1499.9-231.8c-11.6,0-20.9-9.4-20.9-20.9c0-9.3,6.1-17.2,14.6-19.9c-6.9-2.2-14.9-0.9-20.9,5.2
		c-13.2,13.2-3.8,35.7,14.8,35.7c0,4.8-1.3,8.7-4.2,12.5c6.9-2.2,13.1-6.8,17.6-12.6C1500.5-231.8,1500.2-231.8,1499.9-231.8z"/>
	<path class="st0" d="M1489.4-267.5c-13.2,13.2-3.8,35.7,14.8,35.7c0,4.8-1.3,8.7-4.2,12.5c14-4.5,25.1-18.5,25.1-33.4
		C1525-271.3,1502.5-280.6,1489.4-267.5z"/>
</g>
<text transform="matrix(0.9434 0 0 1 1176.5586 -375.8043)" style="font-family:'GmarketSansTTFBold'; font-size:74.2px;">티블을 선택하는 이유</text>
<text transform="matrix(0.9536 0 -0.342 0.9397 1322.5178 -322.976)" class="st4" style="font-family:'GmarketSansTTFBold'; font-size:60px;">Tble Point</text>
<g>
	<path class="st0" d="M1499.9-471.3c-11.6,0-20.9-9.4-20.9-20.9c0-9.3,6.1-17.2,14.6-19.9c-6.9-2.2-14.9-0.9-20.9,5.2
		c-13.2,13.2-3.8,35.7,14.8,35.7c0,4.8-1.3,8.7-4.2,12.5c6.9-2.2,13.1-6.8,17.6-12.6C1500.5-471.3,1500.2-471.3,1499.9-471.3z"/>
	<path class="st0" d="M1489.4-507c-13.2,13.2-3.8,35.7,14.8,35.7c0,4.8-1.3,8.7-4.2,12.5c14-4.5,25.1-18.5,25.1-33.4
		C1525-510.8,1502.5-520.1,1489.4-507z"/>
</g>
<text transform="matrix(0.9434 0 0 1 1176.5586 -622.3258)" style="font-family:'GmarketSansTTFBold'; font-size:74.2px;">티블을 선택하는 이유</text>
<text transform="matrix(0.9536 0 -0.342 0.9397 1322.5177 -569.4976)" class="st4" style="font-family:'GmarketSansTTFBold'; font-size:60px;">Tble Point</text>
<g>
	<path class="st0" d="M1499.9-717.8c-11.6,0-20.9-9.4-20.9-20.9c0-9.3,6.1-17.2,14.6-19.9c-6.9-2.2-14.9-0.9-20.9,5.2
		c-13.2,13.2-3.8,35.7,14.8,35.7c0,4.8-1.3,8.7-4.2,12.5c6.9-2.2,13.1-6.8,17.6-12.6C1500.5-717.8,1500.2-717.8,1499.9-717.8z"/>
	<path class="st0" d="M1489.4-753.5c-13.2,13.2-3.8,35.7,14.8,35.7c0,4.8-1.3,8.7-4.2,12.5c14-4.5,25.1-18.5,25.1-33.4
		C1525-757.3,1502.5-766.6,1489.4-753.5z"/>
</g>
<text transform="matrix(0.9434 0 0 1 110.645 626.7181)" style="font-family:'GmarketSansTTFBold'; font-size:74.2px;">티블을 선택하는 이유</text>
<text transform="matrix(0.9536 0 -0.342 0.9397 256.6043 679.5458)" class="st4" style="font-family:'GmarketSansTTFBold'; font-size:60px;">Tble Point</text>
<g>
	<path class="st0" d="M434,531.2c-11.5,0-20.9-9.4-20.9-20.9c0-9.3,6.1-17.2,14.6-19.9c-6.9-2.2-14.9-0.9-20.9,5.2
		c-13.2,13.2-3.8,35.7,14.8,35.7c0,4.8-1.3,8.7-4.2,12.5c6.9-2.2,13.1-6.8,17.6-12.6C434.6,531.2,434.3,531.2,434,531.2z"/>
	<path class="st0" d="M423.4,495.6c-13.2,13.2-3.8,35.7,14.8,35.7c0,4.8-1.3,8.7-4.2,12.5c14-4.5,25.1-18.5,25.1-33.4
		C459.1,491.7,436.6,482.4,423.4,495.6z"/>
</g>
<g>
	<g class="st1">
		<path d="M221,89.3c3,1.6,5.3,3.8,6.9,6.7c1.7,2.9,2.5,6.2,2.5,9.9c0,3.8-0.8,7.1-2.5,10c-1.7,2.9-4,5.1-6.9,6.6
			c-3,1.6-6.4,2.3-10.3,2.3c-3.9,0-7.3-0.8-10.3-2.3c-3-1.6-5.3-3.8-6.9-6.6c-1.7-2.9-2.5-6.2-2.5-10c0-3.8,0.8-7.1,2.5-9.9
			c1.7-2.9,4-5.1,6.9-6.7c3-1.6,6.4-2.4,10.3-2.4C214.6,86.9,218,87.7,221,89.3z M208.3,138.9h41.6v11.3h-53.6V128h12V138.9z
			 M205,99.7c-1.5,1.5-2.2,3.6-2.2,6.3s0.7,4.8,2.2,6.3c1.5,1.5,3.4,2.3,5.7,2.3c2.3,0,4.2-0.8,5.7-2.3c1.5-1.5,2.2-3.6,2.2-6.3
			s-0.7-4.8-2.2-6.3c-1.5-1.5-3.4-2.3-5.7-2.3C208.4,97.4,206.5,98.1,205,99.7z M249.1,133.8h-11.8V86.9h11.8V133.8z"/>
		<path d="M318.1,112.6v9.1h-60.5v-9.1H318.1z M315,110.2h-54.3v-8.7h9.2v-5.9h-8.5v-8.7h53.1v8.7h-8.5v5.9h9.2V110.2z M272.7,142.5
			h42.5v7.7h-54v-16.3H303v-2.2h-42v-7.6h53.6v16.2h-41.9V142.5z M281.5,101.5h12.6v-5.9h-12.6V101.5z"/>
		<path d="M384.4,140.1h-24.1v11.6h-12.2v-11.6H324v-11.3h60.5V140.1z M369.4,97.8h-42V87.6h53.5V111h-41.9v3.6h42.6v10.2h-54.1
			v-23.4h41.9V97.8z"/>
		<path d="M421.4,121.3c-3.3,2.4-7.4,3.6-12.1,3.6c-3.8,0-7.2-0.8-10.2-2.3c-2.9-1.6-5.2-3.8-6.8-6.6c-1.6-2.9-2.4-6.2-2.4-10
			c0-3.8,0.8-7.1,2.5-9.9c1.6-2.9,3.9-5.1,6.8-6.7c2.9-1.6,6.3-2.4,10.1-2.4c4.6,0,8.6,1.1,11.8,3.4c3.3,2.3,5.5,5.4,6.7,9.3h8.8
			V86.9h11.8v47h-11.8v-22.4H428C427,115.6,424.8,118.9,421.4,121.3z M449.3,139v11.2h-53.6V128h12v11H449.3z M403.8,112.2
			c1.4,1.5,3.2,2.3,5.5,2.3c2.3,0,4.1-0.8,5.5-2.3c1.4-1.5,2.1-3.6,2.1-6.3s-0.7-4.8-2.1-6.3c-1.4-1.5-3.2-2.3-5.5-2.3
			c-2.3,0-4.1,0.8-5.5,2.3c-1.4,1.5-2.1,3.6-2.1,6.3S402.4,110.7,403.8,112.2z"/>
		<path d="M482.2,111.4l17.4,29.1l-10.1,6.7l-11.3-20c-2.4,6.4-5.5,11.4-9.2,14.8c-3.7,3.5-7.8,5.2-12.3,5.3v-13.1
			c3-0.3,5.7-2.5,8-6.5c2.3-4,4.1-9.4,5.3-16.2c1.3-6.8,1.9-14.6,1.9-23.4l12,0.4C483.9,97,483.3,104.6,482.2,111.4z M514.8,86.9
			v63.4h-11.8v-31.2h-12.6v-11.7h12.6V86.9H514.8z"/>
		<path d="M602.1,141.8H578v9.9h-12.2v-9.9h-24.2v-11.1h60.5V141.8z M600,101.1h-56.3V90.5h22v-5.2H578v5.2h22V101.1z M552.9,106.1
			c4.7-2.1,11-3.1,19-3.1c7.9,0,14.3,1,19,3.1c4.7,2.1,7.1,5.2,7.1,9.3s-2.4,7.3-7.1,9.3c-4.7,2.1-11,3.1-19,3.1
			c-7.9,0-14.3-1-19-3.1c-4.7-2.1-7.1-5.2-7.1-9.3S548.2,108.2,552.9,106.1z M582.1,113.5c-2.5-0.5-5.9-0.7-10.2-0.7
			c-4.2,0-7.6,0.2-10.2,0.7c-2.5,0.5-3.8,1.1-3.8,2c0,0.8,1.3,1.5,3.8,2c2.5,0.5,5.9,0.7,10.2,0.7c4.2,0,7.6-0.2,10.2-0.7
			c2.5-0.5,3.8-1.1,3.8-2C585.9,114.7,584.6,114,582.1,113.5z"/>
		<path d="M644.8,105.5c0,8.5-1.4,15.9-4.2,22.2c-2.8,6.3-6.8,11.1-12,14.5c-5.2,3.4-11.2,5.1-18.2,5.1v-11.9c7.1,0,12.6-2.7,16.5-8
			c3.9-5.3,5.8-12.6,5.8-21.9v-5.7h-22.3V88.3h34.4V105.5z M665.8,150.2H654V86.9h11.8V150.2z"/>
	</g>
	<g class="st1">
		<path class="st2" d="M283.7,163.5h-15.2l-13.4,36.9h-10.4l13.4-36.9H243l3.3-9.1H287L283.7,163.5z"/>
		<path class="st2" d="M287,197l-1.2,3.4h-10.2l17.2-47.4H303l-6.4,17.7c3.1-2.8,6.8-4.2,11.1-4.2c3.2,0,5.7,0.7,7.7,2.2
			c1.9,1.5,3.1,3.5,3.5,6.2c0.4,2.6,0,5.6-1.2,8.9c-1.2,3.3-3,6.3-5.3,8.9c-2.3,2.6-5,4.7-8,6.2c-3,1.5-6.1,2.2-9.3,2.2
			C290.8,201.2,288.1,199.8,287,197z M303.3,190.2c2-1.6,3.5-3.7,4.5-6.3c0.9-2.6,1-4.7,0.1-6.3c-0.9-1.6-2.5-2.5-4.9-2.5
			c-2.5,0-4.8,0.8-6.8,2.5c-2.1,1.6-3.6,3.7-4.5,6.3c-0.9,2.6-0.9,4.7-0.1,6.3s2.6,2.5,5.1,2.5C299,192.6,301.2,191.8,303.3,190.2z"
			/>
		<path class="st2" d="M327.8,200.4h-10.2l17.2-47.4h10.2L327.8,200.4z"/>
		<path class="st2" d="M342.7,199c-2.1-1.5-3.4-3.5-4-6.2c-0.5-2.6-0.2-5.6,1-8.9c1.2-3.3,3-6.3,5.5-8.9c2.4-2.6,5.3-4.7,8.5-6.2
			c3.2-1.5,6.5-2.2,9.8-2.2c3.4,0,6.1,0.7,8.2,2.2c2.1,1.5,3.4,3.5,4,6.2c0.5,2.6,0.2,5.6-1,8.9c-0.4,1.1-0.9,2.2-1.4,3.2h-24.5
			c-0.3,1.9,0,3.4,0.9,4.5s2.3,1.6,4.2,1.6c1.4,0,2.8-0.2,4.1-0.7s2.3-1.1,3-1.9h10.2c-1.3,2.1-3.1,4-5.2,5.6
			c-2.1,1.6-4.5,2.8-7.1,3.8c-2.6,0.9-5.3,1.4-7.9,1.4C347.6,201.2,344.9,200.5,342.7,199z M365.9,180.6c0.3-2,0-3.5-0.9-4.5
			c-0.9-1-2.4-1.5-4.4-1.5c-2,0-3.8,0.5-5.4,1.5c-1.6,1-3,2.5-4.2,4.5H365.9z"/>
		<path class="st2" d="M418.7,200.4l-3.8-14.5h-8.3l-5.3,14.5H391l16.7-46h18.8c3.9,0,7,0.6,9.4,1.9c2.3,1.3,3.8,3.1,4.5,5.5
			c0.6,2.4,0.4,5.1-0.8,8.3c-1.1,3.2-2.9,5.9-5.2,8.3c-2.3,2.3-5.1,4.2-8.3,5.4l4.8,16.5H418.7z M410,176.8h7.9
			c2.8,0,5.2-0.6,7.1-1.7c2-1.1,3.3-2.8,4.1-4.9c0.8-2.1,0.6-3.8-0.5-4.9c-1.1-1.1-3.1-1.7-5.9-1.7h-7.9L410,176.8z"/>
		<path class="st2" d="M441.7,199c-2.1-1.5-3.4-3.5-4-6.2c-0.5-2.6-0.2-5.6,1-8.9c1.2-3.3,3-6.3,5.5-8.9c2.4-2.6,5.3-4.7,8.5-6.2
			c3.2-1.5,6.5-2.2,9.8-2.2c3.4,0,6.1,0.7,8.2,2.2c2.1,1.5,3.4,3.5,4,6.2c0.5,2.6,0.2,5.6-1,8.9c-0.4,1.1-0.9,2.2-1.4,3.2h-24.5
			c-0.3,1.9,0,3.4,0.9,4.5c0.9,1.1,2.3,1.6,4.2,1.6c1.4,0,2.8-0.2,4.1-0.7s2.3-1.1,3-1.9h10.2c-1.3,2.1-3.1,4-5.2,5.6
			c-2.1,1.6-4.5,2.8-7.1,3.8c-2.6,0.9-5.3,1.4-7.9,1.4C446.5,201.2,443.8,200.5,441.7,199z M464.9,180.6c0.3-2,0-3.5-0.9-4.5
			c-0.9-1-2.4-1.5-4.4-1.5c-2,0-3.8,0.5-5.4,1.5c-1.6,1-3,2.5-4.2,4.5H464.9z"/>
		<path class="st2" d="M517.1,167.4l-24.9,33h-10.6l-0.8-33h11l-0.3,21.5l15.3-21.5H517.1z"/>
		<path class="st2" d="M519.6,200.5h-10.2l12.1-33.2h10.2L519.6,200.5z M536.2,153.2c0.8,1.2,0.8,2.6,0.2,4.4s-1.8,3.2-3.4,4.4
			c-1.6,1.2-3.3,1.7-5.1,1.7c-1.8,0-3.1-0.6-3.8-1.7c-0.8-1.2-0.8-2.6-0.2-4.4s1.8-3.2,3.4-4.4c1.6-1.2,3.3-1.7,5.1-1.7
			C534.2,151.4,535.5,152,536.2,153.2z"/>
		<path class="st2" d="M534.6,199c-2.1-1.5-3.4-3.5-4-6.2c-0.5-2.6-0.2-5.6,1-8.9c1.2-3.3,3-6.3,5.5-8.9c2.4-2.6,5.3-4.7,8.5-6.2
			c3.2-1.5,6.5-2.2,9.8-2.2c3.4,0,6.1,0.7,8.2,2.2c2.1,1.5,3.4,3.5,4,6.2c0.5,2.6,0.2,5.6-1,8.9c-0.4,1.1-0.9,2.2-1.4,3.2h-24.5
			c-0.3,1.9,0,3.4,0.9,4.5s2.3,1.6,4.2,1.6c1.4,0,2.8-0.2,4.1-0.7s2.3-1.1,3-1.9h10.2c-1.3,2.1-3.1,4-5.2,5.6
			c-2.1,1.6-4.5,2.8-7.1,3.8c-2.6,0.9-5.3,1.4-7.9,1.4C539.4,201.2,536.7,200.5,534.6,199z M557.8,180.6c0.3-2,0-3.5-0.9-4.5
			c-0.9-1-2.4-1.5-4.4-1.5c-2,0-3.8,0.5-5.4,1.5c-1.6,1-3,2.5-4.2,4.5H557.8z"/>
		<path class="st2" d="M629,167.4l-23.2,33h-10.2l0.8-18.9l-12.9,18.9h-10.2l0.8-33h10.8l-1.8,21.3l13.6-21.3H607l-1.9,21.4
			l13.7-21.4H629z"/>
	</g>
	<g>
		<g>
			<path class="st3" d="M433.6,47c-11.5,0-20.9-9.4-20.9-20.9c0-9.3,6.1-17.2,14.6-19.9c-6.9-2.2-14.9-0.9-20.9,5.2
				C393.1,24.5,402.4,47,421,47c0,4.8-1.3,8.7-4.2,12.5c6.9-2.2,13.1-6.8,17.6-12.6C434.2,47,433.9,47,433.6,47z"/>
		</g>
		<g>
			<path class="st3" d="M423,11.4C409.8,24.5,419.1,47,437.8,47c0,4.8-1.3,8.7-4.2,12.5c14-4.5,25.1-18.5,25.1-33.4
				C458.6,7.5,436.1-1.8,423,11.4z"/>
		</g>
	</g>
</g>
<g>
	<path d="M141,884.2c-3.4,1.8-7.2,2.8-11.2,2.9v-10.8c3.6-0.4,6.6-1.7,9.1-4c2.4-2.3,4-5.2,4.7-8.5h-13.1v-10.3h13.2V847h12v6.5
		h13.2v8.3h6.2v-13.7h11.8v43.7H175v-18.9h-7.8v-9.1h-11.5c-0.2,1.5-0.5,2.9-0.9,3.9l16,9.7l-5.6,9.3l-15.4-9.7
		C147.3,880,144.4,882.4,141,884.2z M185.5,912.3l-26.3-9.1c-3.4,2.7-7.4,4.8-12,6.2c-4.6,1.4-9.4,2.1-14.4,2.1v-11.6
		c5.8,0,10.9-1.1,15.3-3.3c4.3-2.2,7.1-5.3,8.2-9.4l11.8,2.4c-0.4,1.4-1,3-1.8,4.7l23,6.9L185.5,912.3z"/>
	<path d="M237.5,883.4h-25.3v-9.9h8.3v-10.1h11.7v10.1h5.6c3.1,0,6-0.2,8.8-0.6c2.8-0.4,5-1,6.7-1.7v9.9
		C249.8,882.6,244.6,883.4,237.5,883.4z M237.8,858.6h-23.4v-10.1h35.1v21.8h-11.8V858.6z M261.9,889.5c4.7,2.2,7,5.4,7,9.7
		s-2.4,7.5-7,9.7c-4.7,2.2-11.3,3.3-19.8,3.3c-8.6,0-15.2-1.1-19.9-3.3c-4.7-2.2-7-5.4-7-9.7s2.4-7.5,7-9.7
		c4.7-2.2,11.3-3.3,19.9-3.3C250.6,886.2,257.3,887.3,261.9,889.5z M252.9,902c2.4-0.7,3.6-1.6,3.6-2.8s-1.2-2.1-3.6-2.8
		c-2.4-0.7-6-1-10.8-1c-4.8,0-8.4,0.3-10.9,1c-2.4,0.7-3.6,1.6-3.6,2.8s1.2,2.1,3.6,2.8c2.4,0.7,6,1,10.9,1
		C246.9,903,250.5,902.7,252.9,902z M275.3,859.3v11.6h-6.9v14.8h-11.8v-37.6h11.8v11.2H275.3z"/>
	<path d="M338.2,897.5v11.7h-60.5v-11.7h19.5v-24.8h12.2v24.8H338.2z M322.6,861.2h-41.7v-11.7h54v41.8h-12.3V861.2z"/>
	<path d="M403.8,898.7h-24.2V913h-12v-14.2h-24.2v-11.6h60.5V898.7z M372.9,872.2c-3.4,3.2-7.4,5.7-12.2,7.6s-9.8,2.8-15.2,2.8
		v-11.4c4.7-0.1,9.1-1.1,13.1-3.1c4-2,6.9-4.6,8.6-7.8h-20.6v-11.3h53.9v11.3h-20.2c-0.2,0.7-0.5,1.6-0.9,2.6l23.5,9.4l-4.5,10.4
		L372.9,872.2z"/>
	<path d="M442.6,897.5c2.4,0,4.9-0.2,7.5-0.6c2.5-0.4,4.7-0.9,6.5-1.6v10.8c-1.7,0.7-3.9,1.3-6.7,1.7s-5.5,0.6-8.3,0.6h-13.7v-58.9
		h26.1v11h-14.7v37H442.6z M486.3,848.1v63.4h-11.1v-28.2h-5v27.1h-10.9v-62h10.9v23h5v-23.3H486.3z"/>
	<path d="M504.2,879.1c-3.6,2.1-7.6,3.3-11.9,3.6v-11.2c3.1-0.4,5.9-1.6,8.2-3.7c2.4-2,4.2-4.8,5.6-8.1c1.4-3.4,2-7.1,2.1-11.3
		l11.9,0.7c0,4.2-0.6,8.1-1.9,12l16.2,10.9l-6,9l-15-10.5C511,874.2,507.9,877,504.2,879.1z M541.7,887.3c4.9,2.2,7.4,5.9,7.4,10.8
		c0,4.9-2.5,8.5-7.4,10.8c-4.9,2.2-11.4,3.4-19.6,3.4c-8.2,0-14.7-1.1-19.6-3.4s-7.4-5.9-7.4-10.8c0-5,2.5-8.5,7.4-10.8
		c4.9-2.2,11.4-3.4,19.6-3.4C530.3,883.9,536.8,885,541.7,887.3z M532.4,901.2c2.6-0.7,3.9-1.7,3.9-3.1c0-1.4-1.3-2.4-3.9-3.1
		c-2.6-0.7-6-1-10.3-1s-7.7,0.4-10.3,1s-3.9,1.7-3.9,3.1c0,1.4,1.3,2.5,3.9,3.1c2.6,0.7,6,1,10.3,1
		C526.4,902.2,529.8,901.9,532.4,901.2z M555.5,857.8v12h-7V883h-11.8v-34.9h11.8v9.7L555.5,857.8L555.5,857.8z"/>
	<path d="M636.3,897.5v11.7h-60.5v-11.7H636.3z M633.5,889.1h-55v-11.5h9.1v-16.4h-8.5v-11.6h53.8v11.6h-8.5v16.4h9.1V889.1z
		 M599.5,877.6h13v-16.4h-13V877.6z"/>
	<path d="M701.9,897.8v11.4h-60.5v-11.4h24.2v-7.1h-20.9v-25.8h42.1v-4.3h-42.3v-11h54v25.8h-42.1v4.4h42.8v11h-21.6v7.1H701.9
		L701.9,897.8z"/>
	<path d="M767.4,897.5v11.7H707v-11.7h24.2v-10.2h-20.9v-37.7h53.9v37.7h-20.9v10.2H767.4z M722,875.6h30.4v-14.3H722V875.6z"/>
	<path d="M783.8,883.9c-3.5,2.3-7.3,3.6-11.4,3.9v-11.7c3-0.4,5.7-1.9,8.1-4.5c2.4-2.6,4.2-5.9,5.5-10s2-8.5,2.1-13.2l11.9,0.7
		c0,5.2-0.8,10.3-2.4,15.3l11.8,10.1v-8.6h9.6v-3.7h-9.6V852h9.6v-3.9h11.6v47H819v-18.9h-7.6l2.9,2.5l-7.3,8.5l-14.1-12.6
		C790.3,878.4,787.3,881.6,783.8,883.9z M831.5,900.3v11.2h-54.3v-21.6h12v10.4H831.5z"/>
</g>
<g>
	<path class="st4" d="M294,924.8h-15.2l-13.4,36.9H255l13.4-36.9h-15.2l3.3-9.1h40.7L294,924.8z"/>
	<path class="st4" d="M303.1,914.3h10.2l-6.4,17.7c3.1-2.8,6.7-4.2,10.9-4.2c2.6,0,4.7,0.6,6.2,1.8c1.5,1.2,2.5,2.9,2.8,5.1
		c0.3,2.2-0.1,4.8-1.2,7.8l-7,19.1h-10.2l6.3-17.4c0.9-2.5,1.1-4.5,0.6-5.8c-0.5-1.3-1.7-2-3.6-2c-2,0-3.8,0.7-5.5,2.2
		c-1.7,1.5-3,3.5-3.9,6l-6.2,17h-10.2L303.1,914.3z"/>
	<path class="st4" d="M332.7,960.2c-2.1-1.5-3.4-3.5-4-6.2s-0.2-5.6,1-8.9s3-6.3,5.5-8.9s5.3-4.7,8.5-6.2c3.2-1.5,6.5-2.2,9.8-2.2
		s6.1,0.7,8.2,2.2c2.1,1.5,3.4,3.5,4,6.2s0.2,5.6-1,8.9c-0.4,1.1-0.9,2.2-1.4,3.2h-24.5c-0.3,1.9,0,3.4,0.9,4.5
		c0.9,1,2.3,1.6,4.2,1.6c1.5,0,2.8-0.2,4.1-0.7c1.3-0.5,2.3-1.1,3-1.9h10.2c-1.3,2.1-3.1,4-5.2,5.5c-2.1,1.6-4.5,2.9-7.1,3.8
		c-2.6,0.9-5.3,1.4-7.9,1.4C337.5,962.5,334.8,961.7,332.7,960.2z M355.8,941.9c0.3-2,0-3.5-0.9-4.5c-0.9-1-2.4-1.5-4.4-1.5
		s-3.8,0.5-5.4,1.5c-1.6,1-3,2.5-4.2,4.5H355.8z"/>
	<path class="st4" d="M397.6,915.7h17.9c4,0,7.2,0.7,9.6,2.1c2.4,1.4,3.9,3.3,4.5,5.9c0.6,2.5,0.3,5.5-0.9,8.8
		c-1.2,3.4-3.1,6.4-5.5,8.9c-2.5,2.5-5.4,4.5-8.8,5.9c-3.4,1.4-7.1,2.1-11.1,2.1h-7.5l-4.5,12.2h-10.4L397.6,915.7z M406.1,940.4
		c2.9,0,5.5-0.7,7.6-2c2.1-1.3,3.6-3.3,4.5-5.8c0.9-2.5,0.8-4.4-0.3-5.8s-3.2-2-6.1-2h-7l-5.7,15.6H406.1z"/>
	<path class="st4" d="M435.4,928.6h10.2l-1.2,3.4c3.1-2.8,6.7-4.2,10.9-4.2c1.8,0,3.2,0.2,4.2,0.6l-3.3,9.4
		c-1.2-0.8-2.8-1.1-4.8-1.1c-2.7,0-5.1,0.7-7.2,2.1s-3.6,3.4-4.5,5.9l-6.2,16.9h-10.2L435.4,928.6z"/>
	<path class="st4" d="M487.8,930.1c2.2,1.5,3.5,3.5,4.1,6.2c0.6,2.6,0.2,5.6-1,8.9s-3,6.3-5.5,8.9s-5.4,4.7-8.6,6.2s-6.6,2.2-10,2.2
		c-3.4,0-6.2-0.7-8.3-2.2c-2.2-1.5-3.5-3.5-4.1-6.2c-0.6-2.6-0.2-5.6,1-8.9s3-6.3,5.5-8.9s5.4-4.7,8.6-6.2c3.2-1.5,6.6-2.2,10-2.2
		S485.7,928.6,487.8,930.1z M469.7,938.9c-2.1,1.6-3.6,3.7-4.5,6.3s-1,4.7-0.1,6.3c0.9,1.6,2.5,2.5,4.9,2.5c2.4,0,4.6-0.8,6.6-2.5
		c2.1-1.6,3.6-3.7,4.5-6.3s1-4.6,0.1-6.3c-0.9-1.6-2.5-2.5-4.9-2.5C474,936.4,471.8,937.2,469.7,938.9z"/>
	<path class="st4" d="M503,928.6h10.2l-1.1,3.2c1.5-1.4,3.1-2.4,4.6-3c1.5-0.6,3.2-1,5.1-1c2.1,0,3.9,0.4,5.3,1.2
		c1.4,0.8,2.4,2,3,3.5c1.8-1.6,3.8-2.8,5.9-3.5c2.1-0.8,4.4-1.2,7-1.2c2.5,0,4.6,0.6,6.1,1.8c1.5,1.2,2.4,2.9,2.7,5.1
		c0.3,2.2-0.2,4.8-1.2,7.8l-7,19.1h-10.2l6.3-17.4c0.9-2.5,1.1-4.5,0.7-5.8c-0.5-1.3-1.6-2-3.5-2c-1.6,0-3.1,0.6-4.5,1.9
		c-1.3,1.2-2.5,3-3.4,5.4l-6.5,17.9H512l6.3-17.4c0.9-2.5,1.1-4.5,0.7-5.8c-0.5-1.3-1.6-2-3.5-2c-1.6,0-3.1,0.6-4.5,1.9
		c-1.4,1.2-2.5,3-3.4,5.4l-6.5,17.9h-10.2L503,928.6z"/>
	<path class="st4" d="M586.9,930.1c2.2,1.5,3.5,3.5,4.1,6.2c0.6,2.6,0.2,5.6-1,8.9s-3,6.3-5.5,8.9c-2.5,2.6-5.3,4.7-8.6,6.2
		s-6.6,2.2-10,2.2c-3.4,0-6.2-0.7-8.3-2.2c-2.2-1.5-3.5-3.5-4.1-6.2c-0.6-2.6-0.2-5.6,1-8.9s3-6.3,5.5-8.9c2.5-2.6,5.3-4.7,8.6-6.2
		c3.2-1.5,6.6-2.2,10-2.2S584.8,928.6,586.9,930.1z M568.8,938.9c-2.1,1.6-3.6,3.7-4.5,6.3s-1,4.7-0.1,6.3c0.9,1.6,2.5,2.5,4.9,2.5
		c2.4,0,4.6-0.8,6.6-2.5c2.1-1.6,3.6-3.7,4.5-6.3s1-4.6,0.1-6.3c-0.9-1.6-2.5-2.5-4.9-2.5C573.1,936.4,570.9,937.2,568.8,938.9z"/>
	<path class="st4" d="M618.7,937.3h-6.6l-8.9,24.4H593l8.9-24.4h-6.6l3.1-8.6h6.6l3.6-9.8h10.2l-3.6,9.8h6.6L618.7,937.3z"/>
	<path class="st4" d="M624.7,961.8h-10.2l12.1-33.2h10.2L624.7,961.8z M641.3,914.4c0.8,1.2,0.8,2.6,0.2,4.4
		c-0.6,1.8-1.8,3.2-3.4,4.4c-1.6,1.2-3.3,1.8-5.1,1.8s-3.1-0.6-3.8-1.8s-0.8-2.6-0.2-4.4c0.6-1.8,1.8-3.2,3.4-4.4
		c1.6-1.2,3.3-1.8,5.1-1.8C639.3,912.7,640.6,913.3,641.3,914.4z"/>
	<path class="st4" d="M669.2,930.1c2.2,1.5,3.5,3.5,4.1,6.2c0.6,2.6,0.2,5.6-1,8.9s-3,6.3-5.5,8.9c-2.5,2.6-5.3,4.7-8.6,6.2
		s-6.6,2.2-10,2.2c-3.4,0-6.2-0.7-8.3-2.2c-2.2-1.5-3.5-3.5-4.1-6.2c-0.6-2.6-0.2-5.6,1-8.9s3-6.3,5.5-8.9c2.5-2.6,5.3-4.7,8.6-6.2
		c3.2-1.5,6.6-2.2,10-2.2S667,928.6,669.2,930.1z M651.1,938.9c-2.1,1.6-3.6,3.7-4.5,6.3s-1,4.7-0.1,6.3c0.9,1.6,2.5,2.5,4.9,2.5
		c2.4,0,4.6-0.8,6.6-2.5c2.1-1.6,3.6-3.7,4.5-6.3s1-4.6,0.1-6.3c-0.9-1.6-2.5-2.5-4.9-2.5C655.3,936.4,653.1,937.2,651.1,938.9z"/>
	<path class="st4" d="M684.3,928.6h10.2l-1.2,3.4c3.1-2.8,6.7-4.2,10.9-4.2c2.6,0,4.7,0.6,6.2,1.8c1.5,1.2,2.5,2.9,2.8,5.1
		c0.3,2.2-0.1,4.8-1.2,7.8l-7,19.1h-10.2l6.3-17.4c0.9-2.5,1.1-4.5,0.6-5.8c-0.5-1.3-1.7-2-3.7-2c-2,0-3.8,0.7-5.5,2.2
		c-1.7,1.5-3,3.5-3.9,6l-6.2,17h-10.2L684.3,928.6z"/>
</g>
<g>
	<g>
		<path class="st3" d="M490.4,808.3c-11.5,0-20.9-9.4-20.9-20.9c0-9.3,6.1-17.2,14.6-19.9c-6.9-2.2-14.9-0.9-20.9,5.2
			c-13.2,13.2-3.8,35.7,14.8,35.7c0,4.8-1.3,8.7-4.2,12.5c6.9-2.2,13.1-6.8,17.6-12.6C491,808.2,490.7,808.3,490.4,808.3z"/>
	</g>
	<g>
		<path class="st3" d="M479.8,772.6c-13.2,13.2-3.8,35.7,14.8,35.7c0,4.8-1.3,8.7-4.2,12.5c14-4.5,25.1-18.5,25.1-33.4
			C515.4,768.8,492.9,759.4,479.8,772.6z"/>
	</g>
</g>
<text transform="matrix(0.9434 0 0 1 110.645 -103.4567)" style="font-family:'GmarketSansTTFBold'; font-size:74.2px;">티블을 선택하는 이유</text>
<text transform="matrix(0.9536 0 -0.342 0.9397 256.6051 -50.6286)" class="st4" style="font-family:'GmarketSansTTFBold'; font-size:60px;">Tble Point</text>
<g>
	<path class="st0" d="M434-199c-11.5,0-20.9-9.4-20.9-20.9c0-9.3,6.1-17.2,14.6-19.9c-6.9-2.2-14.9-0.9-20.9,5.2
		c-13.2,13.2-3.8,35.7,14.8,35.7c0,4.8-1.3,8.7-4.2,12.5c6.9-2.2,13.1-6.8,17.6-12.6C434.6-199,434.3-199,434-199z"/>
	<path class="st0" d="M423.4-234.6c-13.2,13.2-3.8,35.7,14.8,35.7c0,4.8-1.3,8.7-4.2,12.5c14-4.5,25.1-18.5,25.1-33.4
		C459.1-238.5,436.6-247.8,423.4-234.6z"/>
</g>
<g>
	<path class="st0" d="M181.1-375.1h-25.3v-9.9h8.3V-395h11.7v10.1h5.6c3.1,0,6-0.2,8.8-0.6s5-1,6.7-1.7v9.9
		C193.5-375.9,188.3-375.1,181.1-375.1z M181.4-399.8H158v-10.1h35.1v21.8h-11.8V-399.8z M205.6-368.9c4.7,2.2,7,5.4,7,9.7
		s-2.4,7.5-7,9.7c-4.7,2.2-11.3,3.3-19.8,3.3c-8.6,0-15.2-1.1-19.9-3.3c-4.7-2.2-7-5.4-7-9.7s2.4-7.5,7-9.7s11.3-3.3,19.9-3.3
		C194.3-372.2,200.9-371.1,205.6-368.9z M196.5-356.4c2.4-0.7,3.6-1.6,3.6-2.8s-1.2-2.1-3.6-2.8s-6-1-10.8-1c-4.8,0-8.4,0.3-10.9,1
		c-2.4,0.7-3.6,1.6-3.6,2.8s1.2,2.1,3.6,2.8c2.4,0.7,6,1,10.9,1C190.5-355.4,194.1-355.8,196.5-356.4z M218.9-399.1v11.6h-6.9v14.8
		h-11.8v-37.6h11.8v11.2L218.9-399.1L218.9-399.1z"/>
	<path class="st0" d="M281.9-360.9v11.7h-60.5v-11.7h19.5v-24.8h12.2v24.8H281.9z M266.2-397.2h-41.7v-11.6h54v41.8h-12.3V-397.2z"
		/>
	<path class="st0" d="M347.5-379.8v10.3h-24.3v8.6h-11.9v-8.6H287v-10.3H347.5z M302.5-357.4h42.1v10.4h-54.2v-18.8h12L302.5-357.4
		L302.5-357.4z M343.8-383.5h-53.2v-26.9h53.2V-383.5z M332-400.5h-29.7v7.1H332V-400.5z"/>
	<path class="st0" d="M388.3-350.6c-2.9,0.5-5.9,0.7-9,0.7h-26.7v-11.7h27.2c3,0,5.9-0.2,8.6-0.6s5-1,6.8-1.9v11.6
		C393.5-351.8,391.2-351.1,388.3-350.6z M383.1-407.3c2.9,1.7,5.1,4.1,6.8,7.2c1.6,3.1,2.5,6.7,2.5,10.8s-0.8,7.6-2.5,10.8
		s-3.9,5.5-6.8,7.2c-2.9,1.7-6.1,2.6-9.8,2.6c-3.7,0-7-0.9-9.9-2.6c-2.9-1.7-5.2-4.1-6.8-7.2c-1.6-3.1-2.5-6.7-2.5-10.8
		s0.8-7.6,2.5-10.8s3.9-5.5,6.8-7.2c2.9-1.7,6.2-2.6,9.9-2.6C377-409.9,380.2-409,383.1-407.3z M367.7-396c-1.4,1.8-2.1,4-2.1,6.7
		c0,2.8,0.7,5,2.1,6.8s3.3,2.6,5.6,2.6c2.3,0,4.2-0.9,5.6-2.6s2.1-4,2.1-6.7s-0.7-5-2.1-6.7s-3.3-2.6-5.6-2.6
		C371-398.7,369.1-397.8,367.7-396z M410.5-347h-11.8v-63.4h11.8V-347z"/>
	<path class="st0" d="M448.3-375.8c-3.6,2.3-7.4,3.5-11.5,3.7v-11.6c3.1-0.4,5.8-1.8,8.3-4.2s4.4-5.5,5.8-9.4
		c1.4-3.9,2.1-8.1,2.2-12.7l11.9,0.7c0,5-0.8,9.9-2.4,14.5l17.2,12.9l-6.9,8.9l-15.2-12C455-381.1,451.9-378,448.3-375.8z
		 M494.7-358.2v11.3h-54.3v-22.2h12v10.9H494.7z M493.8-363.4H482v-46.9h11.8V-363.4z"/>
	<path class="st0" d="M513.5-375.9c-3.3,1.8-7,2.7-10.9,2.8v-10.5c3.4-0.3,6.3-1.5,8.7-3.8s4-4.9,4.9-8h-12.9v-10.1h13.2v-5.9h12
		v5.9h13.2v7.3h6.2v-12h11.8v37.6h-11.8v-14.5H540v-8.3h-11.7c-0.4,1.6-0.7,2.8-1,3.5l16.1,9.2l-5.3,9.2l-16-9.4
		C519.7-380,516.9-377.7,513.5-375.9z M552.9-368.9c4.9,2,7.4,5.3,7.4,9.8s-2.5,7.8-7.4,9.8s-11.6,3-19.9,3c-8.3,0-15-1-19.9-3
		c-4.9-2-7.4-5.3-7.4-9.8s2.5-7.8,7.4-9.8c4.9-2,11.6-3,19.9-3C541.3-371.9,547.9-370.9,552.9-368.9z M543.7-356.5
		c2.6-0.5,3.9-1.3,3.9-2.5c0-2.2-4.9-3.3-14.6-3.3s-14.6,1.1-14.6,3.3c0,1.2,1.3,2,3.9,2.5c2.6,0.5,6.2,0.7,10.7,0.7
		S541-356,543.7-356.5z"/>
	<path class="st0" d="M593.9-402.7h13.3v11.4h-38.8v-11.4h13.4v-7.9h12.1L593.9-402.7L593.9-402.7z M597-386.1c2.6,1.7,4.7,4.1,6,7
		c1.4,3,2.1,6.4,2.1,10.1s-0.7,7.1-2.1,10.1c-1.4,3-3.4,5.3-6,7c-2.6,1.7-5.7,2.6-9.2,2.6s-6.6-0.9-9.2-2.6s-4.7-4.1-6.1-7
		c-1.4-3-2.1-6.4-2.1-10.1s0.7-7.1,2.1-10.1c1.4-3,3.4-5.3,6.1-7s5.7-2.6,9.2-2.6S594.4-387.8,597-386.1z M592.3-362.4
		c1.1-1.6,1.6-3.8,1.6-6.5s-0.5-4.9-1.6-6.5s-2.6-2.5-4.5-2.5s-3.4,0.8-4.5,2.5s-1.6,3.8-1.6,6.5s0.5,4.9,1.6,6.5s2.6,2.5,4.5,2.5
		S591.2-360.8,592.3-362.4z M630.3-375h-7v28h-11.8v-63.4h11.8v23.1h7V-375z"/>
	<path class="st0" d="M669.5-391.7c0,8.5-1.4,15.9-4.2,22.2c-2.8,6.3-6.8,11.1-12,14.5s-11.2,5.1-18.2,5.1v-11.9
		c7.1,0,12.7-2.7,16.5-8s5.8-12.6,5.8-21.9v-5.7h-22.3v-11.4h34.4V-391.7z M690.6-347h-11.8v-63.4h11.8V-347z"/>
</g>
<g>
	<path class="st4" d="M255.4-298.8c-3-2.1-5-5-5.8-8.6c-0.8-3.7-0.4-7.8,1.3-12.4c1.7-4.6,4.2-8.7,7.7-12.4s7.5-6.5,12.1-8.6
		c4.5-2.1,9.2-3.1,13.9-3.1c4.2,0,7.6,0.8,10.4,2.2s4.7,3.6,5.8,6.2s1.4,5.6,0.8,8.9h-10.5c0.2-2.2-0.5-4.1-2.2-5.6
		c-1.7-1.5-4.2-2.3-7.5-2.3c-2.8,0-5.5,0.6-8.2,1.9s-5.1,3-7.2,5.2c-2.1,2.2-3.6,4.8-4.7,7.6c-1,2.8-1.3,5.3-0.8,7.6
		c0.5,2.2,1.6,4,3.4,5.3c1.8,1.3,4.1,1.9,6.9,1.9c2.1,0,4.3-0.4,6.5-1.2s4.1-1.9,5.9-3.2s3-2.7,3.7-4.1h10.5c-1.6,3.1-4,6-7.1,8.8
		c-3.1,2.7-6.7,5-10.8,6.6c-4.1,1.7-8.2,2.5-12.3,2.5C262.3-295.6,258.4-296.7,255.4-298.8z"/>
	<path class="st4" d="M333.7-328.4c2.2,1.5,3.5,3.5,4.1,6.2c0.6,2.6,0.2,5.6-1,8.9s-3,6.3-5.5,8.9s-5.4,4.7-8.6,6.2s-6.6,2.2-10,2.2
		c-3.4,0-6.2-0.7-8.3-2.2c-2.2-1.5-3.5-3.5-4.1-6.2c-0.6-2.6-0.2-5.6,1-8.9s3-6.3,5.5-8.9s5.4-4.7,8.6-6.2s6.6-2.2,10-2.2
		S331.5-329.9,333.7-328.4z M315.5-319.6c-2.1,1.6-3.6,3.7-4.5,6.3s-1,4.6-0.1,6.3c0.9,1.6,2.5,2.5,4.9,2.5c2.4,0,4.6-0.8,6.6-2.5
		c2.1-1.6,3.6-3.7,4.5-6.3s1-4.6,0.1-6.3c-0.9-1.6-2.5-2.5-4.9-2.5C319.8-322,317.6-321.2,315.5-319.6z"/>
	<path class="st4" d="M348.8-329.8h10.2l-1.2,3.4c3.1-2.8,6.7-4.2,10.9-4.2c2.6,0,4.7,0.6,6.2,1.8c1.5,1.2,2.5,2.9,2.8,5.1
		s-0.1,4.8-1.2,7.8l-7,19.1h-10.2l6.3-17.4c0.9-2.5,1.1-4.5,0.6-5.8c-0.5-1.3-1.7-2-3.6-2c-2,0-3.8,0.7-5.5,2.2s-3,3.5-3.9,6
		l-6.2,17h-10.2L348.8-329.8z"/>
	<path class="st4" d="M405.2-321.2h-6.6l-8.9,24.4h-10.2l8.9-24.4h-6.6l3.1-8.6h6.6l3.6-9.8h10.2l-3.6,9.8h6.6L405.2-321.2z"/>
	<path class="st4" d="M407-298.2c-1.9-1.5-3.1-3.5-3.5-6.2c-0.4-2.6,0-5.6,1.2-8.9c1.2-3.3,3-6.3,5.3-8.9s5-4.7,8-6.2
		s6.1-2.2,9.3-2.2c4.3,0,7,1.4,8.1,4.2l1.2-3.4h10.2l-12,33h-10.2l1.2-3.4c-3.1,2.8-6.8,4.2-11.1,4.2
		C411.5-296,408.9-296.7,407-298.2z M426.2-307c2.1-1.6,3.6-3.7,4.5-6.3s1-4.6,0.1-6.3c-0.9-1.6-2.6-2.5-5.1-2.5
		c-2.4,0-4.6,0.8-6.7,2.5c-2,1.6-3.5,3.7-4.5,6.3s-1,4.6-0.1,6.3c0.9,1.6,2.5,2.5,4.9,2.5C421.8-304.5,424.1-305.4,426.2-307z"/>
	<path class="st4" d="M470.3-299.5c-3.9,2.3-7.9,3.5-12.1,3.5c-3.4,0-6.2-0.7-8.3-2.2c-2.2-1.5-3.5-3.5-4.1-6.2
		c-0.6-2.6-0.2-5.6,1-8.9s3-6.3,5.5-8.9s5.4-4.7,8.6-6.2s6.6-2.2,10-2.2c2.9,0,5.3,0.5,7.2,1.7c2,1.1,3.4,2.6,4.2,4.5
		c0.8,1.9,1,4,0.5,6.4h-10.3c0-1.2-0.4-2.1-1.2-2.8s-2-1-3.6-1c-2.4,0-4.5,0.8-6.6,2.4c-2,1.6-3.5,3.7-4.4,6.2s-1,4.6-0.1,6.2
		c0.9,1.6,2.5,2.4,4.8,2.4c1.6,0,3-0.4,4.4-1.1c1.4-0.7,2.5-1.7,3.4-2.9h10.3C477.2-304.8,474.1-301.8,470.3-299.5z"/>
	<path class="st4" d="M509.3-321.2h-6.6l-8.9,24.4h-10.2l8.9-24.4h-6.6l3.1-8.6h6.6l3.6-9.8h10.2l-3.6,9.8h6.6L509.3-321.2z"/>
	<path class="st4" d="M527.3-297.8c-1.5-1.2-2.5-2.9-2.8-5.1s0.1-4.8,1.2-7.8l7-19.1h10.2l-6.3,17.4c-0.9,2.5-1.1,4.5-0.6,5.8
		c0.5,1.3,1.7,2,3.7,2c2,0,3.8-0.7,5.5-2.2s3-3.5,3.9-6l6.2-17h10.2l-12,33h-10.2l1.2-3.4c-3.1,2.8-6.7,4.2-10.9,4.2
		C530.9-296,528.8-296.6,527.3-297.8z"/>
	<path class="st4" d="M594.5-329.3c2,0.9,3.3,2.1,4.1,3.8s0.8,3.5,0.2,5.6H589c0.2-1-0.1-1.8-0.9-2.4c-0.8-0.6-2-0.9-3.5-0.9
		c-1.5,0-2.9,0.2-4.1,0.7s-1.9,1.1-2.2,1.8c-0.3,0.8,0.1,1.4,1.1,1.9c1,0.5,2.9,1,5.7,1.4c4.6,0.7,7.6,1.9,9.1,3.5s1.7,3.9,0.6,6.8
		c-0.8,2.2-2.2,4.1-4.2,5.8s-4.4,2.9-7.1,3.8s-5.5,1.4-8.4,1.4c-2.9,0-5.3-0.5-7.4-1.4s-3.4-2.2-4.2-3.9c-0.8-1.7-0.8-3.7-0.1-5.9
		h9.8c-0.2,1,0.1,1.9,1,2.6c0.9,0.7,2.2,1,3.8,1c1.6,0,3.1-0.3,4.3-0.8c1.3-0.5,2-1.2,2.3-1.9c0.3-0.8-0.1-1.5-1.2-2s-3-1-5.7-1.4
		c-4.2-0.6-7.1-1.7-8.7-3.3c-1.7-1.5-1.9-3.9-0.8-7c0.8-2.1,2.1-4,4-5.5c1.9-1.6,4.2-2.8,6.9-3.7c2.6-0.9,5.4-1.3,8.2-1.3
		C590.1-330.6,592.5-330.2,594.5-329.3z"/>
</g>
<g>
	<g>
		<path class="st3" d="M434-450.2c-11.5,0-20.9-9.4-20.9-20.9c0-9.3,6.1-17.2,14.6-19.9c-6.9-2.2-14.9-0.9-20.9,5.2
			c-13.2,13.2-3.8,35.7,14.8,35.7c0,4.8-1.3,8.7-4.2,12.5c6.9-2.2,13.1-6.8,17.6-12.6C434.6-450.2,434.3-450.2,434-450.2z"/>
	</g>
	<g>
		<path class="st3" d="M423.4-485.8c-13.2,13.2-3.8,35.7,14.8,35.7c0,4.8-1.3,8.7-4.2,12.5c14-4.5,25.1-18.5,25.1-33.4
			C459.1-489.7,436.6-499,423.4-485.8z"/>
	</g>
</g>
<g>
	<path d="M196.1-672.1h-40.9v-9.2h14.4v-4.8h12v4.8h14.4L196.1-672.1L196.1-672.1z M162.7-650.3c-3.5-2-5.2-4.9-5.2-8.6
		c0-3.7,1.7-6.5,5.2-8.6s7.8-3.1,13-3.1s9.5,1,13,3.1c3.5,2,5.2,4.9,5.2,8.6c0,3.7-1.7,6.5-5.2,8.6c-3.5,2-7.8,3.1-13,3.1
		S166.2-648.3,162.7-650.3z M159.1-645.2h52.8v23.6h-52.8V-645.2z M170.5-661c-1.3,0.5-1.9,1.3-1.9,2.2s0.6,1.6,1.9,2.2
		c1.3,0.5,3,0.8,5.1,0.8s3.9-0.3,5.1-0.8c1.3-0.5,1.9-1.3,1.9-2.2s-0.6-1.6-1.9-2.2c-1.3-0.5-3-0.8-5.1-0.8S171.8-661.6,170.5-661z
		 M170.8-631.2h29.4v-4.5h-29.4V-631.2z M218.9-660.3h-7v12.8h-11.8V-685h11.8v12.8h7L218.9-660.3L218.9-660.3z"/>
	<path d="M236.8-666.4c0,9.1-0.5,16.5-1.5,22c-1,5.6-2.6,9.8-4.8,12.7c-2.2,2.8-5.2,4.5-9,4.9v-10.5c1.4-0.3,2.5-1.5,3.3-3.6
		c0.8-2,1.3-5,1.6-8.9c0.3-3.9,0.5-9,0.5-15.3v-8.2h-5.4v-10.2h15.3L236.8-666.4L236.8-666.4z M257.6-684.7h10.1v62h-10.1v-27.8
		h-4.8c-0.8,8.6-2.4,14.9-5,19c-2.6,4-6.3,6.4-11.2,6.9v-10.5c2.3-0.6,4-3.3,5.1-7.9s1.6-11.8,1.6-21.6v-8.8h-4.5v-10.2h14.6v17.7
		v3.8h4.1V-684.7z M281.2-685v63.4H271V-685H281.2z"/>
	<path d="M313.7-677.4H327v11.4h-38.8v-11.4h13.4v-7.9h12.1L313.7-677.4L313.7-677.4z M316.8-660.8c2.6,1.7,4.6,4.1,6,7
		s2.1,6.4,2.1,10.1s-0.7,7.1-2.1,10.1s-3.4,5.3-6,7c-2.6,1.7-5.7,2.6-9.2,2.6s-6.6-0.8-9.2-2.6c-2.6-1.7-4.6-4.1-6.1-7
		c-1.4-3-2.1-6.4-2.1-10.1s0.7-7.1,2.1-10.1c1.4-3,3.4-5.3,6.1-7c2.6-1.7,5.7-2.6,9.2-2.6S314.2-662.5,316.8-660.8z M312.1-637.1
		c1.1-1.6,1.6-3.8,1.6-6.5c0-2.7-0.5-4.9-1.6-6.5c-1.1-1.6-2.6-2.5-4.5-2.5s-3.4,0.8-4.5,2.5s-1.6,3.8-1.6,6.5
		c0,2.7,0.5,4.9,1.6,6.5c1.1,1.6,2.6,2.5,4.5,2.5C309.5-634.6,311-635.5,312.1-637.1z M350.1-649.7h-7v28h-11.8V-685h11.8v23.2h7
		V-649.7z"/>
	<path d="M413-644.8h-60.5v-10.5H413V-644.8z M368.1-632.1h42.1v10.5h-54.2v-19.7h12V-632.1z M368.1-670H410v10.4h-53.8v-25.8h11.9
		V-670z"/>
	<path d="M470.8-636.8c2.9-0.6,5.1-1.3,6.7-2.1v11.2c-1.8,0.9-4.1,1.7-7.1,2.2c-3,0.5-5.9,0.8-8.9,0.8h-25V-636h4.9v-36.2H437v-11.3
		h38.3v11.3h-4.5L470.8-636.8L470.8-636.8z M453.1-636h6.1v-36.2h-6.1V-636z M499.1-649.7h-7v28h-11.8V-685h11.8v23.2h7V-649.7z"/>
	<path d="M562.1-635.4v11.5h-60.5v-11.5H562.1z M559.5-641.2h-54.5v-42.3h53.8v11h-42.1v5h41.2v10.4h-41.2v5h42.8V-641.2z"/>
	<path d="M592.7-636.1c2.8,0,5.7-0.3,8.5-0.8s5.2-1.2,7-2.1v11.3c-1.8,0.9-4.1,1.7-7,2.2c-2.9,0.5-5.8,0.8-8.8,0.8h-22.8v-59.3h12.2
		v47.8L592.7-636.1L592.7-636.1z M625.3-685v63.4h-11.8V-653H595v-12.1h18.5v-20L625.3-685L625.3-685z"/>
	<path d="M658.5-657.7l17.3,25.8l-9.7,7.2l-11.9-18.5c-2.5,6-5.5,10.6-9.2,13.7c-3.7,3.2-7.8,4.8-12.3,4.8v-12.9
		c3.2-0.4,6-2.6,8.4-6.6c2.4-4,4.3-9.4,5.6-16.2c1.3-6.8,2-14.7,2-23.4l12,0.5C660.8-674,660.1-665.5,658.5-657.7z M695.9-649.7h-7
		v28h-11.8V-685h11.8v23.2h7V-649.7z"/>
</g>
<g>
	<path class="st4" d="M269.3-608.3h-15.2l-13.4,36.9h-10.4l13.4-36.9h-15.2l3.3-9.1h40.7L269.3-608.3z"/>
	<path class="st4" d="M272.6-574.8l-1.2,3.4h-10.2l17.2-47.4h10.2l-6.4,17.7c3.1-2.8,6.8-4.2,11.1-4.2c3.2,0,5.7,0.7,7.7,2.2
		s3.1,3.5,3.5,6.2c0.4,2.6,0,5.6-1.2,8.9c-1.2,3.3-3,6.3-5.3,8.9c-2.3,2.6-5,4.7-8,6.2s-6.1,2.2-9.3,2.2
		C276.4-570.7,273.7-572.1,272.6-574.8z M288.9-581.7c2-1.6,3.5-3.7,4.5-6.3s1-4.7,0.1-6.3c-0.9-1.6-2.5-2.5-4.9-2.5
		c-2.5,0-4.8,0.8-6.8,2.5c-2.1,1.6-3.6,3.7-4.5,6.3s-1,4.7-0.1,6.3c0.9,1.6,2.6,2.5,5.1,2.5C284.6-579.2,286.9-580.1,288.9-581.7z"
		/>
	<path class="st4" d="M313.5-571.5h-10.2l17.2-47.4h10.2L313.5-571.5z"/>
	<path class="st4" d="M328.4-572.9c-2.1-1.5-3.4-3.5-4-6.2s-0.2-5.6,1-8.9s3-6.3,5.5-8.9c2.4-2.6,5.3-4.7,8.5-6.2
		c3.2-1.5,6.5-2.2,9.8-2.2s6.1,0.7,8.2,2.2c2.1,1.5,3.4,3.5,4,6.2s0.2,5.6-1,8.9c-0.4,1.1-0.9,2.2-1.4,3.2h-24.5
		c-0.3,1.9,0,3.4,0.9,4.5c0.9,1,2.3,1.6,4.2,1.6c1.5,0,2.8-0.2,4.1-0.7c1.3-0.5,2.3-1.1,3-1.9h10.2c-1.3,2.1-3.1,4-5.2,5.5
		c-2.1,1.6-4.5,2.8-7.1,3.8c-2.6,0.9-5.3,1.3-7.9,1.3C333.2-570.7,330.5-571.4,328.4-572.9z M351.6-591.3c0.3-2,0-3.5-0.9-4.5
		c-0.9-1-2.4-1.5-4.4-1.5s-3.8,0.5-5.4,1.5c-1.6,1-3,2.5-4.2,4.5H351.6z"/>
	<path class="st4" d="M393.4-617.4h17.9c4,0,7.2,0.7,9.6,2.1c2.4,1.4,3.9,3.3,4.5,5.9c0.6,2.5,0.3,5.5-0.9,8.8
		c-1.2,3.4-3.1,6.4-5.5,8.9s-5.4,4.5-8.8,5.9c-3.4,1.4-7.1,2.1-11.1,2.1h-7.5l-4.5,12.2h-10.4L393.4-617.4z M401.8-592.8
		c2.9,0,5.5-0.7,7.6-2c2.1-1.3,3.6-3.3,4.5-5.8c0.9-2.5,0.8-4.4-0.3-5.8s-3.2-2-6.1-2h-7l-5.7,15.6H401.8z"/>
	<path class="st4" d="M425.4-572.9c-1.9-1.5-3.1-3.5-3.5-6.2c-0.4-2.6,0-5.6,1.2-8.9c1.2-3.3,3-6.3,5.3-8.9c2.3-2.6,5-4.7,8-6.2
		s6.1-2.2,9.3-2.2c4.3,0,7,1.4,8.1,4.2l1.2-3.4h10.2l-12,33H443l1.2-3.4c-3.1,2.8-6.8,4.2-11.1,4.2
		C429.9-570.7,427.4-571.4,425.4-572.9z M444.7-581.7c2.1-1.6,3.6-3.7,4.5-6.3s1-4.7,0.1-6.3c-0.9-1.6-2.6-2.5-5.1-2.5
		c-2.4,0-4.6,0.8-6.7,2.5c-2,1.6-3.5,3.7-4.5,6.3s-1,4.7-0.1,6.3c0.9,1.6,2.5,2.5,4.9,2.5C440.3-579.2,442.6-580.1,444.7-581.7z"/>
	<path class="st4" d="M472.9-604.5H483l-1.2,3.4c3.1-2.8,6.7-4.2,10.9-4.2c1.8,0,3.2,0.2,4.2,0.6l-3.3,9.4c-1.2-0.8-2.8-1.1-4.8-1.1
		c-2.7,0-5.1,0.7-7.2,2.1s-3.6,3.4-4.5,5.9l-6.2,16.9h-10.2L472.9-604.5z"/>
	<path class="st4" d="M520.2-595.9h-6.6l-8.9,24.4h-10.2l8.9-24.4h-6.6l3.1-8.6h6.6l3.6-9.8h10.2l-3.6,9.8h6.6L520.2-595.9z"/>
	<path class="st4" d="M528.1-604.5h10.2l-1.2,3.4c3.1-2.8,6.7-4.2,10.9-4.2c2.6,0,4.7,0.6,6.2,1.8c1.5,1.2,2.5,2.9,2.8,5.1
		s-0.1,4.8-1.2,7.8l-7,19.1h-10.2l6.3-17.4c0.9-2.5,1.1-4.5,0.6-5.8c-0.5-1.3-1.7-2-3.7-2c-2,0-3.8,0.7-5.5,2.2
		c-1.7,1.5-3,3.5-3.9,6l-6.2,17h-10.2L528.1-604.5z"/>
	<path class="st4" d="M562.8-572.9c-2.1-1.5-3.4-3.5-4-6.2s-0.2-5.6,1-8.9s3-6.3,5.5-8.9c2.4-2.6,5.3-4.7,8.5-6.2
		c3.2-1.5,6.5-2.2,9.8-2.2s6.1,0.7,8.2,2.2s3.4,3.5,4,6.2s0.2,5.6-1,8.9c-0.4,1.1-0.9,2.2-1.4,3.2h-24.5c-0.3,1.9,0,3.4,0.9,4.5
		c0.9,1,2.3,1.6,4.2,1.6c1.5,0,2.8-0.2,4.1-0.7c1.3-0.5,2.3-1.1,3-1.9h10.2c-1.3,2.1-3.1,4-5.2,5.5c-2.2,1.6-4.5,2.8-7.1,3.8
		c-2.6,0.9-5.3,1.3-7.9,1.3C567.7-570.7,565-571.4,562.8-572.9z M586-591.3c0.3-2,0-3.5-0.9-4.5c-0.9-1-2.4-1.5-4.4-1.5
		s-3.8,0.5-5.4,1.5c-1.6,1-3,2.5-4.2,4.5H586z"/>
	<path class="st4" d="M606.8-604.5H617l-1.2,3.4c3.1-2.8,6.7-4.2,10.9-4.2c1.8,0,3.2,0.2,4.2,0.6l-3.3,9.4c-1.2-0.8-2.8-1.1-4.8-1.1
		c-2.7,0-5.1,0.7-7.2,2.1c-2.1,1.4-3.6,3.4-4.5,5.9l-6.2,16.9h-10.2L606.8-604.5z"/>
</g>
<g>
	<g>
		<path class="st3" d="M434-724.9c-11.5,0-20.9-9.4-20.9-20.9c0-9.3,6.1-17.2,14.6-19.9c-6.9-2.2-14.9-0.9-20.9,5.2
			c-13.2,13.2-3.8,35.7,14.8,35.7c0,4.8-1.3,8.7-4.2,12.5c6.9-2.2,13.1-6.8,17.6-12.6C434.6-724.9,434.3-724.9,434-724.9z"/>
	</g>
	<g>
		<path class="st3" d="M423.4-760.5c-13.2,13.2-3.8,35.7,14.8,35.7c0,4.8-1.3,8.7-4.2,12.5c14-4.5,25.1-18.5,25.1-33.4
			C459.1-764.4,436.6-773.7,423.4-760.5z"/>
	</g>
</g>
<g>
	<path d="M190.6-946.5h34.8v58.9h-34.8V-946.5z M202.4-899.2h11.1v-35.6h-11.1V-899.2z M251.7-912.7h-7v28h-11.8V-948h11.8v23.2h7
		V-912.7z"/>
	<path d="M287.3-947.7h10.9v62h-10.9V-913h-6.5c-1,5.5-2.8,10.1-5.2,14s-5.5,6.7-9,8.6s-7.4,2.9-11.6,2.9v-11.2
		c4-0.2,7.2-1.6,9.7-4.1s4.2-6,5.2-10.7H255v-11.1h15.7v-10.8H255v-11.1h26.7v21.6h5.5L287.3-947.7L287.3-947.7z M313.7-948v63.4
		h-11.1V-948H313.7z"/>
	<path d="M356.3-912.7c-2.7,0.4-5.4,0.6-8.3,0.6h-26.3v-35.1h37.4v9.5h-25.7v3.6h24.5v8.8h-24.5v3.6h15.4c2.7,0,5.2-0.2,7.7-0.6
		s4.5-0.9,6.1-1.5v9.3C361.1-913.7,359-913.1,356.3-912.7z M370.8-906.5c4.9,2,7.4,5.3,7.4,9.8s-2.5,7.8-7.4,9.8
		c-4.9,2-11.6,3-19.9,3c-8.4,0-15-1-19.9-3s-7.4-5.3-7.4-9.8s2.5-7.8,7.4-9.8c4.9-2,11.6-3,19.9-3
		C359.2-909.5,365.8-908.5,370.8-906.5z M361.6-894.2c2.6-0.5,3.9-1.3,3.9-2.5c0-2.2-4.9-3.3-14.6-3.3s-14.6,1.1-14.6,3.3
		c0,1.2,1.3,2,3.9,2.5c2.6,0.5,6.2,0.7,10.7,0.7C355.4-893.4,358.9-893.7,361.6-894.2z M377.6-910.4h-11.8V-948h11.8V-910.4z"/>
	<path d="M416.2-912.9c-3.5,2-7.4,3.1-11.6,3.2V-921c2.6-0.2,5-1,7-2.5c2-1.5,3.7-3.4,4.9-5.6s2-4.7,2.4-7.3h-13.5v-10.7h38.6v10.7
		h-13.2c-0.1,1.7-0.5,3.6-1,5.6l16.7,11.8l-6.5,9l-14.9-10.9C422.8-917.7,419.8-915,416.2-912.9z M461.9-895.9v11.3h-54.3v-22.2h12
		v10.9H461.9z M461-901.1h-11.8V-948H461V-901.1z"/>
	<path d="M499.5-935.1h-32.1v-9.1h10.4v-4.8h11.8v4.8h9.9V-935.1z M496.7-915.4c-1.3,1.8-3.1,3.2-5.3,4.2c-2.2,1-4.7,1.5-7.5,1.5
		s-5.2-0.5-7.5-1.5c-2.2-1-4-2.3-5.3-4.2c-1.3-1.8-2-3.9-2-6.3c0-2.4,0.6-4.5,2-6.3c1.3-1.8,3.1-3.2,5.3-4.2c2.2-1,4.7-1.5,7.5-1.5
		s5.2,0.5,7.5,1.5c2.2,1,4,2.3,5.3,4.2s2,3.9,2,6.3S498-917.2,496.7-915.4z M521-905.8c5.1,2,7.6,5.2,7.6,9.5s-2.5,7.5-7.6,9.5
		s-12,3-20.6,3c-8.6,0-15.5-1-20.6-3s-7.6-5.2-7.6-9.5s2.5-7.5,7.6-9.5s12-3,20.6-3S515.9-907.8,521-905.8z M480.7-919.3
		c0.9,0.6,1.9,0.9,3.2,0.9s2.3-0.3,3.2-0.9c0.9-0.6,1.3-1.4,1.3-2.4s-0.4-1.8-1.3-2.4c-0.9-0.6-1.9-0.9-3.2-0.9
		c-1.3,0-2.3,0.3-3.2,0.9c-0.9,0.6-1.3,1.4-1.3,2.4S479.8-919.9,480.7-919.3z M511.7-894c3-0.5,4.4-1.3,4.4-2.3s-1.5-1.8-4.4-2.3
		c-3-0.5-6.7-0.8-11.3-0.8c-4.6,0-8.3,0.3-11.3,0.8s-4.5,1.3-4.5,2.3s1.5,1.8,4.5,2.3c3,0.5,6.7,0.8,11.3,0.8
		C505-893.2,508.8-893.5,511.7-894z M512.6-911.1h-10.7v-36.6h10.7v12.6h4.8V-948h10.8v39.1h-10.8v-15.1h-4.8V-911.1z"/>
	<path d="M594.9-917.4v10.3h-24.3v8.6h-11.9v-8.6h-24.3v-10.3H594.9z M564.3-932.1c-3.5,3.5-7.6,6.2-12.6,8.2
		c-4.9,2-10.1,3.1-15.7,3.2v-10.7c3.8-0.2,7.5-1,11.1-2.6s6.5-3.7,9-6.5s3.9-5.9,4.5-9.4l12,2.1c-0.5,2.7-1.3,5.1-2.4,7.2l24.3,10.6
		l-4.5,9.6L564.3-932.1z M549.9-895h42.1v10.4h-54.2v-18.8h12V-895z"/>
	<path d="M625.5-923.4l17.4,29.1l-10.2,6.7l-11.3-20c-2.4,6.4-5.5,11.4-9.2,14.8s-7.8,5.2-12.3,5.3v-13.1c3-0.3,5.7-2.5,8-6.5
		s4.1-9.4,5.3-16.2c1.3-6.8,1.9-14.6,1.9-23.4l12,0.5C627.2-937.9,626.7-930.2,625.5-923.4z M658.1-948v63.4h-11.8v-31.2h-12.6
		v-11.7h12.6V-948L658.1-948L658.1-948z"/>
</g>
<g>
	<path class="st4" d="M263.2-871.3H248l-13.4,36.9h-10.4l13.4-36.9h-15.2l3.3-9.1h40.7L263.2-871.3z"/>
	<path class="st4" d="M266.5-837.8l-1.2,3.4h-10.2l17.2-47.4h10.2l-6.4,17.7c3.1-2.8,6.8-4.2,11.1-4.2c3.2,0,5.7,0.7,7.7,2.2
		s3.1,3.5,3.5,6.2c0.4,2.6,0,5.6-1.2,8.9c-1.2,3.3-3,6.3-5.3,8.9c-2.3,2.6-5,4.7-8,6.2s-6.1,2.2-9.3,2.2
		C270.3-833.6,267.6-835,266.5-837.8z M282.8-844.7c2-1.6,3.5-3.7,4.5-6.3s1-4.7,0.1-6.3c-0.9-1.6-2.5-2.5-4.9-2.5
		c-2.5,0-4.8,0.8-6.8,2.5c-2.1,1.6-3.6,3.7-4.5,6.3s-1,4.7-0.1,6.3c0.9,1.6,2.6,2.5,5.1,2.5C278.5-842.2,280.8-843,282.8-844.7z"/>
	<path class="st4" d="M307.3-834.4h-10.2l17.2-47.4h10.2L307.3-834.4z"/>
	<path class="st4" d="M322.2-835.9c-2.1-1.5-3.4-3.5-4-6.2s-0.2-5.6,1-8.9s3-6.3,5.5-8.9c2.4-2.6,5.3-4.7,8.5-6.2
		c3.2-1.5,6.5-2.2,9.8-2.2s6.1,0.7,8.2,2.2c2.1,1.5,3.4,3.5,4,6.2s0.2,5.6-1,8.9c-0.4,1.1-0.9,2.2-1.4,3.2h-24.5
		c-0.3,1.9,0,3.4,0.9,4.5c0.9,1,2.3,1.6,4.2,1.6c1.5,0,2.8-0.2,4.1-0.7c1.3-0.5,2.3-1.1,3-1.9h10.2c-1.3,2.1-3.1,4-5.2,5.5
		c-2.1,1.6-4.5,2.8-7.1,3.8c-2.6,0.9-5.3,1.3-7.9,1.3C327.1-833.6,324.4-834.4,322.2-835.9z M345.4-854.2c0.3-2,0-3.5-0.9-4.5
		c-0.9-1-2.4-1.5-4.4-1.5s-3.8,0.5-5.4,1.5c-1.6,1-3,2.5-4.2,4.5H345.4z"/>
	<path class="st4" d="M387.2-880.4h17.9c4,0,7.2,0.7,9.6,2.1c2.4,1.4,3.9,3.3,4.5,5.9c0.6,2.5,0.3,5.5-0.9,8.8
		c-1.2,3.4-3.1,6.4-5.5,8.9s-5.4,4.5-8.8,5.9c-3.4,1.4-7.1,2.1-11.1,2.1h-7.5l-4.5,12.2h-10.4L387.2-880.4z M395.7-855.7
		c2.9,0,5.5-0.7,7.6-2c2.1-1.3,3.6-3.3,4.5-5.8c0.9-2.5,0.8-4.4-0.3-5.8s-3.2-2-6.1-2h-7l-5.7,15.6H395.7z"/>
	<path class="st4" d="M425-867.5h10.2l-1.2,3.4c3.1-2.8,6.7-4.2,10.9-4.2c1.8,0,3.2,0.2,4.2,0.6l-3.3,9.4c-1.2-0.8-2.8-1.1-4.8-1.1
		c-2.7,0-5.1,0.7-7.2,2.1s-3.6,3.4-4.5,5.9l-6.2,16.9H413L425-867.5z"/>
	<path class="st4" d="M477.4-866c2.2,1.5,3.5,3.5,4.1,6.2c0.6,2.6,0.2,5.6-1,8.9s-3,6.3-5.5,8.9c-2.5,2.6-5.4,4.7-8.6,6.2
		s-6.6,2.2-10,2.2c-3.4,0-6.2-0.7-8.3-2.2c-2.2-1.5-3.5-3.5-4.1-6.2c-0.6-2.6-0.2-5.6,1-8.9s3-6.3,5.5-8.9c2.5-2.6,5.4-4.7,8.6-6.2
		s6.6-2.2,10-2.2C472.5-868.2,475.3-867.5,477.4-866z M459.3-857.2c-2.1,1.6-3.6,3.7-4.5,6.3s-1,4.7-0.1,6.3
		c0.9,1.6,2.5,2.5,4.9,2.5c2.4,0,4.6-0.8,6.6-2.5c2.1-1.6,3.6-3.7,4.5-6.3s1-4.7,0.1-6.3c-0.9-1.6-2.5-2.5-4.9-2.5
		C463.6-859.7,461.4-858.9,459.3-857.2z"/>
	<path class="st4" d="M508.5-837.1c-3.9,2.3-7.9,3.5-12.1,3.5c-3.4,0-6.2-0.7-8.3-2.2c-2.2-1.5-3.5-3.5-4.1-6.2
		c-0.6-2.6-0.2-5.6,1-8.9s3-6.3,5.5-8.9c2.5-2.6,5.4-4.7,8.6-6.2s6.6-2.2,10-2.2c2.9,0,5.3,0.5,7.2,1.7s3.4,2.6,4.2,4.5
		c0.8,1.9,1,4,0.5,6.4h-10.3c0-1.2-0.4-2.1-1.2-2.8c-0.8-0.7-2-1-3.6-1c-2.4,0-4.5,0.8-6.6,2.4c-2,1.6-3.5,3.7-4.4,6.2
		s-1,4.6-0.1,6.2c0.9,1.6,2.5,2.4,4.8,2.4c1.6,0,3-0.4,4.4-1.1s2.5-1.7,3.4-2.9h10.3C515.4-842.5,512.3-839.4,508.5-837.1z"/>
	<path class="st4" d="M526-835.9c-2.1-1.5-3.4-3.5-4-6.2s-0.2-5.6,1-8.9s3-6.3,5.5-8.9c2.4-2.6,5.3-4.7,8.5-6.2
		c3.2-1.5,6.5-2.2,9.8-2.2s6.1,0.7,8.2,2.2s3.4,3.5,4,6.2s0.2,5.6-1,8.9c-0.4,1.1-0.9,2.2-1.4,3.2h-24.5c-0.3,1.9,0,3.4,0.9,4.5
		c0.9,1,2.3,1.6,4.2,1.6c1.5,0,2.8-0.2,4.1-0.7c1.3-0.5,2.3-1.1,3-1.9h10.2c-1.3,2.1-3.1,4-5.2,5.5c-2.2,1.6-4.5,2.8-7.1,3.8
		c-2.6,0.9-5.3,1.3-7.9,1.3C530.9-833.6,528.2-834.4,526-835.9z M549.2-854.2c0.3-2,0-3.5-0.9-4.5c-0.9-1-2.4-1.5-4.4-1.5
		s-3.8,0.5-5.4,1.5c-1.6,1-3,2.5-4.2,4.5H549.2z"/>
	<path class="st4" d="M591.5-866.9c2,0.9,3.3,2.1,4.1,3.8s0.8,3.5,0.2,5.6h-9.8c0.2-1-0.1-1.8-0.9-2.4c-0.8-0.6-2-0.9-3.5-0.9
		c-1.5,0-2.9,0.2-4.1,0.7c-1.2,0.5-1.9,1.1-2.2,1.8c-0.3,0.8,0.1,1.4,1.1,1.9c1,0.5,2.9,1,5.7,1.4c4.6,0.7,7.6,1.9,9.1,3.5
		c1.5,1.7,1.7,3.9,0.6,6.8c-0.8,2.2-2.2,4.1-4.2,5.8s-4.4,2.9-7.1,3.8s-5.5,1.3-8.4,1.3c-2.9,0-5.3-0.5-7.4-1.4s-3.4-2.2-4.2-3.9
		c-0.8-1.7-0.8-3.7-0.1-5.9h9.8c-0.2,1,0.1,1.9,1,2.6c0.9,0.7,2.2,1,3.8,1c1.6,0,3.1-0.3,4.3-0.8c1.3-0.5,2-1.2,2.3-1.9
		c0.3-0.8-0.1-1.5-1.2-2s-3-1-5.7-1.4c-4.2-0.6-7.1-1.7-8.7-3.3c-1.7-1.5-1.9-3.9-0.8-7c0.8-2.1,2.1-4,4-5.5
		c1.9-1.6,4.2-2.8,6.9-3.7c2.6-0.9,5.4-1.3,8.2-1.3C587.1-868.2,589.5-867.8,591.5-866.9z"/>
	<path class="st4" d="M627.4-866.9c2,0.9,3.3,2.1,4.1,3.8s0.8,3.5,0.2,5.6h-9.8c0.2-1-0.1-1.8-0.9-2.4c-0.8-0.6-2-0.9-3.5-0.9
		c-1.5,0-2.9,0.2-4.1,0.7c-1.2,0.5-1.9,1.1-2.2,1.8c-0.3,0.8,0.1,1.4,1.1,1.9c1,0.5,2.9,1,5.7,1.4c4.6,0.7,7.6,1.9,9.1,3.5
		c1.5,1.7,1.7,3.9,0.6,6.8c-0.8,2.2-2.2,4.1-4.2,5.8s-4.4,2.9-7.1,3.8s-5.5,1.3-8.4,1.3c-2.9,0-5.3-0.5-7.4-1.4s-3.4-2.2-4.2-3.9
		c-0.8-1.7-0.8-3.7-0.1-5.9h9.8c-0.2,1,0.1,1.9,1,2.6c0.9,0.7,2.2,1,3.8,1c1.6,0,3.1-0.3,4.3-0.8c1.3-0.5,2-1.2,2.3-1.9
		c0.3-0.8-0.1-1.5-1.2-2s-3-1-5.7-1.4c-4.2-0.6-7.1-1.7-8.7-3.3c-1.7-1.5-1.9-3.9-0.8-7c0.8-2.1,2.1-4,4-5.5
		c1.9-1.6,4.2-2.8,6.9-3.7c2.6-0.9,5.4-1.3,8.2-1.3C623-868.2,625.4-867.8,627.4-866.9z"/>
</g>
<g>
	<g>
		<path class="st0" d="M434-987.8c-11.5,0-20.9-9.4-20.9-20.9c0-9.3,6.1-17.2,14.6-19.9c-6.9-2.2-14.9-0.9-20.9,5.2
			c-13.2,13.2-3.8,35.7,14.8,35.7c0,4.8-1.3,8.7-4.2,12.5c6.9-2.2,13.1-6.8,17.6-12.6C434.6-987.8,434.3-987.8,434-987.8z"/>
	</g>
	<g>
		<path class="st0" d="M423.4-1023.5c-13.2,13.2-3.8,35.7,14.8,35.7c0,4.8-1.3,8.7-4.2,12.5c14-4.5,25.1-18.5,25.1-33.4
			C459.1-1027.3,436.6-1036.6,423.4-1023.5z"/>
	</g>
</g>
<text transform="matrix(0.9434 0 0 1 110.645 -1150.587)" style="font-family:'GmarketSansTTFBold'; font-size:74.2px;">티블을 선택하는 이유</text>
<text transform="matrix(0.9536 0 -0.342 0.9397 256.6052 -1097.7587)" class="st4" style="font-family:'GmarketSansTTFBold'; font-size:60px;">Tble Point</text>
<g>
	<path class="st0" d="M434-1246.1c-11.5,0-20.9-9.4-20.9-20.9c0-9.3,6.1-17.2,14.6-19.9c-6.9-2.2-14.9-0.9-20.9,5.2
		c-13.2,13.2-3.8,35.7,14.8,35.7c0,4.8-1.3,8.7-4.2,12.5c6.9-2.2,13.1-6.8,17.6-12.6C434.6-1246.1,434.3-1246.1,434-1246.1z"/>
	<path class="st0" d="M423.4-1281.7c-13.2,13.2-3.8,35.7,14.8,35.7c0,4.8-1.3,8.7-4.2,12.5c14-4.5,25.1-18.5,25.1-33.4
		C459.1-1285.6,436.6-1294.9,423.4-1281.7z"/>
</g>
<text transform="matrix(0.9434 0 0 1 -887.1812 -1258.587)" style="font-family:'GmarketSansTTFBold'; font-size:74.2px;">티블을 선택하는 이유</text>
<text transform="matrix(0.9536 0 -0.342 0.9397 -741.2214 -1205.7585)" class="st4" style="font-family:'GmarketSansTTFBold'; font-size:60px;">Tble Point</text>
<g>
	<path class="st0" d="M-563.8-1354.1c-11.5,0-20.9-9.4-20.9-20.9c0-9.3,6.1-17.2,14.6-19.9c-6.9-2.2-14.9-0.9-20.9,5.2
		c-13.2,13.2-3.8,35.7,14.8,35.7c0,4.8-1.3,8.7-4.2,12.5c6.9-2.2,13.1-6.8,17.6-12.6C-563.2-1354.1-563.5-1354.1-563.8-1354.1z"/>
	<path class="st0" d="M-574.4-1389.7c-13.2,13.2-3.8,35.7,14.8,35.7c0,4.8-1.3,8.7-4.2,12.5c14-4.5,25.1-18.5,25.1-33.4
		C-538.7-1393.6-561.2-1402.9-574.4-1389.7z"/>
</g>
<g>
	<g>
		<path class="st5" d="M-398.8-348.7c-29.3,0-53-23.7-53-53c0-23.6,15.5-43.7,36.9-50.5c-17.5-5.5-37.8-2.2-53.1,13.1
			c-33.4,33.4-9.7,90.4,37.4,90.4c0,12.3-3.2,21.9-10.6,31.8c17.5-5.6,33.2-17.1,44.6-31.9C-397.2-348.7-398-348.7-398.8-348.7z"/>
		<path class="st5" d="M-425.5-439.1c-33.4,33.4-9.7,90.4,37.4,90.4c0,12.3-3.2,21.9-10.6,31.8c35.4-11.4,63.5-46.8,63.5-84.7
			C-335.2-448.8-392.2-472.4-425.5-439.1z"/>
	</g>
	<g>
		<path class="st0" d="M-307.7-270c-10.5-6.6-24-5.9-33.7,1.8s-13.5,20.7-9.4,32.4c4.1,11.7,15.1,19.6,27.5,19.6
			c9.4,0,18.5-4.3,24.6-11.4c-4.9-1.8-9.8-3.6-14.6-5.3c-3,2.5-6.1,3.5-10,3.5c-5.8,0-10.1-4.3-12-9.3c13.5,0,26.9,0,40.4,0
			C-292.1-250.8-297.2-263.4-307.7-270z M-335.3-252c4.7-12.4,19.4-12.4,24.1,0C-319.2-252-327.3-252-335.3-252z"/>
		<path class="st0" d="M-431.9-274.5v-15.9h-15.9v58.3l15.9,15.9h13.2c16.1,0,29.1-13.1,29.1-29.1s-13-29.1-29.1-29.1L-431.9-274.5
			L-431.9-274.5z M-418.6-258.6c7.3,0,13.2,5.9,13.2,13.2c0,7.3-5.9,13.2-13.2,13.2h-13.2v-26.5H-418.6z"/>
		<rect x="-378.9" y="-290.4" class="st0" width="15.9" height="74.2"/>
		<g>
			<polygon class="st0" points="-482.2,-290.4 -498.1,-274.5 -498.1,-216.2 -482.2,-216.2 -482.2,-274.5 -455.7,-274.5 
				-455.7,-290.4 			"/>
			<polygon class="st0" points="-524.6,-290.4 -524.6,-274.5 -505.6,-274.5 -489.7,-290.4 			"/>
		</g>
	</g>
</g>
</svg>
