<?xml version="1.0" encoding="utf-8"?>
<!-- Generator: Adobe Illustrator 26.1.0, SVG Export Plug-In . SVG Version: 6.00 Build 0)  -->
<svg version="1.1" id="Layer_1" xmlns="http://www.w3.org/2000/svg" xmlns:xlink="http://www.w3.org/1999/xlink" x="0px" y="0px"
	 viewBox="0 0 527.23 133.23" style="enable-background:new 0 0 527.23 133.23;" xml:space="preserve">
<style type="text/css">
	.st0{fill:#FFFFFF;}
	.st1{fill:#3E3A39;}
	.st2{fill:#FABE00;}
	.st3{fill:#EFEFEF;}
	.st4{fill:#DCDDDD;}
	.st5{fill:#C9CACA;}
	.st6{fill:#B5B5B6;}
	.st7{fill:#9FA0A0;}
	.st8{fill:#898989;}
	.st9{fill:#727171;}
	.st10{fill:#595757;}
	.st11{fill:#231815;}
	.st12{fill:#F39800;}
	.st13{fill:#FFE100;}
</style>
<rect x="703.22" y="-181.08" class="st0" width="595.28" height="841.89"/>
<g>
	<g>
		<path class="st1" d="M942.86-134.01c-5.6-3.55-12.84-3.16-18.03,0.96c-5.2,4.12-7.21,11.08-5.03,17.34
			c2.18,6.26,8.09,10.46,14.72,10.46c5.04,0,9.92-2.32,13.18-6.12c-2.61-0.95-5.23-1.9-7.84-2.85c-1.63,1.32-3.24,1.89-5.34,1.89
			c-3.08,0-5.42-2.29-6.44-4.96c7.21,0,14.42,0,21.62,0C951.21-123.76,948.47-130.47,942.86-134.01z M928.08-124.39
			c2.53-6.61,10.36-6.61,12.88,0C936.67-124.39,932.37-124.39,928.08-124.39z"/>
		<path class="st1" d="M876.41-136.44v-8.5h-8.5v31.18l8.5,8.5h7.09c8.61,0,15.59-6.98,15.59-15.59c0-8.61-6.98-15.59-15.59-15.59
			H876.41z M883.5-127.93c3.91,0,7.09,3.17,7.09,7.09c0,3.91-3.17,7.09-7.09,7.09h-7.09v-14.17H883.5z"/>
		<rect x="904.76" y="-144.94" class="st1" width="8.5" height="39.69"/>
		<g>
			<polygon class="st1" points="849.48,-144.94 840.98,-136.44 840.98,-105.25 849.48,-105.25 849.48,-136.44 863.65,-136.44 
				863.65,-144.94 			"/>
			<polygon class="st1" points="826.8,-144.94 826.8,-136.44 836.97,-136.44 845.47,-144.94 			"/>
		</g>
	</g>
	<g>
		<path class="st2" d="M795.18-112.56c-9.33,0-16.9-7.57-16.9-16.9c0-7.54,4.95-13.93,11.77-16.1c-5.58-1.74-12.05-0.7-16.93,4.19
			c-10.64,10.64-3.1,28.83,11.94,28.83c0,3.92-1.03,7-3.38,10.13c5.57-1.8,10.58-5.46,14.22-10.16
			C795.67-112.57,795.42-112.56,795.18-112.56z"/>
		<path class="st2" d="M786.64-141.38c-10.64,10.64-3.1,28.83,11.94,28.83c0,3.92-1.03,7-3.38,10.13
			c11.28-3.64,20.26-14.92,20.26-27.02C815.47-144.48,797.28-152.01,786.64-141.38z"/>
	</g>
</g>
<rect x="1000.86" y="-181.08" class="st1" width="297.64" height="311.81"/>
<rect x="1298.5" y="-181.08" class="st3" width="297.64" height="84.19"/>
<rect x="1298.5" y="-96.89" class="st4" width="297.64" height="84.19"/>
<rect x="1298.5" y="-12.7" class="st5" width="297.64" height="84.19"/>
<rect x="1298.5" y="71.49" class="st6" width="297.64" height="84.19"/>
<rect x="1298.5" y="155.67" class="st7" width="297.64" height="84.19"/>
<rect x="1298.5" y="239.86" class="st8" width="297.64" height="84.19"/>
<rect x="1298.5" y="324.05" class="st9" width="297.64" height="84.19"/>
<rect x="1298.5" y="408.24" class="st10" width="297.64" height="84.19"/>
<rect x="1298.5" y="492.43" class="st1" width="297.64" height="84.19"/>
<rect x="1298.5" y="576.62" class="st11" width="297.64" height="84.19"/>
<g>
	<g>
		<path class="st0" d="M1240.5-134.01c-5.6-3.55-12.84-3.16-18.03,0.96c-5.2,4.12-7.21,11.08-5.03,17.34
			c2.18,6.26,8.09,10.46,14.72,10.46c5.04,0,9.92-2.32,13.18-6.12c-2.61-0.95-5.23-1.9-7.84-2.85c-1.63,1.32-3.24,1.89-5.34,1.89
			c-3.08,0-5.42-2.29-6.44-4.96c7.21,0,14.42,0,21.62,0C1248.85-123.76,1246.1-130.47,1240.5-134.01z M1225.72-124.39
			c2.53-6.61,10.36-6.61,12.88,0C1234.31-124.39,1230.01-124.39,1225.72-124.39z"/>
		<path class="st0" d="M1174.05-136.44v-8.5h-8.5v31.18l8.5,8.5h7.09c8.61,0,15.59-6.98,15.59-15.59c0-8.61-6.98-15.59-15.59-15.59
			H1174.05z M1181.13-127.93c3.91,0,7.09,3.17,7.09,7.09c0,3.91-3.17,7.09-7.09,7.09h-7.09v-14.17H1181.13z"/>
		<rect x="1202.39" y="-144.94" class="st0" width="8.5" height="39.69"/>
		<g>
			<polygon class="st0" points="1147.12,-144.94 1138.62,-136.44 1138.62,-105.25 1147.12,-105.25 1147.12,-136.44 1161.29,-136.44 
				1161.29,-144.94 			"/>
			<polygon class="st0" points="1124.44,-144.94 1124.44,-136.44 1134.61,-136.44 1143.11,-144.94 			"/>
		</g>
	</g>
	<g>
		<path class="st2" d="M1092.82-112.56c-9.33,0-16.9-7.57-16.9-16.9c0-7.54,4.95-13.93,11.77-16.1c-5.58-1.74-12.05-0.7-16.93,4.19
			c-10.64,10.64-3.1,28.83,11.94,28.83c0,3.92-1.03,7-3.38,10.13c5.57-1.8,10.58-5.46,14.22-10.16
			C1093.3-112.57,1093.06-112.56,1092.82-112.56z"/>
		<path class="st2" d="M1084.28-141.38c-10.64,10.64-3.1,28.83,11.94,28.83c0,3.92-1.03,7-3.38,10.13
			c11.28-3.64,20.26-14.92,20.26-27.02C1113.1-144.48,1094.92-152.01,1084.28-141.38z"/>
	</g>
</g>
<g>
	<g>
		<path class="st0" d="M501.71,39.24c-15.93-10.09-36.5-9-51.28,2.72c-14.77,11.72-20.51,31.51-14.31,49.32
			c6.21,17.81,23,29.74,41.86,29.74c14.32,0,28.2-6.58,37.48-17.4c-7.43-2.7-14.86-5.41-22.29-8.11c-4.64,3.75-9.22,5.37-15.19,5.37
			c-8.76,0-15.42-6.51-18.32-14.11c20.5,0,40.99,0,61.49,0C525.45,68.4,517.64,49.33,501.71,39.24z M459.67,66.62
			c7.18-18.81,29.45-18.81,36.64,0C484.1,66.62,471.88,66.62,459.67,66.62z"/>
		<path class="st0" d="M312.76,32.36V8.18h-24.18v88.66l24.18,24.18h20.15c24.48,0,44.33-19.85,44.33-44.33
			c0-24.48-19.85-44.33-44.33-44.33H312.76z M332.91,56.54c11.13,0,20.15,9.02,20.15,20.15c0,11.13-9.02,20.15-20.15,20.15h-20.15
			v-40.3H332.91z"/>
		<rect x="393.36" y="8.18" class="st0" width="24.18" height="112.84"/>
		<g>
			<polygon class="st0" points="236.19,8.18 212.01,32.36 212.01,121.02 236.19,121.02 236.19,32.36 276.49,32.36 276.49,8.18 			
				"/>
			<polygon class="st0" points="171.71,8.18 171.71,32.36 200.61,32.36 224.79,8.18 			"/>
		</g>
	</g>
	<g>
		<path class="st2" d="M81.78,100.24c-26.54,0-48.05-21.51-48.05-48.05c0-21.45,14.06-39.61,33.47-45.79
			c-15.85-4.96-34.25-1.98-48.14,11.9c-30.25,30.25-8.82,81.96,33.95,81.96c0,11.13-2.92,19.9-9.6,28.81
			c15.84-5.12,30.08-15.53,40.44-28.89C83.16,100.22,82.47,100.24,81.78,100.24z"/>
		<path class="st2" d="M57.5,18.31c-30.25,30.25-8.82,81.96,33.95,81.96c0,11.13-2.92,19.9-9.6,28.81
			c32.08-10.36,57.62-42.42,57.62-76.82C139.46,9.48,87.75-11.94,57.5,18.31z"/>
	</g>
</g>
<g>
	<g>
		<path class="st11" d="M1512.14-146.44c-4.34-2.75-9.94-2.45-13.96,0.74c-4.02,3.19-5.58,8.58-3.9,13.43
			c1.69,4.85,6.26,8.1,11.4,8.1c3.9,0,7.68-1.79,10.21-4.74c-2.02-0.74-4.05-1.47-6.07-2.21c-1.26,1.02-2.51,1.46-4.14,1.46
			c-2.39,0-4.2-1.77-4.99-3.84c5.58,0,11.16,0,16.74,0C1518.61-138.5,1516.48-143.69,1512.14-146.44z M1500.7-138.99
			c1.96-5.12,8.02-5.12,9.97,0C1507.35-138.99,1504.02-138.99,1500.7-138.99z"/>
		<path class="st11" d="M1460.7-148.31v-6.58h-6.58v24.14l6.58,6.58h5.49c6.67,0,12.07-5.4,12.07-12.07
			c0-6.67-5.4-12.07-12.07-12.07H1460.7z M1466.18-141.73c3.03,0,5.49,2.46,5.49,5.49c0,3.03-2.46,5.49-5.49,5.49h-5.49v-10.97
			H1466.18z"/>
		<rect x="1482.64" y="-154.9" class="st11" width="6.58" height="30.72"/>
		<g>
			<polygon class="st11" points="1439.85,-154.9 1433.26,-148.31 1433.26,-124.17 1439.85,-124.17 1439.85,-148.31 1450.82,-148.31 
				1450.82,-154.9 			"/>
			<polygon class="st11" points="1422.29,-154.9 1422.29,-148.31 1430.16,-148.31 1436.74,-154.9 			"/>
		</g>
	</g>
	<g>
		<path class="st11" d="M1397.81-129.83c-7.22,0-13.08-5.86-13.08-13.08c0-5.84,3.83-10.79,9.11-12.47
			c-4.32-1.35-9.33-0.54-13.11,3.24c-8.24,8.24-2.4,22.32,9.24,22.32c0,3.03-0.8,5.42-2.61,7.84c4.31-1.39,8.19-4.23,11.01-7.87
			C1398.18-129.84,1398-129.83,1397.81-129.83z"/>
		<path class="st11" d="M1391.2-152.14c-8.24,8.24-2.4,22.32,9.24,22.32c0,3.03-0.8,5.42-2.61,7.84
			c8.74-2.82,15.69-11.55,15.69-20.92C1413.51-154.54,1399.43-160.38,1391.2-152.14z"/>
	</g>
</g>
<g>
	<g>
		<path class="st11" d="M1512.14-62.25c-4.34-2.75-9.94-2.45-13.96,0.74c-4.02,3.19-5.58,8.58-3.9,13.43
			c1.69,4.85,6.26,8.1,11.4,8.1c3.9,0,7.68-1.79,10.21-4.74c-2.02-0.74-4.05-1.47-6.07-2.21c-1.26,1.02-2.51,1.46-4.14,1.46
			c-2.39,0-4.2-1.77-4.99-3.84c5.58,0,11.16,0,16.74,0C1518.61-54.31,1516.48-59.5,1512.14-62.25z M1500.7-54.8
			c1.96-5.12,8.02-5.12,9.97,0C1507.35-54.8,1504.02-54.8,1500.7-54.8z"/>
		<path class="st11" d="M1460.7-64.12v-6.58h-6.58v24.14l6.58,6.58h5.49c6.67,0,12.07-5.4,12.07-12.07s-5.4-12.07-12.07-12.07
			H1460.7z M1466.18-57.54c3.03,0,5.49,2.46,5.49,5.49c0,3.03-2.46,5.49-5.49,5.49h-5.49v-10.97H1466.18z"/>
		<rect x="1482.64" y="-70.71" class="st11" width="6.58" height="30.72"/>
		<g>
			<polygon class="st11" points="1439.85,-70.71 1433.26,-64.12 1433.26,-39.98 1439.85,-39.98 1439.85,-64.12 1450.82,-64.12 
				1450.82,-70.71 			"/>
			<polygon class="st11" points="1422.29,-70.71 1422.29,-64.12 1430.16,-64.12 1436.74,-70.71 			"/>
		</g>
	</g>
	<g>
		<path class="st11" d="M1397.81-45.64c-7.22,0-13.08-5.86-13.08-13.08c0-5.84,3.83-10.79,9.11-12.47
			c-4.32-1.35-9.33-0.54-13.11,3.24c-8.24,8.24-2.4,22.32,9.24,22.32c0,3.03-0.8,5.42-2.61,7.84c4.31-1.39,8.19-4.23,11.01-7.87
			C1398.18-45.65,1398-45.64,1397.81-45.64z"/>
		<path class="st11" d="M1391.2-67.95c-8.24,8.24-2.4,22.32,9.24,22.32c0,3.03-0.8,5.42-2.61,7.84
			c8.74-2.82,15.69-11.55,15.69-20.92C1413.51-70.35,1399.43-76.19,1391.2-67.95z"/>
	</g>
</g>
<g>
	<g>
		<path class="st11" d="M1512.14,21.94c-4.34-2.75-9.94-2.45-13.96,0.74s-5.58,8.58-3.9,13.43c1.69,4.85,6.26,8.1,11.4,8.1
			c3.9,0,7.68-1.79,10.21-4.74c-2.02-0.74-4.05-1.47-6.07-2.21c-1.26,1.02-2.51,1.46-4.14,1.46c-2.39,0-4.2-1.77-4.99-3.84
			c5.58,0,11.16,0,16.74,0C1518.61,29.88,1516.48,24.69,1512.14,21.94z M1500.7,29.39c1.96-5.12,8.02-5.12,9.97,0
			C1507.35,29.39,1504.02,29.39,1500.7,29.39z"/>
		<path class="st11" d="M1460.7,20.06v-6.58h-6.58v24.14l6.58,6.58h5.49c6.67,0,12.07-5.4,12.07-12.07s-5.4-12.07-12.07-12.07
			H1460.7z M1466.18,26.65c3.03,0,5.49,2.46,5.49,5.49s-2.46,5.49-5.49,5.49h-5.49V26.65H1466.18z"/>
		<rect x="1482.64" y="13.48" class="st11" width="6.58" height="30.72"/>
		<g>
			<polygon class="st11" points="1439.85,13.48 1433.26,20.06 1433.26,44.2 1439.85,44.2 1439.85,20.06 1450.82,20.06 
				1450.82,13.48 			"/>
			<polygon class="st11" points="1422.29,13.48 1422.29,20.06 1430.16,20.06 1436.74,13.48 			"/>
		</g>
	</g>
	<g>
		<path class="st11" d="M1397.81,38.55c-7.22,0-13.08-5.86-13.08-13.08c0-5.84,3.83-10.79,9.11-12.47
			c-4.32-1.35-9.33-0.54-13.11,3.24c-8.24,8.24-2.4,22.32,9.24,22.32c0,3.03-0.8,5.42-2.61,7.84c4.31-1.39,8.19-4.23,11.01-7.87
			C1398.18,38.54,1398,38.55,1397.81,38.55z"/>
		<path class="st11" d="M1391.2,16.24c-8.24,8.24-2.4,22.32,9.24,22.32c0,3.03-0.8,5.42-2.61,7.84
			c8.74-2.82,15.69-11.55,15.69-20.92C1413.51,13.84,1399.43,8,1391.2,16.24z"/>
	</g>
</g>
<g>
	<g>
		<path class="st11" d="M1512.14,106.13c-4.34-2.75-9.94-2.45-13.96,0.74c-4.02,3.19-5.58,8.58-3.9,13.43
			c1.69,4.85,6.26,8.1,11.4,8.1c3.9,0,7.68-1.79,10.21-4.74c-2.02-0.74-4.05-1.47-6.07-2.21c-1.26,1.02-2.51,1.46-4.14,1.46
			c-2.39,0-4.2-1.77-4.99-3.84c5.58,0,11.16,0,16.74,0C1518.61,114.07,1516.48,108.88,1512.14,106.13z M1500.7,113.58
			c1.96-5.12,8.02-5.12,9.97,0C1507.35,113.58,1504.02,113.58,1500.7,113.58z"/>
		<path class="st11" d="M1460.7,104.25v-6.58h-6.58v24.14l6.58,6.58h5.49c6.67,0,12.07-5.4,12.07-12.07
			c0-6.67-5.4-12.07-12.07-12.07H1460.7z M1466.18,110.84c3.03,0,5.49,2.46,5.49,5.49c0,3.03-2.46,5.49-5.49,5.49h-5.49v-10.97
			H1466.18z"/>
		<rect x="1482.64" y="97.67" class="st11" width="6.58" height="30.72"/>
		<g>
			<polygon class="st11" points="1439.85,97.67 1433.26,104.25 1433.26,128.39 1439.85,128.39 1439.85,104.25 1450.82,104.25 
				1450.82,97.67 			"/>
			<polygon class="st11" points="1422.29,97.67 1422.29,104.25 1430.16,104.25 1436.74,97.67 			"/>
		</g>
	</g>
	<g>
		<path class="st11" d="M1397.81,122.74c-7.22,0-13.08-5.86-13.08-13.08c0-5.84,3.83-10.79,9.11-12.47
			c-4.32-1.35-9.33-0.54-13.11,3.24c-8.24,8.24-2.4,22.32,9.24,22.32c0,3.03-0.8,5.42-2.61,7.84c4.31-1.39,8.19-4.23,11.01-7.87
			C1398.18,122.73,1398,122.74,1397.81,122.74z"/>
		<path class="st11" d="M1391.2,100.43c-8.24,8.24-2.4,22.32,9.24,22.32c0,3.03-0.8,5.42-2.61,7.84
			c8.74-2.82,15.69-11.55,15.69-20.92C1413.51,98.02,1399.43,92.19,1391.2,100.43z"/>
	</g>
</g>
<g>
	<g>
		<path class="st0" d="M1512.14,190.32c-4.34-2.75-9.94-2.45-13.96,0.74c-4.02,3.19-5.58,8.58-3.9,13.43
			c1.69,4.85,6.26,8.1,11.4,8.1c3.9,0,7.68-1.79,10.21-4.74c-2.02-0.74-4.05-1.47-6.07-2.21c-1.26,1.02-2.51,1.46-4.14,1.46
			c-2.39,0-4.2-1.77-4.99-3.84c5.58,0,11.16,0,16.74,0C1518.61,198.26,1516.48,193.06,1512.14,190.32z M1500.7,197.77
			c1.96-5.12,8.02-5.12,9.97,0C1507.35,197.77,1504.02,197.77,1500.7,197.77z"/>
		<path class="st0" d="M1460.7,188.44v-6.58h-6.58V206l6.58,6.58h5.49c6.67,0,12.07-5.4,12.07-12.07s-5.4-12.07-12.07-12.07H1460.7z
			 M1466.18,195.03c3.03,0,5.49,2.46,5.49,5.49c0,3.03-2.46,5.49-5.49,5.49h-5.49v-10.97H1466.18z"/>
		<rect x="1482.64" y="181.86" class="st0" width="6.58" height="30.72"/>
		<g>
			<polygon class="st0" points="1439.85,181.86 1433.26,188.44 1433.26,212.58 1439.85,212.58 1439.85,188.44 1450.82,188.44 
				1450.82,181.86 			"/>
			<polygon class="st0" points="1422.29,181.86 1422.29,188.44 1430.16,188.44 1436.74,181.86 			"/>
		</g>
	</g>
	<g>
		<path class="st0" d="M1397.81,206.92c-7.22,0-13.08-5.86-13.08-13.08c0-5.84,3.83-10.79,9.11-12.47
			c-4.32-1.35-9.33-0.54-13.11,3.24c-8.24,8.24-2.4,22.32,9.24,22.32c0,3.03-0.8,5.42-2.61,7.84c4.31-1.39,8.19-4.23,11.01-7.87
			C1398.18,206.92,1398,206.92,1397.81,206.92z"/>
		<path class="st0" d="M1391.2,184.62c-8.24,8.24-2.4,22.32,9.24,22.32c0,3.03-0.8,5.42-2.61,7.84
			c8.74-2.82,15.69-11.55,15.69-20.92C1413.51,182.21,1399.43,176.38,1391.2,184.62z"/>
	</g>
</g>
<g>
	<g>
		<path class="st0" d="M1512.14,274.51c-4.34-2.75-9.94-2.45-13.96,0.74c-4.02,3.19-5.58,8.58-3.9,13.43
			c1.69,4.85,6.26,8.1,11.4,8.1c3.9,0,7.68-1.79,10.21-4.74c-2.02-0.74-4.05-1.47-6.07-2.21c-1.26,1.02-2.51,1.46-4.14,1.46
			c-2.39,0-4.2-1.77-4.99-3.84c5.58,0,11.16,0,16.74,0C1518.61,282.44,1516.48,277.25,1512.14,274.51z M1500.7,281.96
			c1.96-5.12,8.02-5.12,9.97,0C1507.35,281.96,1504.02,281.96,1500.7,281.96z"/>
		<path class="st0" d="M1460.7,272.63v-6.58h-6.58v24.14l6.58,6.58h5.49c6.67,0,12.07-5.4,12.07-12.07s-5.4-12.07-12.07-12.07
			H1460.7z M1466.18,279.22c3.03,0,5.49,2.46,5.49,5.49c0,3.03-2.46,5.49-5.49,5.49h-5.49v-10.97H1466.18z"/>
		<rect x="1482.64" y="266.05" class="st0" width="6.58" height="30.72"/>
		<g>
			<polygon class="st0" points="1439.85,266.05 1433.26,272.63 1433.26,296.77 1439.85,296.77 1439.85,272.63 1450.82,272.63 
				1450.82,266.05 			"/>
			<polygon class="st0" points="1422.29,266.05 1422.29,272.63 1430.16,272.63 1436.74,266.05 			"/>
		</g>
	</g>
	<g>
		<path class="st0" d="M1397.81,291.11c-7.22,0-13.08-5.86-13.08-13.08c0-5.84,3.83-10.79,9.11-12.47
			c-4.32-1.35-9.33-0.54-13.11,3.24c-8.24,8.24-2.4,22.32,9.24,22.32c0,3.03-0.8,5.42-2.61,7.84c4.31-1.39,8.19-4.23,11.01-7.87
			C1398.18,291.11,1398,291.11,1397.81,291.11z"/>
		<path class="st0" d="M1391.2,268.81c-8.24,8.24-2.4,22.32,9.24,22.32c0,3.03-0.8,5.42-2.61,7.84
			c8.74-2.82,15.69-11.55,15.69-20.92C1413.51,266.4,1399.43,260.57,1391.2,268.81z"/>
	</g>
</g>
<g>
	<g>
		<path class="st0" d="M1512.14,358.69c-4.34-2.75-9.94-2.45-13.96,0.74c-4.02,3.19-5.58,8.58-3.9,13.43
			c1.69,4.85,6.26,8.1,11.4,8.1c3.9,0,7.68-1.79,10.21-4.74c-2.02-0.74-4.05-1.47-6.07-2.21c-1.26,1.02-2.51,1.46-4.14,1.46
			c-2.39,0-4.2-1.77-4.99-3.84c5.58,0,11.16,0,16.74,0C1518.61,366.63,1516.48,361.44,1512.14,358.69z M1500.7,366.15
			c1.96-5.12,8.02-5.12,9.97,0C1507.35,366.15,1504.02,366.15,1500.7,366.15z"/>
		<path class="st0" d="M1460.7,356.82v-6.58h-6.58v24.14l6.58,6.58h5.49c6.67,0,12.07-5.4,12.07-12.07c0-6.67-5.4-12.07-12.07-12.07
			H1460.7z M1466.18,363.4c3.03,0,5.49,2.46,5.49,5.49c0,3.03-2.46,5.49-5.49,5.49h-5.49V363.4H1466.18z"/>
		<rect x="1482.64" y="350.24" class="st0" width="6.58" height="30.72"/>
		<g>
			<polygon class="st0" points="1439.85,350.24 1433.26,356.82 1433.26,380.96 1439.85,380.96 1439.85,356.82 1450.82,356.82 
				1450.82,350.24 			"/>
			<polygon class="st0" points="1422.29,350.24 1422.29,356.82 1430.16,356.82 1436.74,350.24 			"/>
		</g>
	</g>
	<g>
		<path class="st0" d="M1397.81,375.3c-7.22,0-13.08-5.86-13.08-13.08c0-5.84,3.83-10.79,9.11-12.47
			c-4.32-1.35-9.33-0.54-13.11,3.24c-8.24,8.24-2.4,22.32,9.24,22.32c0,3.03-0.8,5.42-2.61,7.84c4.31-1.39,8.19-4.23,11.01-7.87
			C1398.18,375.3,1398,375.3,1397.81,375.3z"/>
		<path class="st0" d="M1391.2,352.99c-8.24,8.24-2.4,22.32,9.24,22.32c0,3.03-0.8,5.42-2.61,7.84
			c8.74-2.82,15.69-11.55,15.69-20.92C1413.51,350.59,1399.43,344.76,1391.2,352.99z"/>
	</g>
</g>
<g>
	<g>
		<path class="st0" d="M1512.14,442.88c-4.34-2.75-9.94-2.45-13.96,0.74c-4.02,3.19-5.58,8.58-3.9,13.43
			c1.69,4.85,6.26,8.1,11.4,8.1c3.9,0,7.68-1.79,10.21-4.74c-2.02-0.74-4.05-1.47-6.07-2.21c-1.26,1.02-2.51,1.46-4.14,1.46
			c-2.39,0-4.2-1.77-4.99-3.84c5.58,0,11.16,0,16.74,0C1518.61,450.82,1516.48,445.63,1512.14,442.88z M1500.7,450.34
			c1.96-5.12,8.02-5.12,9.97,0C1507.35,450.34,1504.02,450.34,1500.7,450.34z"/>
		<path class="st0" d="M1460.7,441.01v-6.58h-6.58v24.14l6.58,6.58h5.49c6.67,0,12.07-5.4,12.07-12.07c0-6.67-5.4-12.07-12.07-12.07
			H1460.7z M1466.18,447.59c3.03,0,5.49,2.46,5.49,5.49c0,3.03-2.46,5.49-5.49,5.49h-5.49v-10.97H1466.18z"/>
		<rect x="1482.64" y="434.43" class="st0" width="6.58" height="30.72"/>
		<g>
			<polygon class="st0" points="1439.85,434.43 1433.26,441.01 1433.26,465.15 1439.85,465.15 1439.85,441.01 1450.82,441.01 
				1450.82,434.43 			"/>
			<polygon class="st0" points="1422.29,434.43 1422.29,441.01 1430.16,441.01 1436.74,434.43 			"/>
		</g>
	</g>
	<g>
		<path class="st0" d="M1397.81,459.49c-7.22,0-13.08-5.86-13.08-13.08c0-5.84,3.83-10.79,9.11-12.47
			c-4.32-1.35-9.33-0.54-13.11,3.24c-8.24,8.24-2.4,22.32,9.24,22.32c0,3.03-0.8,5.42-2.61,7.84c4.31-1.39,8.19-4.23,11.01-7.87
			C1398.18,459.48,1398,459.49,1397.81,459.49z"/>
		<path class="st0" d="M1391.2,437.18c-8.24,8.24-2.4,22.32,9.24,22.32c0,3.03-0.8,5.42-2.61,7.84
			c8.74-2.82,15.69-11.55,15.69-20.92C1413.51,434.78,1399.43,428.95,1391.2,437.18z"/>
	</g>
</g>
<g>
	<g>
		<path class="st0" d="M1512.14,527.07c-4.34-2.75-9.94-2.45-13.96,0.74s-5.58,8.58-3.9,13.43c1.69,4.85,6.26,8.1,11.4,8.1
			c3.9,0,7.68-1.79,10.21-4.74c-2.02-0.74-4.05-1.47-6.07-2.21c-1.26,1.02-2.51,1.46-4.14,1.46c-2.39,0-4.2-1.77-4.99-3.84
			c5.58,0,11.16,0,16.74,0C1518.61,535.01,1516.48,529.82,1512.14,527.07z M1500.7,534.53c1.96-5.12,8.02-5.12,9.97,0
			C1507.35,534.53,1504.02,534.53,1500.7,534.53z"/>
		<path class="st0" d="M1460.7,525.2v-6.58h-6.58v24.14l6.58,6.58h5.49c6.67,0,12.07-5.4,12.07-12.07c0-6.67-5.4-12.07-12.07-12.07
			H1460.7z M1466.18,531.78c3.03,0,5.49,2.46,5.49,5.49c0,3.03-2.46,5.49-5.49,5.49h-5.49v-10.97H1466.18z"/>
		<rect x="1482.64" y="518.61" class="st0" width="6.58" height="30.72"/>
		<g>
			<polygon class="st0" points="1439.85,518.61 1433.26,525.2 1433.26,549.34 1439.85,549.34 1439.85,525.2 1450.82,525.2 
				1450.82,518.61 			"/>
			<polygon class="st0" points="1422.29,518.61 1422.29,525.2 1430.16,525.2 1436.74,518.61 			"/>
		</g>
	</g>
	<g>
		<path class="st0" d="M1397.81,543.68c-7.22,0-13.08-5.86-13.08-13.08c0-5.84,3.83-10.79,9.11-12.47
			c-4.32-1.35-9.33-0.54-13.11,3.24c-8.24,8.24-2.4,22.32,9.24,22.32c0,3.03-0.8,5.42-2.61,7.84c4.31-1.39,8.19-4.23,11.01-7.87
			C1398.18,543.67,1398,543.68,1397.81,543.68z"/>
		<path class="st0" d="M1391.2,521.37c-8.24,8.24-2.4,22.32,9.24,22.32c0,3.03-0.8,5.42-2.61,7.84
			c8.74-2.82,15.69-11.55,15.69-20.92C1413.51,518.97,1399.43,513.14,1391.2,521.37z"/>
	</g>
</g>
<g>
	<g>
		<path class="st0" d="M1512.14,611.26c-4.34-2.75-9.94-2.45-13.96,0.74s-5.58,8.58-3.9,13.43c1.69,4.85,6.26,8.1,11.4,8.1
			c3.9,0,7.68-1.79,10.21-4.74c-2.02-0.74-4.05-1.47-6.07-2.21c-1.26,1.02-2.51,1.46-4.14,1.46c-2.39,0-4.2-1.77-4.99-3.84
			c5.58,0,11.16,0,16.74,0C1518.61,619.2,1516.48,614.01,1512.14,611.26z M1500.7,618.71c1.96-5.12,8.02-5.12,9.97,0
			C1507.35,618.71,1504.02,618.71,1500.7,618.71z"/>
		<path class="st0" d="M1460.7,609.39v-6.58h-6.58v24.14l6.58,6.58h5.49c6.67,0,12.07-5.4,12.07-12.07c0-6.67-5.4-12.07-12.07-12.07
			H1460.7z M1466.18,615.97c3.03,0,5.49,2.46,5.49,5.49c0,3.03-2.46,5.49-5.49,5.49h-5.49v-10.97H1466.18z"/>
		<rect x="1482.64" y="602.8" class="st0" width="6.58" height="30.72"/>
		<g>
			<polygon class="st0" points="1439.85,602.8 1433.26,609.39 1433.26,633.53 1439.85,633.53 1439.85,609.39 1450.82,609.39 
				1450.82,602.8 			"/>
			<polygon class="st0" points="1422.29,602.8 1422.29,609.39 1430.16,609.39 1436.74,602.8 			"/>
		</g>
	</g>
	<g>
		<path class="st0" d="M1397.81,627.87c-7.22,0-13.08-5.86-13.08-13.08c0-5.84,3.83-10.79,9.11-12.47
			c-4.32-1.35-9.33-0.54-13.11,3.24c-8.24,8.24-2.4,22.32,9.24,22.32c0,3.03-0.8,5.42-2.61,7.84c4.31-1.39,8.19-4.23,11.01-7.87
			C1398.18,627.86,1398,627.87,1397.81,627.87z"/>
		<path class="st0" d="M1391.2,605.56c-8.24,8.24-2.4,22.32,9.24,22.32c0,3.03-0.8,5.42-2.61,7.84
			c8.74-2.82,15.69-11.55,15.69-20.92C1413.51,603.16,1399.43,597.33,1391.2,605.56z"/>
	</g>
</g>
<g>
	<g>
		<path class="st2" d="M873.29,171.83c-30.08,0-74.73,9.26-94.48,32.82c-13.36,15.94-8.9,33.08,12.56,44.18
			c16.4,8.48,37.12,10.87,53.6,10.87c30.08,0,74.73-9.26,94.48-32.82c13.36-15.94,8.9-33.08-12.56-44.18
			C910.49,174.22,889.77,171.83,873.29,171.83z"/>
	</g>
	<g>
		<path class="st1" d="M915.76,206.85c-5.6-3.55-12.84-3.17-18.03,0.96c-5.2,4.12-7.21,11.08-5.03,17.34
			c2.18,6.26,8.09,10.46,14.72,10.46c5.04,0,9.92-2.32,13.18-6.12c-2.61-0.95-5.23-1.9-7.84-2.85c-1.63,1.32-3.24,1.89-5.34,1.89
			c-3.08,0-5.42-2.29-6.44-4.96c7.21,0,14.42,0,21.62,0C924.1,217.11,921.36,210.4,915.76,206.85z M900.97,216.48
			c2.53-6.61,10.36-6.61,12.88,0C909.56,216.48,905.27,216.48,900.97,216.48z"/>
		<path class="st1" d="M849.3,204.43v-8.5h-8.5v31.18l8.5,8.5h7.09c8.61,0,15.59-6.98,15.59-15.59s-6.98-15.59-15.59-15.59H849.3z
			 M856.39,212.93c3.91,0,7.09,3.17,7.09,7.09c0,3.91-3.17,7.09-7.09,7.09h-7.09v-14.17H856.39z"/>
		<rect x="877.65" y="195.93" class="st1" width="8.5" height="39.69"/>
		<g>
			<polygon class="st1" points="822.37,195.93 813.87,204.43 813.87,235.61 822.37,235.61 822.37,204.43 836.55,204.43 
				836.55,195.93 			"/>
			<polygon class="st1" points="799.7,195.93 799.7,204.43 809.86,204.43 818.37,195.93 			"/>
		</g>
	</g>
</g>
<g>
	<path class="st1" d="M1142.59,164.75c-20.47,0-39.65,2.64-59.02,10.01c-11.49,4.37-21.62,9.53-30.37,18.88
		c-5.58,5.97-9.82,13.39-9.82,22.13c0,8.75,4.24,16.18,9.83,22.14c8.76,9.35,18.9,14.51,30.4,18.88c19.36,7.36,38.53,10,58.98,10
		c20.47,0,39.65-2.64,59.02-10.01c11.49-4.37,21.62-9.53,30.37-18.88c5.59-5.97,9.82-13.39,9.82-22.13c0-8.75-4.24-16.18-9.83-22.14
		c-8.76-9.35-18.9-14.51-30.4-18.88C1182.21,167.38,1163.04,164.75,1142.59,164.75z"/>
	<g>
		<path class="st2" d="M1156.75,171.83c-30.08,0-74.73,9.26-94.48,32.82c-13.36,15.94-8.9,33.08,12.56,44.18
			c16.4,8.48,37.12,10.87,53.6,10.87c30.08,0,74.73-9.26,94.48-32.82c13.36-15.94,8.9-33.08-12.56-44.18
			C1193.95,174.22,1173.23,171.83,1156.75,171.83z"/>
	</g>
	<g>
		<path class="st1" d="M1199.22,206.85c-5.6-3.55-12.84-3.17-18.03,0.96c-5.2,4.12-7.21,11.08-5.03,17.34
			c2.18,6.26,8.09,10.46,14.72,10.46c5.04,0,9.92-2.32,13.18-6.12c-2.61-0.95-5.23-1.9-7.84-2.85c-1.63,1.32-3.24,1.89-5.34,1.89
			c-3.08,0-5.42-2.29-6.44-4.96c7.21,0,14.42,0,21.62,0C1207.57,217.11,1204.82,210.4,1199.22,206.85z M1184.43,216.48
			c2.53-6.61,10.36-6.61,12.88,0C1193.02,216.48,1188.73,216.48,1184.43,216.48z"/>
		<path class="st1" d="M1132.77,204.43v-8.5h-8.5v31.18l8.5,8.5h7.09c8.61,0,15.59-6.98,15.59-15.59s-6.98-15.59-15.59-15.59
			H1132.77z M1139.85,212.93c3.91,0,7.09,3.17,7.09,7.09c0,3.91-3.17,7.09-7.09,7.09h-7.09v-14.17H1139.85z"/>
		<rect x="1161.11" y="195.93" class="st1" width="8.5" height="39.69"/>
		<g>
			<polygon class="st1" points="1105.84,195.93 1097.33,204.43 1097.33,235.61 1105.84,235.61 1105.84,204.43 1120.01,204.43 
				1120.01,195.93 			"/>
			<polygon class="st1" points="1083.16,195.93 1083.16,204.43 1093.33,204.43 1101.83,195.93 			"/>
		</g>
	</g>
</g>
<g>
	<g>
		<path class="st1" d="M873.29,299.39c-30.08,0-74.73,9.26-94.48,32.82c-13.36,15.94-8.9,33.08,12.56,44.18
			c16.4,8.48,37.12,10.87,53.6,10.87c30.08,0,74.73-9.26,94.48-32.82c13.36-15.94,8.9-33.08-12.56-44.18
			C910.49,301.78,889.77,299.39,873.29,299.39z"/>
	</g>
	<g>
		<path class="st2" d="M915.76,334.41c-5.6-3.55-12.84-3.17-18.03,0.96c-5.2,4.12-7.21,11.08-5.03,17.34
			c2.18,6.26,8.09,10.46,14.72,10.46c5.04,0,9.92-2.32,13.18-6.12c-2.61-0.95-5.23-1.9-7.84-2.85c-1.63,1.32-3.24,1.89-5.34,1.89
			c-3.08,0-5.42-2.29-6.44-4.96c7.21,0,14.42,0,21.62,0C924.1,344.66,921.36,337.96,915.76,334.41z M900.97,344.04
			c2.53-6.61,10.36-6.61,12.88,0C909.56,344.04,905.27,344.04,900.97,344.04z"/>
		<path class="st2" d="M849.3,331.99v-8.5h-8.5v31.18l8.5,8.5h7.09c8.61,0,15.59-6.98,15.59-15.59c0-8.61-6.98-15.59-15.59-15.59
			H849.3z M856.39,340.49c3.91,0,7.09,3.17,7.09,7.09c0,3.91-3.17,7.09-7.09,7.09h-7.09v-14.17H856.39z"/>
		<rect x="877.65" y="323.49" class="st2" width="8.5" height="39.69"/>
		<g>
			<polygon class="st2" points="822.37,323.49 813.87,331.99 813.87,363.17 822.37,363.17 822.37,331.99 836.55,331.99 
				836.55,323.49 			"/>
			<polygon class="st2" points="799.7,323.49 799.7,331.99 809.86,331.99 818.37,323.49 			"/>
		</g>
	</g>
</g>
<circle class="st2" cx="796.76" cy="485.06" r="42.52"/>
<circle class="st12" cx="1204.95" cy="485.06" r="42.52"/>
<circle class="st13" cx="1068.89" cy="485.06" r="42.52"/>
<text transform="matrix(1 0 0 1 775.9479 560.9092)"><tspan x="0" y="0" class="st11" style="font-family:'MyriadPro-Bold'; font-size:18px;">Main</tspan><tspan x="-26.04" y="24" class="st11" style="font-family:'MyriadPro-Regular'; font-size:14px;">C0 M30 Y100 K0</tspan><tspan x="-19.37" y="48" class="st11" style="font-family:'MyriadPro-Regular'; font-size:14px;">R251 G186 B0</tspan><tspan x="-5.12" y="72" class="st11" style="font-family:'MyriadPro-Regular'; font-size:14px;">#FBBA00</tspan></text>
<circle class="st1" cx="932.83" cy="485.06" r="42.52"/>
<text transform="matrix(1 0 0 1 913.0729 560.9092)"><tspan x="0" y="0" class="st11" style="font-family:'MyriadPro-Bold'; font-size:18px;">Sub1</tspan><tspan x="-19.92" y="24" class="st11" style="font-family:'MyriadPro-Regular'; font-size:14px;">C0 M0 Y0 K90</tspan><tspan x="-16.84" y="48" class="st11" style="font-family:'MyriadPro-Regular'; font-size:14px;">R60 G60 B60</tspan><tspan x="-6.68" y="72" class="st11" style="font-family:'MyriadPro-Regular'; font-size:14px;">#3C3C3C</tspan></text>
<text transform="matrix(1 0 0 1 1185.1989 560.9092)"><tspan x="0" y="0" class="st11" style="font-family:'MyriadPro-Bold'; font-size:18px;">Sub3</tspan><tspan x="-27.1" y="24" class="st11" style="font-family:'MyriadPro-Regular'; font-size:14px;">C0 M50 Y100 K0</tspan><tspan x="-20.43" y="48" class="st11" style="font-family:'MyriadPro-Regular'; font-size:14px;">R243 G146 B0</tspan><tspan x="-5.09" y="72" class="st11" style="font-family:'MyriadPro-Regular'; font-size:14px;">#F39200</tspan></text>
<text transform="matrix(1 0 0 1 1049.1359 560.9092)"><tspan x="0" y="0" class="st11" style="font-family:'MyriadPro-Bold'; font-size:18px;">Sub2</tspan><tspan x="-27.1" y="24" class="st11" style="font-family:'MyriadPro-Regular'; font-size:14px;">C0 M10 Y100 K0</tspan><tspan x="-20.43" y="48" class="st11" style="font-family:'MyriadPro-Regular'; font-size:14px;">R255 G221 B0</tspan><tspan x="-7.05" y="72" class="st11" style="font-family:'MyriadPro-Regular'; font-size:14px;">#FFDD00</tspan></text>
<g>
	<g>
		
			<ellipse transform="matrix(0.8417 -0.54 0.54 0.8417 -4.4837 671.3642)" class="st1" cx="1142.59" cy="343.33" rx="36.85" ry="36.85"/>
		
			<ellipse transform="matrix(0.7485 -0.6632 0.6632 0.7485 59.7044 844.0724)" class="st2" cx="1142.59" cy="343.33" rx="34.39" ry="27"/>
	</g>
	<g>
		<polygon class="st1" points="1124.17,336.24 1124.17,327.74 1161.02,327.74 1161.02,336.24 1146.84,336.24 1146.84,367.42 
			1138.34,367.42 1138.34,336.24 		"/>
	</g>
</g>
<text transform="matrix(1 0 0 1 1313.2145 179.7974)" class="st0" style="font-family:'MyriadPro-Bold'; font-size:14px;">50%</text>
<text transform="matrix(1 0 0 1 1313.2145 95.6084)" class="st11" style="font-family:'MyriadPro-Bold'; font-size:14px;">40%</text>
<text transform="matrix(1 0 0 1 1313.2145 11.4195)" class="st11" style="font-family:'MyriadPro-Bold'; font-size:14px;">30%</text>
<text transform="matrix(1 0 0 1 1313.2145 -72.7695)" class="st11" style="font-family:'MyriadPro-Bold'; font-size:14px;">20%</text>
<text transform="matrix(1 0 0 1 1313.2145 -156.9585)" class="st11" style="font-family:'MyriadPro-Bold'; font-size:14px;">10%</text>
<text transform="matrix(1 0 0 1 1313.2145 263.9864)" class="st0" style="font-family:'MyriadPro-Bold'; font-size:14px;">60%</text>
<text transform="matrix(1 0 0 1 1313.2145 348.1754)" class="st0" style="font-family:'MyriadPro-Bold'; font-size:14px;">70%</text>
<text transform="matrix(1 0 0 1 1313.2145 432.3644)" class="st0" style="font-family:'MyriadPro-Bold'; font-size:14px;">80%</text>
<text transform="matrix(1 0 0 1 1313.2145 516.5533)" class="st0" style="font-family:'MyriadPro-Bold'; font-size:14px;">90%</text>
<text transform="matrix(1 0 0 1 1313.2145 600.7423)" class="st0" style="font-family:'MyriadPro-Bold'; font-size:14px;">100%</text>
<g>
	<g>
		<path class="st2" d="M864.79,28.42c-15.66,0-28.35-12.69-28.35-28.35c0-12.66,8.3-23.37,19.75-27.01
			c-9.35-2.92-20.21-1.17-28.4,7.02c-17.85,17.85-5.21,48.36,20.03,48.36c0,6.57-1.72,11.74-5.67,17
			c9.35-3.02,17.75-9.16,23.86-17.05C865.6,28.41,865.2,28.42,864.79,28.42z"/>
		<path class="st2" d="M850.46-19.92c-17.85,17.85-5.21,48.36,20.03,48.36c0,6.57-1.72,11.74-5.67,17
			c18.93-6.11,33.99-25.03,33.99-45.32C898.82-25.12,868.31-37.76,850.46-19.92z"/>
	</g>
	<g>
		<path class="st1" d="M913.53,70.54c-5.6-3.55-12.84-3.17-18.03,0.96c-5.2,4.12-7.21,11.08-5.03,17.34
			c2.18,6.26,8.09,10.46,14.72,10.46c5.04,0,9.92-2.32,13.18-6.12c-2.61-0.95-5.23-1.9-7.84-2.85c-1.63,1.32-3.24,1.89-5.34,1.89
			c-3.08,0-5.42-2.29-6.44-4.96c7.21,0,14.42,0,21.62,0C921.88,80.79,919.13,74.09,913.53,70.54z M898.75,80.16
			c2.53-6.61,10.36-6.61,12.88,0C907.34,80.16,903.04,80.16,898.75,80.16z"/>
		<path class="st1" d="M847.08,68.12v-8.5h-8.5v31.18l8.5,8.5h7.09c8.61,0,15.59-6.98,15.59-15.59c0-8.61-6.98-15.59-15.59-15.59
			H847.08z M854.17,76.62c3.91,0,7.09,3.17,7.09,7.09c0,3.91-3.17,7.09-7.09,7.09h-7.09V76.62H854.17z"/>
		<rect x="875.43" y="59.61" class="st1" width="8.5" height="39.69"/>
		<g>
			<polygon class="st1" points="820.15,59.61 811.65,68.12 811.65,99.3 820.15,99.3 820.15,68.12 834.32,68.12 834.32,59.61 			"/>
			<polygon class="st1" points="797.47,59.61 797.47,68.12 807.64,68.12 816.14,59.61 			"/>
		</g>
	</g>
</g>
<g>
	<g>
		<path class="st2" d="M1162.42,28.42c-15.66,0-28.35-12.69-28.35-28.35c0-12.66,8.3-23.37,19.75-27.01
			c-9.35-2.92-20.21-1.17-28.4,7.02c-17.85,17.85-5.21,48.36,20.03,48.36c0,6.57-1.72,11.74-5.67,17
			c9.35-3.02,17.75-9.16,23.86-17.05C1163.24,28.41,1162.84,28.42,1162.42,28.42z"/>
		<path class="st2" d="M1148.1-19.92c-17.85,17.85-5.21,48.36,20.03,48.36c0,6.57-1.72,11.74-5.67,17
			c18.93-6.11,33.99-25.03,33.99-45.32C1196.46-25.12,1165.95-37.76,1148.1-19.92z"/>
	</g>
	<g>
		<path class="st0" d="M1211.17,70.54c-5.6-3.55-12.84-3.17-18.03,0.96c-5.2,4.12-7.21,11.08-5.03,17.34
			c2.18,6.26,8.09,10.46,14.72,10.46c5.04,0,9.92-2.32,13.18-6.12c-2.61-0.95-5.23-1.9-7.84-2.85c-1.63,1.32-3.24,1.89-5.34,1.89
			c-3.08,0-5.42-2.29-6.44-4.96c7.21,0,14.42,0,21.62,0C1219.52,80.79,1216.77,74.09,1211.17,70.54z M1196.38,80.16
			c2.53-6.61,10.36-6.61,12.88,0C1204.97,80.16,1200.68,80.16,1196.38,80.16z"/>
		<path class="st0" d="M1144.72,68.12v-8.5h-8.5v31.18l8.5,8.5h7.09c8.61,0,15.59-6.98,15.59-15.59c0-8.61-6.98-15.59-15.59-15.59
			H1144.72z M1151.8,76.62c3.91,0,7.09,3.17,7.09,7.09c0,3.91-3.17,7.09-7.09,7.09h-7.09V76.62H1151.8z"/>
		<rect x="1173.06" y="59.61" class="st0" width="8.5" height="39.69"/>
		<g>
			<polygon class="st0" points="1117.79,59.61 1109.28,68.12 1109.28,99.3 1117.79,99.3 1117.79,68.12 1131.96,68.12 1131.96,59.61 
							"/>
			<polygon class="st0" points="1095.11,59.61 1095.11,68.12 1105.28,68.12 1113.78,59.61 			"/>
		</g>
	</g>
</g>
<g>
	<g>
		<path class="st1" d="M501.05,39.32c-15.89-10.06-36.4-8.97-51.14,2.72c-14.73,11.69-20.46,31.42-14.27,49.18
			c6.19,17.76,22.94,29.66,41.74,29.66c14.28,0,28.13-6.57,37.38-17.36c-7.41-2.7-14.82-5.39-22.23-8.09
			c-4.63,3.74-9.2,5.35-15.15,5.35c-8.74,0-15.38-6.5-18.27-14.07c20.44,0,40.88,0,61.32,0C524.72,68.4,516.94,49.38,501.05,39.32z
			 M459.13,66.62c7.16-18.75,29.37-18.75,36.53,0C483.49,66.62,471.31,66.62,459.13,66.62z"/>
		<path class="st1" d="M312.62,32.45V8.34h-24.11v88.42l24.11,24.11h20.09c24.42,0,44.21-19.79,44.21-44.21
			c0-24.42-19.79-44.21-44.21-44.21H312.62z M332.72,56.57c11.1,0,20.09,9,20.09,20.09c0,11.1-9,20.09-20.09,20.09h-20.09V56.57
			H332.72z"/>
		<rect x="393" y="8.34" class="st1" width="24.11" height="112.53"/>
		<g>
			<polygon class="st1" points="236.26,8.34 212.15,32.45 212.15,120.87 236.26,120.87 236.26,32.45 276.45,32.45 276.45,8.34 			
				"/>
			<polygon class="st1" points="171.96,8.34 171.96,32.45 200.78,32.45 224.89,8.34 			"/>
		</g>
	</g>
	<g>
		<path class="st2" d="M82.28,100.15c-26.46,0-47.91-21.45-47.91-47.91c0-21.39,14.02-39.5,33.38-45.66
			c-15.81-4.94-34.16-1.98-48,11.87c-30.16,30.16-8.8,81.74,33.86,81.74c0,11.1-2.91,19.85-9.58,28.73
			c15.8-5.1,30-15.48,40.33-28.81C83.66,100.12,82.97,100.15,82.28,100.15z"/>
		<path class="st2" d="M58.07,18.44c-30.16,30.16-8.8,81.74,33.86,81.74c0,11.1-2.91,19.85-9.58,28.73
			c32-10.33,57.46-42.3,57.46-76.61C139.81,9.64,88.23-11.72,58.07,18.44z"/>
	</g>
</g>
</svg>
